<svg width="190" height="64" viewBox="0 0 190 64" fill="none" xmlns="http://www.w3.org/2000/svg">
<path d="M178.862 1.08192C177.597 1.07875 176.344 1.3236 175.175 1.80243C174.005 2.28127 172.943 2.98465 172.048 3.87223L157.842 17.9746L143.636 3.87223C141.825 2.08475 139.376 1.08142 136.822 1.08142C134.269 1.08142 131.819 2.08475 130.008 3.87223L129.464 4.41121C127.664 6.20904 126.653 8.64114 126.653 11.1762C126.653 13.7114 127.664 16.1435 129.464 17.9413L143.671 32.0455L129.464 46.1498C127.664 47.9475 126.653 50.3795 126.653 52.9146C126.653 55.45 127.664 57.882 129.464 59.6797L130.007 60.2193C131.818 62.0066 134.268 63.0097 136.821 63.0097C139.375 63.0097 141.824 62.0066 143.636 60.2193L157.842 46.1151L172.048 60.2193C173.859 62.0066 176.309 63.0097 178.863 63.0097C181.416 63.0097 183.866 62.0066 185.677 60.2193L186.22 59.6797C188.02 57.882 189.031 55.45 189.031 52.9146C189.031 50.3795 188.02 47.9475 186.22 46.1498L172.013 32.0455L186.22 17.9413C188.02 16.1435 189.03 13.7114 189.03 11.1762C189.03 8.64114 188.02 6.20904 186.22 4.41121L185.676 3.87223C184.781 2.9847 183.719 2.28135 182.55 1.80252C181.38 1.32368 180.127 1.07881 178.863 1.08192H178.862Z" fill="white"/>
<path d="M179.396 1.86754C180.485 1.86269 181.564 2.07243 182.571 2.48461C183.579 2.89679 184.493 3.50324 185.263 4.26881L185.82 4.82154C187.369 6.3702 188.238 8.46411 188.238 10.6466C188.238 12.829 187.369 14.923 185.82 16.4716L171.253 30.9333C171.107 31.0793 170.99 31.2526 170.91 31.4432C170.831 31.634 170.79 31.8384 170.79 32.0448C170.79 32.2512 170.831 32.4556 170.91 32.6463C170.99 32.837 171.107 33.0103 171.253 33.1563L185.82 47.618C187.374 49.1641 188.246 51.259 188.246 53.443C188.246 55.6275 187.374 57.7223 185.82 59.2684L185.263 59.8211C183.704 61.3592 181.594 62.2225 179.396 62.2225C177.197 62.2225 175.088 61.3592 173.528 59.8211L158.961 45.3595C158.815 45.2137 158.64 45.0978 158.448 45.0186C158.256 44.9398 158.05 44.899 157.842 44.899C157.634 44.899 157.429 44.9398 157.236 45.0186C157.044 45.0978 156.87 45.2137 156.723 45.3595L142.156 59.8211C140.597 61.3592 138.488 62.2225 136.289 62.2225C134.091 62.2225 131.981 61.3592 130.422 59.8211L129.865 59.268C128.311 57.7219 127.438 55.6271 127.438 53.443C127.438 51.259 128.311 49.1641 129.865 47.618L144.431 33.1563C144.578 33.0103 144.695 32.837 144.775 32.6463C144.854 32.4556 144.895 32.2512 144.895 32.0448C144.895 31.8384 144.854 31.634 144.775 31.4432C144.695 31.2526 144.578 31.0793 144.431 30.9333L129.865 16.4716C128.315 14.9231 127.446 12.8291 127.446 10.6466C127.446 8.46404 128.315 6.3701 129.865 4.82154L130.422 4.26834C131.982 2.73059 134.091 1.8676 136.289 1.8676C138.488 1.8676 140.597 2.73059 142.157 4.26834L156.723 18.73C156.87 18.876 157.045 18.9918 157.237 19.0708C157.429 19.1498 157.635 19.1905 157.843 19.1905C158.051 19.1905 158.257 19.1498 158.449 19.0708C158.641 18.9918 158.816 18.876 158.962 18.73L173.529 4.26834C174.299 3.5029 175.214 2.89655 176.221 2.48445C177.228 2.07235 178.308 1.86267 179.397 1.86754H179.396ZM179.397 0.295831C178.1 0.292583 176.815 0.543671 175.616 1.03469C174.417 1.5257 173.327 2.24697 172.41 3.15711L157.843 17.6188L143.277 3.15711C141.42 1.32445 138.908 0.295776 136.29 0.295776C133.672 0.295776 131.16 1.32445 129.303 3.15711L128.746 3.71029C126.9 5.55349 125.864 8.0472 125.864 10.6466C125.864 13.246 126.9 15.7397 128.746 17.5829L143.313 32.0446L128.746 46.5061C126.9 48.3497 125.864 50.8433 125.864 53.4427C125.864 56.0421 126.9 58.5358 128.746 60.3793L129.303 60.9324C131.16 62.7648 133.672 63.7932 136.29 63.7932C138.908 63.7932 141.42 62.7648 143.277 60.9324L157.843 46.4707L172.41 60.9324C174.267 62.7648 176.778 63.7932 179.397 63.7932C182.015 63.7932 184.527 62.7648 186.384 60.9324L186.94 60.3793C188.786 58.5358 189.822 56.0421 189.822 53.4427C189.822 50.8433 188.786 48.3497 186.94 46.5061L172.373 32.0446L186.94 17.5829C188.786 15.7396 189.822 13.2459 189.822 10.6466C189.822 8.04727 188.786 5.55359 186.94 3.71029L186.383 3.15711C185.465 2.24702 184.376 1.52578 183.177 1.03477C181.978 0.543755 180.693 0.292641 179.396 0.295831H179.397Z" fill="#ED2024"/>
<path d="M111.055 5.81249C111.055 5.81249 106.584 0.948752 100.376 0.948752C97.7011 0.948752 94.7048 1.8515 91.6038 4.43508L91.6095 4.44485C90.9832 4.93687 90.3922 5.47151 89.8405 6.04495L77.0464 18.4936L64.0907 5.63151C63.3667 4.75006 59.8276 0.820994 54.2413 0.820994C51.4218 0.820994 48.0832 1.82311 44.324 4.72698V4.73008C43.8483 5.04857 43.4038 5.41101 42.9967 5.81249L18.9798 29.657V9.12048C18.9729 6.71984 18.0095 4.41945 16.3001 2.72153C14.5907 1.0236 12.2741 0.0660585 9.85601 0.0579834H9.12814C6.70944 0.0651224 4.39185 1.02222 2.68158 2.72024C0.971331 4.41827 0.00741295 6.7192 0.000340656 9.12048V52.163C0.000340656 52.1798 0.000340656 52.1967 0.000340656 52.2138C-0.0101067 53.4123 0.219844 54.601 0.676828 55.7109C1.13381 56.8205 1.80868 57.8287 2.66208 58.6765L3.17638 59.1878C4.89172 60.8808 7.21223 61.831 9.63103 61.831C12.0498 61.831 14.3703 60.8808 16.0857 59.1878L30.3033 45.0721L41.0115 55.7025L43.1945 57.9038C43.1945 57.9038 47.6669 63.1444 53.8891 63.1444C56.4147 63.1444 59.2271 62.2817 62.1473 59.8558C62.186 59.8255 62.2243 59.7955 62.2623 59.7645C62.2881 59.7423 62.3146 59.7241 62.3404 59.7018L62.3373 59.6964C62.5314 59.5341 62.7231 59.3687 62.9053 59.1878L77.0474 45.1476L89.8198 57.8283C90.3002 58.3023 90.8322 58.721 91.4063 59.0773C93.2079 60.6608 96.7422 63.142 101.226 63.142C104.019 63.142 107.18 62.1773 110.512 59.4273L110.807 59.1912C110.85 59.1545 110.892 59.1151 110.931 59.0733C111.094 58.9335 111.255 58.791 111.408 58.6384L129.894 38.7981C132.057 36.6652 133.106 34.3619 133.008 31.954C132.866 28.4646 130.302 26.0624 129.87 25.6814L111.055 5.81249ZM63.6225 31.8205L53.7123 41.6592L43.7254 31.7451L53.6356 21.9062L63.6225 31.8205ZM101.116 22.6564L110.379 31.8528L100.473 41.7519L90.4682 31.82L100.42 21.94C100.644 22.1768 100.875 22.415 101.116 22.6564Z" fill="#ED2024"/>
</svg>
