<svg width="136" height="40" viewBox="0 0 136 40" fill="none" xmlns="http://www.w3.org/2000/svg">
<path d="M130.737 40H4.74862C2.1308 40 0 37.872 0 35.267V4.726C0 2.12 2.1308 0 4.74862 0H130.737C133.354 0 135.56 2.12 135.56 4.726V35.267C135.56 37.872 133.354 40 130.737 40Z" fill="black"/>
<path d="M30.0302 19.7842C30.0013 16.5612 32.6606 14.9932 32.7822 14.9202C31.2761 12.7172 28.9417 12.4162 28.1214 12.3922C26.1608 12.1852 24.259 13.5692 23.2603 13.5692C22.2416 13.5692 20.7036 12.4122 19.046 12.4462C16.913 12.4792 14.9175 13.7182 13.8231 15.6422C11.5645 19.5652 13.249 25.3302 15.4129 28.5012C16.4954 30.0542 17.7602 31.7882 19.4158 31.7272C21.0355 31.6602 21.6406 30.6912 23.5952 30.6912C25.5319 30.6912 26.1 31.7272 27.7885 31.6882C29.5268 31.6602 30.6213 30.1282 31.6659 28.5612C32.9168 26.7812 33.4191 25.0282 33.4391 24.9382C33.3982 24.9242 30.0631 23.6472 30.0302 19.7842Z" fill="white"/>
<path d="M26.8404 10.3058C27.7116 9.2128 28.3076 7.7258 28.1422 6.2168C26.8813 6.2728 25.3044 7.0918 24.3964 8.1608C23.593 9.1028 22.8754 10.6468 23.0607 12.0988C24.4771 12.2048 25.9314 11.3818 26.8404 10.3058Z" fill="white"/>
<path d="M53.4704 31.5043H51.2068L49.9669 27.5953H45.6569L44.4758 31.5043H42.272L46.542 18.1963H49.1794L53.4704 31.5043ZM49.5931 25.9553L48.4717 22.4803C48.3531 22.1253 48.1309 21.2893 47.8029 19.9733H47.7631C47.6325 20.5393 47.4222 21.3753 47.1331 22.4803L46.0317 25.9553H49.5931V25.9553Z" fill="white"/>
<path d="M64.4522 26.5879C64.4522 28.2199 64.0126 29.5099 63.1335 30.4569C62.346 31.2999 61.3682 31.7209 60.201 31.7209C58.9411 31.7209 58.0361 31.2669 57.4849 30.3589H57.445V35.4139H55.32V25.0669C55.32 24.0409 55.293 22.9879 55.2412 21.9079H57.1101L57.2287 23.4289H57.2686C57.9773 22.2829 59.0528 21.7109 60.4961 21.7109C61.6244 21.7109 62.5663 22.1579 63.3198 23.0529C64.0754 23.9489 64.4522 25.1269 64.4522 26.5879ZM62.2872 26.6659C62.2872 25.7319 62.0779 24.9619 61.6573 24.3559C61.1978 23.7239 60.5808 23.4079 59.8073 23.4079C59.283 23.4079 58.8066 23.5839 58.381 23.9309C57.9544 24.2809 57.6753 24.7379 57.5447 25.3039C57.4789 25.5679 57.446 25.7839 57.446 25.9539V27.5539C57.446 28.2519 57.6593 28.8409 58.0859 29.3219C58.5125 29.8029 59.0667 30.0429 59.7485 30.0429C60.5489 30.0429 61.1719 29.7329 61.6174 29.1149C62.0639 28.4959 62.2872 27.6799 62.2872 26.6659Z" fill="white"/>
<path d="M75.4526 26.5879C75.4526 28.2199 75.0131 29.5099 74.1329 30.4569C73.3465 31.2999 72.3687 31.7209 71.2015 31.7209C69.9416 31.7209 69.0366 31.2669 68.4864 30.3589H68.4465V35.4139H66.3214V25.0669C66.3214 24.0409 66.2945 22.9879 66.2427 21.9079H68.1116L68.2302 23.4289H68.2701C68.9777 22.2829 70.0532 21.7109 71.4975 21.7109C72.6249 21.7109 73.5668 22.1579 74.3223 23.0529C75.0749 23.9489 75.4526 25.1269 75.4526 26.5879ZM73.2877 26.6659C73.2877 25.7319 73.0774 24.9619 72.6567 24.3559C72.1972 23.7239 71.5823 23.4079 70.8078 23.4079C70.2825 23.4079 69.807 23.5839 69.3804 23.9309C68.9538 24.2809 68.6757 24.7379 68.5452 25.3039C68.4804 25.5679 68.4465 25.7839 68.4465 25.9539V27.5539C68.4465 28.2519 68.6598 28.8409 69.0844 29.3219C69.511 29.8019 70.0652 30.0429 70.749 30.0429C71.5494 30.0429 72.1723 29.7329 72.6179 29.1149C73.0644 28.4959 73.2877 27.6799 73.2877 26.6659Z" fill="white"/>
<path d="M87.7526 27.772C87.7526 28.904 87.3609 29.825 86.5744 30.536C85.7103 31.313 84.5072 31.701 82.9612 31.701C81.5339 31.701 80.3896 31.425 79.5234 30.872L80.0158 29.095C80.9488 29.661 81.9724 29.945 83.0878 29.945C83.8882 29.945 84.5112 29.763 84.9587 29.401C85.4042 29.039 85.6265 28.553 85.6265 27.947C85.6265 27.407 85.4431 26.952 85.0753 26.583C84.7095 26.214 84.0985 25.871 83.2453 25.554C80.9229 24.685 79.7627 23.412 79.7627 21.738C79.7627 20.644 80.1693 19.747 80.9837 19.049C81.795 18.35 82.8775 18.001 84.2311 18.001C85.4381 18.001 86.4409 18.212 87.2413 18.633L86.71 20.371C85.9624 19.963 85.1172 19.759 84.1713 19.759C83.4237 19.759 82.8396 19.944 82.421 20.312C82.0671 20.641 81.8897 21.042 81.8897 21.517C81.8897 22.043 82.0921 22.478 82.4987 22.82C82.8526 23.136 83.4955 23.478 84.4284 23.847C85.5697 24.308 86.408 24.847 86.9472 25.465C87.4845 26.081 87.7526 26.852 87.7526 27.772Z" fill="white"/>
<path d="M94.7786 23.5076H92.4362V28.1666C92.4362 29.3516 92.8489 29.9436 93.6762 29.9436C94.056 29.9436 94.3709 29.9106 94.6201 29.8446L94.6789 31.4636C94.2603 31.6206 93.7091 31.6996 93.0263 31.6996C92.1871 31.6996 91.5312 31.4426 91.0577 30.9296C90.5863 30.4156 90.3491 29.5536 90.3491 28.3426V23.5056H88.9536V21.9056H90.3491V20.1486L92.4362 19.5166V21.9056H94.7786V23.5076Z" fill="white"/>
<path d="M105.347 26.6269C105.347 28.1019 104.926 29.3129 104.087 30.2599C103.207 31.2349 102.039 31.7209 100.582 31.7209C99.1791 31.7209 98.0617 31.2539 97.2284 30.3199C96.3952 29.3859 95.9785 28.2069 95.9785 26.7859C95.9785 25.2989 96.4071 24.0809 97.2673 23.1339C98.1255 22.1859 99.2837 21.7119 100.74 21.7119C102.143 21.7119 103.273 22.1789 104.125 23.1139C104.94 24.0209 105.347 25.1919 105.347 26.6269ZM103.142 26.6959C103.142 25.8109 102.954 25.0519 102.572 24.4189C102.126 23.6529 101.49 23.2709 100.664 23.2709C99.81 23.2709 99.1611 23.6539 98.7156 24.4189C98.3338 25.0529 98.1454 25.8239 98.1454 26.7359C98.1454 27.6209 98.3338 28.3799 98.7156 29.0119C99.1751 29.7779 99.817 30.1599 100.645 30.1599C101.457 30.1599 102.094 29.7699 102.553 28.9919C102.945 28.3469 103.142 27.5799 103.142 26.6959Z" fill="white"/>
<path d="M112.255 23.7829C112.045 23.7439 111.82 23.7239 111.585 23.7239C110.838 23.7239 110.26 24.0069 109.853 24.5739C109.499 25.0739 109.322 25.7059 109.322 26.4689V31.5039H107.197L107.217 24.9299C107.217 23.8239 107.191 22.8169 107.138 21.9089H108.989L109.066 23.7449H109.125C109.349 23.1139 109.703 22.6059 110.188 22.2249C110.661 21.8819 111.173 21.7109 111.724 21.7109C111.92 21.7109 112.098 21.7249 112.255 21.7499V23.7829Z" fill="white"/>
<path d="M121.759 26.2524C121.759 26.6344 121.734 26.9564 121.681 27.2194H115.306C115.331 28.1674 115.639 28.8924 116.231 29.3924C116.768 29.8394 117.463 30.0634 118.316 30.0634C119.26 30.0634 120.121 29.9124 120.895 29.6094L121.228 31.0894C120.323 31.4854 119.255 31.6824 118.022 31.6824C116.539 31.6824 115.374 31.2444 114.527 30.3694C113.682 29.4944 113.258 28.3194 113.258 26.8454C113.258 25.3984 113.652 24.1934 114.44 23.2324C115.266 22.2064 116.381 21.6934 117.785 21.6934C119.163 21.6934 120.207 22.2064 120.915 23.2324C121.476 24.0474 121.759 25.0554 121.759 26.2524ZM119.732 25.6994C119.746 25.0674 119.608 24.5214 119.32 24.0604C118.952 23.4674 118.387 23.1714 117.626 23.1714C116.931 23.1714 116.366 23.4604 115.935 24.0404C115.581 24.5014 115.37 25.0544 115.306 25.6984H119.732V25.6994Z" fill="white"/>
<path d="M48.8902 10.0087C48.8902 11.1857 48.5384 12.0717 47.8357 12.6667C47.1848 13.2157 46.2598 13.4907 45.0617 13.4907C44.4676 13.4907 43.9593 13.4647 43.5337 13.4127V6.9817C44.0889 6.8917 44.6869 6.8457 45.3328 6.8457C46.4741 6.8457 47.3343 7.0947 47.9144 7.5927C48.5643 8.1557 48.8902 8.9607 48.8902 10.0087ZM47.7888 10.0377C47.7888 9.2747 47.5875 8.6897 47.1848 8.2817C46.7821 7.8747 46.194 7.6707 45.4195 7.6707C45.0906 7.6707 44.8105 7.6927 44.5783 7.7387V12.6277C44.7069 12.6477 44.9421 12.6567 45.284 12.6567C46.0834 12.6567 46.7004 12.4337 47.1349 11.9877C47.5695 11.5417 47.7888 10.8917 47.7888 10.0377Z" fill="white"/>
<path d="M54.7304 11.037C54.7304 11.762 54.5241 12.356 54.1114 12.822C53.6788 13.301 53.1057 13.54 52.39 13.54C51.7003 13.54 51.1511 13.311 50.7414 12.851C50.3328 12.392 50.1284 11.813 50.1284 11.115C50.1284 10.385 50.3387 9.78605 50.7614 9.32105C51.184 8.85605 51.7521 8.62305 52.4678 8.62305C53.1575 8.62305 53.7117 8.85205 54.1314 9.31105C54.5301 9.75705 54.7304 10.333 54.7304 11.037ZM53.6469 11.071C53.6469 10.636 53.5532 10.263 53.3668 9.95205C53.1476 9.57605 52.8356 9.38805 52.4299 9.38805C52.0103 9.38805 51.6913 9.57605 51.472 9.95205C51.2846 10.263 51.1919 10.642 51.1919 11.09C51.1919 11.525 51.2856 11.898 51.472 12.209C51.6983 12.585 52.0133 12.773 52.4199 12.773C52.8186 12.773 53.1316 12.582 53.3569 12.199C53.5502 11.882 53.6469 11.506 53.6469 11.071Z" fill="white"/>
<path d="M62.5602 8.71875L61.09 13.4327H60.1331L59.5241 11.3857C59.3696 10.8747 59.244 10.3668 59.1464 9.86275H59.1274C59.0367 10.3808 58.9111 10.8877 58.7497 11.3857L58.1028 13.4327H57.1349L55.7524 8.71875H56.8259L57.3572 10.9598C57.4858 11.4898 57.5914 11.9947 57.6762 12.4727H57.6951C57.7728 12.0787 57.9014 11.5768 58.0828 10.9698L58.7497 8.71975H59.6009L60.2398 10.9218C60.3943 11.4588 60.5199 11.9758 60.6166 12.4738H60.6455C60.7162 11.9888 60.8229 11.4718 60.9644 10.9218L61.5346 8.71975H62.5602V8.71875Z" fill="white"/>
<path d="M67.976 13.4331H66.9314V10.7331C66.9314 9.90112 66.6164 9.48512 65.9845 9.48512C65.6745 9.48512 65.4243 9.59912 65.2299 9.82812C65.0376 10.0571 64.9399 10.3271 64.9399 10.6361V13.4321H63.8953V10.0661C63.8953 9.65212 63.8823 9.20312 63.8574 8.71712H64.7754L64.8243 9.45412H64.8532C64.9748 9.22512 65.1562 9.03612 65.3944 8.88512C65.6775 8.70912 65.9944 8.62012 66.3413 8.62012C66.7799 8.62012 67.1447 8.76212 67.4347 9.04712C67.7956 9.39612 67.976 9.91712 67.976 10.6091V13.4331V13.4331Z" fill="white"/>
<path d="M70.8566 13.4327H69.813V6.55566H70.8566V13.4327Z" fill="white"/>
<path d="M77.0063 11.037C77.0063 11.762 76.8 12.356 76.3873 12.822C75.9547 13.301 75.3806 13.54 74.6659 13.54C73.9752 13.54 73.426 13.311 73.0173 12.851C72.6086 12.392 72.4043 11.813 72.4043 11.115C72.4043 10.385 72.6146 9.78605 73.0372 9.32105C73.4599 8.85605 74.028 8.62305 74.7427 8.62305C75.4334 8.62305 75.9866 8.85205 76.4072 9.31105C76.8059 9.75705 77.0063 10.333 77.0063 11.037ZM75.9218 11.071C75.9218 10.636 75.8281 10.263 75.6417 9.95205C75.4234 9.57605 75.1105 9.38805 74.7058 9.38805C74.2852 9.38805 73.9662 9.57605 73.7479 9.95205C73.5605 10.263 73.4678 10.642 73.4678 11.09C73.4678 11.525 73.5615 11.898 73.7479 12.209C73.9742 12.585 74.2891 12.773 74.6958 12.773C75.0945 12.773 75.4065 12.582 75.6318 12.199C75.8261 11.882 75.9218 11.506 75.9218 11.071Z" fill="white"/>
<path d="M82.062 13.433H81.1241L81.0463 12.89H81.0174C80.6965 13.323 80.239 13.54 79.6449 13.54C79.2013 13.54 78.8425 13.397 78.5724 13.113C78.3272 12.855 78.2046 12.534 78.2046 12.153C78.2046 11.577 78.4438 11.138 78.9252 10.834C79.4057 10.53 80.0815 10.381 80.9516 10.388V10.3C80.9516 9.67905 80.6267 9.36905 79.9758 9.36905C79.5123 9.36905 79.1037 9.48605 78.7508 9.71805L78.5385 9.03005C78.9751 8.75905 79.5143 8.62305 80.1502 8.62305C81.3782 8.62305 81.9942 9.27305 81.9942 10.573V12.309C81.9942 12.78 82.0171 13.155 82.062 13.433ZM80.9775 11.813V11.086C79.8253 11.066 79.2492 11.383 79.2492 12.036C79.2492 12.282 79.315 12.466 79.4495 12.589C79.5841 12.712 79.7555 12.773 79.9599 12.773C80.1891 12.773 80.4034 12.7 80.5988 12.555C80.7951 12.409 80.9157 12.224 80.9606 11.997C80.9716 11.946 80.9775 11.884 80.9775 11.813Z" fill="white"/>
<path d="M87.9976 13.4327H87.0706L87.0217 12.6757H86.9928C86.6968 13.2517 86.1925 13.5397 85.4838 13.5397C84.9176 13.5397 84.4462 13.3167 84.0724 12.8707C83.6986 12.4247 83.5122 11.8457 83.5122 11.1347C83.5122 10.3717 83.7145 9.75366 84.1212 9.28166C84.5149 8.84166 84.9974 8.62166 85.5715 8.62166C86.2024 8.62166 86.644 8.83466 86.8952 9.26166H86.9151V6.55566H87.9607V12.1627C87.9607 12.6217 87.9726 13.0447 87.9976 13.4327ZM86.9151 11.4447V10.6587C86.9151 10.5227 86.9051 10.4127 86.8862 10.3287C86.8274 10.0767 86.7008 9.86466 86.5084 9.69366C86.3141 9.52266 86.0798 9.43666 85.8097 9.43666C85.42 9.43666 85.115 9.59166 84.8907 9.90266C84.6684 10.2137 84.5558 10.6107 84.5558 11.0957C84.5558 11.5617 84.6624 11.9397 84.8767 12.2307C85.103 12.5407 85.408 12.6957 85.7898 12.6957C86.1327 12.6957 86.4068 12.5667 86.6151 12.3077C86.8164 12.0687 86.9151 11.7807 86.9151 11.4447Z" fill="white"/>
<path d="M96.9316 11.037C96.9316 11.762 96.7252 12.356 96.3126 12.822C95.88 13.301 95.3079 13.54 94.5912 13.54C93.9025 13.54 93.3533 13.311 92.9426 12.851C92.5339 12.392 92.3296 11.813 92.3296 11.115C92.3296 10.385 92.5399 9.78605 92.9625 9.32105C93.3851 8.85605 93.9533 8.62305 94.67 8.62305C95.3587 8.62305 95.9139 8.85205 96.3325 9.31105C96.7312 9.75705 96.9316 10.333 96.9316 11.037ZM95.8491 11.071C95.8491 10.636 95.7554 10.263 95.569 9.95205C95.3487 9.57605 95.0378 9.38805 94.6311 9.38805C94.2125 9.38805 93.8935 9.57605 93.6732 9.95205C93.4858 10.263 93.3931 10.642 93.3931 11.09C93.3931 11.525 93.4868 11.898 93.6732 12.209C93.8995 12.585 94.2144 12.773 94.6211 12.773C95.0198 12.773 95.3338 12.582 95.5591 12.199C95.7514 11.882 95.8491 11.506 95.8491 11.071Z" fill="white"/>
<path d="M102.548 13.4331H101.505V10.7331C101.505 9.90112 101.19 9.48512 100.557 9.48512C100.247 9.48512 99.9966 9.59912 99.8032 9.82812C99.6098 10.0571 99.5131 10.3271 99.5131 10.6361V13.4321H98.4675V10.0661C98.4675 9.65212 98.4556 9.20312 98.4307 8.71712H99.3477L99.3965 9.45412H99.4254C99.548 9.22512 99.7294 9.03612 99.9667 8.88512C100.251 8.70912 100.567 8.62012 100.915 8.62012C101.352 8.62012 101.717 8.76212 102.007 9.04712C102.369 9.39612 102.548 9.91712 102.548 10.6091V13.4331V13.4331Z" fill="white"/>
<path d="M109.578 9.50392H108.428V11.7939C108.428 12.3759 108.633 12.6669 109.037 12.6669C109.225 12.6669 109.38 12.6509 109.503 12.6179L109.53 13.4129C109.323 13.4909 109.052 13.5299 108.718 13.5299C108.306 13.5299 107.985 13.4039 107.752 13.1519C107.519 12.8999 107.404 12.4759 107.404 11.8809V9.50392H106.717V8.71892H107.404V7.85492L108.427 7.54492V8.71792H109.577V9.50392H109.578Z" fill="white"/>
<path d="M115.108 13.4327H114.062V10.7527C114.062 9.90766 113.747 9.48466 113.117 9.48466C112.632 9.48466 112.301 9.72966 112.12 10.2197C112.089 10.3227 112.071 10.4487 112.071 10.5967V13.4317H111.027V6.55566H112.071V9.39666H112.091C112.42 8.87966 112.891 8.62166 113.502 8.62166C113.935 8.62166 114.293 8.76366 114.577 9.04866C114.931 9.40366 115.108 9.93166 115.108 10.6297V13.4327V13.4327Z" fill="white"/>
<path d="M120.812 10.8523C120.812 11.0403 120.798 11.1983 120.773 11.3273H117.64C117.654 11.7933 117.804 12.1483 118.094 12.3943C118.359 12.6143 118.701 12.7243 119.12 12.7243C119.583 12.7243 120.006 12.6503 120.387 12.5013L120.55 13.2293C120.104 13.4233 119.58 13.5203 118.973 13.5203C118.246 13.5203 117.672 13.3053 117.258 12.8753C116.841 12.4453 116.635 11.8683 116.635 11.1443C116.635 10.4333 116.827 9.84128 117.215 9.36928C117.62 8.86528 118.167 8.61328 118.858 8.61328C119.533 8.61328 120.047 8.86528 120.394 9.36928C120.674 9.76928 120.812 10.2643 120.812 10.8523ZM119.815 10.5813C119.823 10.2703 119.755 10.0023 119.613 9.77628C119.432 9.48528 119.156 9.33928 118.782 9.33928C118.441 9.33928 118.163 9.48128 117.95 9.76628C117.777 9.99328 117.674 10.2643 117.64 10.5813H119.815Z" fill="white"/>
</svg>
