<svg width="32" height="23" viewBox="0 0 32 23" fill="none" xmlns="http://www.w3.org/2000/svg">
<rect x="0.75" y="0.850098" width="30.5" height="22.0862" rx="4.2069" fill="white" fill-opacity="0.16"/>
<rect x="0.9" y="1.0001" width="30.2" height="21.7862" rx="4.0569" stroke="white" stroke-opacity="0.29" stroke-width="0.3"/>
<mask id="mask0_626_26072" style="mask-type:alpha" maskUnits="userSpaceOnUse" x="4" y="7" width="25" height="10">
<path d="M4.35674 16.0569V7.81422H5.93462L10.7978 13.7489H10.0324V7.81422H11.9164V16.0569H10.3503L5.47539 10.1222H6.24078V16.0569H4.35674ZM13.8666 16.0569V7.81422H17.4345C18.1724 7.81422 18.8083 7.9359 19.3421 8.17925C19.8759 8.41476 20.2881 8.75624 20.5785 9.2037C20.869 9.65116 21.0142 10.185 21.0142 10.8051C21.0142 11.4174 20.869 11.9473 20.5785 12.3948C20.2881 12.8422 19.8759 13.1877 19.3421 13.431C18.8083 13.6665 18.1724 13.7843 17.4345 13.7843H14.9264L15.7742 12.9247V16.0569H13.8666ZM15.7742 13.1366L14.9264 12.2299H17.3285C17.9173 12.2299 18.3569 12.1043 18.6474 11.8531C18.9378 11.6019 19.0831 11.2526 19.0831 10.8051C19.0831 10.3498 18.9378 9.99656 18.6474 9.74536C18.3569 9.49415 17.9173 9.36855 17.3285 9.36855H14.9264L15.7742 8.46186V13.1366ZM25.1994 16.1982C24.54 16.1982 23.908 16.1118 23.3036 15.9391C22.6991 15.7586 22.2124 15.527 21.8434 15.2444L22.4911 13.8078C22.8443 14.059 23.2604 14.267 23.7392 14.4319C24.2259 14.5889 24.7166 14.6674 25.2111 14.6674C25.5879 14.6674 25.8902 14.6321 26.1178 14.5614C26.3533 14.4829 26.526 14.377 26.6359 14.2435C26.7458 14.11 26.8008 13.957 26.8008 13.7843C26.8008 13.5645 26.7144 13.3918 26.5417 13.2662C26.369 13.1327 26.1414 13.0267 25.8588 12.9482C25.5762 12.8619 25.2622 12.7834 24.9168 12.7127C24.5792 12.6342 24.2377 12.54 23.8923 12.4301C23.5548 12.3202 23.2447 12.1789 22.9621 12.0062C22.6795 11.8335 22.4479 11.6058 22.2673 11.3232C22.0946 11.0406 22.0083 10.6795 22.0083 10.2399C22.0083 9.76891 22.1339 9.34107 22.3851 8.95642C22.6441 8.56391 23.0288 8.25383 23.5391 8.02617C24.0572 7.79067 24.7048 7.67292 25.482 7.67292C26.0001 7.67292 26.5103 7.73572 27.0128 7.86132C27.5152 7.97907 27.9587 8.15963 28.3434 8.40298L27.7546 9.85134C27.3699 9.63153 26.9853 9.4706 26.6006 9.36855C26.216 9.25865 25.8392 9.2037 25.4702 9.2037C25.1012 9.2037 24.799 9.24687 24.5635 9.33322C24.328 9.41958 24.1592 9.5334 24.0572 9.67471C23.9551 9.80816 23.9041 9.96516 23.9041 10.1457C23.9041 10.3577 23.9904 10.5304 24.1631 10.6638C24.3358 10.7894 24.5635 10.8915 24.8461 10.97C25.1287 11.0485 25.4388 11.127 25.7764 11.2055C26.1218 11.284 26.4632 11.3743 26.8008 11.4763C27.1462 11.5784 27.4602 11.7157 27.7428 11.8885C28.0254 12.0612 28.2531 12.2888 28.4258 12.5714C28.6063 12.854 28.6966 13.2112 28.6966 13.643C28.6966 14.1061 28.5671 14.53 28.308 14.9147C28.049 15.2993 27.6604 15.6094 27.1423 15.8449C26.632 16.0804 25.9844 16.1982 25.1994 16.1982Z" fill="url(#paint0_linear_626_26072)"/>
</mask>
<g mask="url(#mask0_626_26072)">
<rect x="3.68237" y="-0.635498" width="25.6285" height="26.3211" fill="url(#paint1_linear_626_26072)"/>
</g>
<defs>
<linearGradient id="paint0_linear_626_26072" x1="41.7966" y1="9.91022" x2="-12.007" y2="33.413" gradientUnits="userSpaceOnUse">
<stop offset="0.0895831" stop-color="white" stop-opacity="0.41"/>
<stop offset="0.501041" stop-color="white"/>
<stop offset="0.797916" stop-color="white" stop-opacity="0.4"/>
</linearGradient>
<linearGradient id="paint1_linear_626_26072" x1="41.5506" y1="8.48916" x2="-18.4565" y2="22.2322" gradientUnits="userSpaceOnUse">
<stop offset="0.0895831" stop-color="white" stop-opacity="0.41"/>
<stop offset="0.501041" stop-color="white"/>
<stop offset="0.797916" stop-color="white" stop-opacity="0.4"/>
</linearGradient>
</defs>
</svg>
