<svg width="18" height="19" viewBox="0 0 18 19" fill="none" xmlns="http://www.w3.org/2000/svg">
<path d="M14.25 3.28003C14.25 2.4516 13.5784 1.78003 12.75 1.78003H5.25C4.42157 1.78003 3.75 2.4516 3.75 3.28003" stroke="white" stroke-width="1.5"/>
<path d="M14.25 15.28C14.25 16.1085 13.5784 16.78 12.75 16.78H5.25C4.42157 16.78 3.75 16.1085 3.75 15.28" stroke="white" stroke-width="1.5"/>
<path d="M1.5 9.28003C1.5 7.87811 1.5 7.17714 1.80144 6.65503C1.99892 6.31299 2.28296 6.02895 2.625 5.83147C3.14711 5.53003 3.84808 5.53003 5.25 5.53003H12.75C14.1519 5.53003 14.8529 5.53003 15.375 5.83147C15.717 6.02895 16.0011 6.31299 16.1986 6.65503C16.5 7.17714 16.5 7.87811 16.5 9.28003C16.5 10.682 16.5 11.3829 16.1986 11.905C16.0011 12.2471 15.717 12.5311 15.375 12.7286C14.8529 13.03 14.1519 13.03 12.75 13.03H5.25C3.84808 13.03 3.14711 13.03 2.625 12.7286C2.28296 12.5311 1.99892 12.2471 1.80144 11.905C1.5 11.3829 1.5 10.682 1.5 9.28003Z" fill="white" stroke="white" stroke-width="1.5"/>
<mask id="path-4-inside-1_613_403" fill="white">
<path d="M3.75 8.53003C3.75 8.11582 4.08579 7.78003 4.5 7.78003H7.5C7.91421 7.78003 8.25 8.11582 8.25 8.53003C8.25 8.94424 7.91421 9.28003 7.5 9.28003H4.5C4.08579 9.28003 3.75 8.94424 3.75 8.53003Z"/>
</mask>
<path d="M4.5 9.28003H7.5V6.28003H4.5V9.28003ZM7.5 7.78003H4.5V10.78H7.5V7.78003ZM4.5 7.78003C4.91421 7.78003 5.25 8.11582 5.25 8.53003H2.25C2.25 9.77267 3.25736 10.78 4.5 10.78V7.78003ZM6.75 8.53003C6.75 8.11582 7.08579 7.78003 7.5 7.78003V10.78C8.74264 10.78 9.75 9.77267 9.75 8.53003H6.75ZM7.5 9.28003C7.08579 9.28003 6.75 8.94424 6.75 8.53003H9.75C9.75 7.28739 8.74264 6.28003 7.5 6.28003V9.28003ZM4.5 6.28003C3.25736 6.28003 2.25 7.28739 2.25 8.53003H5.25C5.25 8.94424 4.91421 9.28003 4.5 9.28003V6.28003Z" fill="#1E96FC" mask="url(#path-4-inside-1_613_403)"/>
</svg>
