<svg width="24" height="25" viewBox="0 0 24 25" fill="none" xmlns="http://www.w3.org/2000/svg">
<rect x="4.60246" y="5.60246" width="14.6885" height="4.2459" rx="2.12295" stroke="white" stroke-width="1.20492"/>
<path d="M7.04077 7.84021H16.7949" stroke="white" stroke-width="1.31967" stroke-linecap="round"/>
<path d="M8.85151 7.98372C8.29371 7.98372 7.84283 8.43835 7.84744 8.99612L7.92687 18.6068C7.93142 19.1581 8.37962 19.6026 8.93093 19.6026H14.9059C15.4561 19.6026 15.9038 19.1597 15.9099 18.6095L16.0158 8.99888C16.0219 8.44005 15.5706 7.98372 15.0118 7.98372H8.85151Z" fill="white" stroke="white" stroke-width="1.20492"/>
<path d="M13.4839 13.532L13.3171 14.1664H10.2334L10.4035 13.532H13.4839ZM11.9044 17.0996L10.3283 15.2324L10.325 14.6732H11.0935C11.2722 14.6732 11.4194 14.6384 11.5349 14.5686C11.6505 14.4988 11.7366 14.4051 11.7932 14.2874C11.8499 14.1675 11.8783 14.0345 11.8783 13.8884C11.8783 13.7358 11.8521 13.6007 11.7998 13.483C11.7475 13.3652 11.6635 13.2737 11.548 13.2083C11.4324 13.1407 11.2788 13.1069 11.0869 13.1069H10.2367L10.4296 12.3384H11.0869C11.4793 12.3384 11.8063 12.3973 12.0679 12.515C12.3295 12.6327 12.5257 12.8028 12.6565 13.0251C12.7873 13.2453 12.8527 13.5124 12.8527 13.8263C12.8527 14.101 12.8091 14.3419 12.7219 14.549C12.6347 14.7561 12.4963 14.9272 12.3066 15.0624C12.117 15.1954 11.8674 15.2891 11.5578 15.3436L12.977 17.0538V17.0996H11.9044ZM13.4904 12.3384L13.3203 12.9696H10.7665L10.9365 12.3384H13.4904Z" fill="#1E96FC"/>
<path d="M7.04077 7.84021H16.7949" stroke="white" stroke-width="1.31967" stroke-linecap="round"/>
</svg>
