<svg width="35" height="36" viewBox="0 0 35 36" fill="none" xmlns="http://www.w3.org/2000/svg">
<path d="M4.93834 30.1732C7.02585 32.2608 10.3856 32.2608 17.1052 32.2608C23.8248 32.2608 27.1847 32.2608 29.2721 30.1732C31.3596 28.0858 31.3596 24.7259 31.3596 18.0064C31.3596 11.2868 31.3596 7.92697 29.2721 5.83947C27.1847 3.75195 23.8248 3.75195 17.1052 3.75195C10.3856 3.75195 7.02585 3.75195 4.93834 5.83947C2.85083 7.92697 2.85083 11.2868 2.85083 18.0064C2.85083 24.7259 2.85083 28.0858 4.93834 30.1732Z" stroke="white" stroke-width="2.13818"/>
<path opacity="0.5" d="M25.658 13.0171H19.9563M25.658 21.5698H19.9563M25.658 25.8461H19.9563M14.2545 13.0172H11.4036M11.4036 13.0172H8.55273M11.4036 13.0172V10.1663M11.4036 13.0172V15.8681M13.5418 21.5698L11.4036 23.708M11.4036 23.708L9.26547 25.8461M11.4036 23.708L9.26545 21.5698M11.4036 23.708L13.5418 25.8461" stroke="white" stroke-width="2.13818" stroke-linecap="round"/>
</svg>
