<svg width="88" height="82" viewBox="0 0 88 82" fill="none" xmlns="http://www.w3.org/2000/svg">
<path d="M38.2402 49.8786L39.2079 49.4397L39.3228 48.7731L36.9443 46.8873L37.8137 46.107L37.0428 42.9043L38.0269 43.0018L38.683 41.5712L42.8986 19.2176L44.2928 12.0156H45.7035L44.7193 15.5597L49.4925 42.0101L49.919 43.1156H51.2148L50.7883 44.4487L50.854 45.9281L51.1164 46.7735L49.7058 48.1066L48.8364 48.7731L49.5909 49.8786" fill="white"/>
<path fill-rule="evenodd" clip-rule="evenodd" d="M84.5112 33.3126C82.7561 31.378 80.3777 30.24 77.8025 30.1262C76.5231 30.0774 75.26 30.2725 74.079 30.7115L75.3585 29.8173C79.9348 26.5984 81.2799 20.1768 78.3438 15.4947C76.9331 13.2512 74.7515 11.723 72.2255 11.2028C69.6011 10.6663 66.911 11.2353 64.6474 12.8285C63.9257 13.3325 63.286 13.934 62.6955 14.6006C64.5982 9.31698 62.3182 3.2693 57.4465 0.928268C56.1671 0.326752 54.8057 0.00160754 53.4442 0.00160754V1.77364C54.5596 1.7899 55.6586 2.03376 56.7084 2.53773C59.8086 4.00088 61.6293 7.31735 61.6293 10.7639C61.6293 11.9506 61.3996 13.1862 60.9239 14.3567C60.9239 14.3567 56.5936 25.0214 53.4278 32.7924V49.8624L76.9659 49.8787C79.5248 49.9762 81.9852 49.0658 83.8879 47.2775C85.8071 45.4892 86.9061 43.0507 87.0209 40.4333V39.6367C86.9717 37.2956 86.0859 35.0684 84.5112 33.3126ZM53.4442 0.00160754C52.2632 -0.0146497 51.0822 0.212951 49.9504 0.668153C47.408 1.6761 45.3904 3.70825 44.3243 6.40694L44.1438 6.92717L43.947 6.40694C42.848 3.70825 40.8633 1.6761 38.288 0.668153C35.8604 -0.307279 33.2031 -0.209736 30.8083 0.928268C25.9367 3.2693 23.6567 9.31698 25.5594 14.6006C24.9689 13.934 24.3292 13.3163 23.6239 12.8285C21.3603 11.2353 18.6702 10.6663 16.0458 11.2028C13.4869 11.723 11.3217 13.2512 9.92749 15.4947C6.99138 20.1768 8.33641 26.5984 12.9128 29.8173C12.9128 29.8173 13.3721 30.1425 14.1922 30.7277C12.9784 30.2725 11.7318 30.0774 10.4524 30.1262C5.26908 30.3375 1.20117 34.7432 1.20117 39.9943L1.21757 40.4333C1.44721 45.8794 5.9744 50.1225 11.3053 49.8787L38.9933 49.8624C39.387 49.8624 39.7151 49.6186 39.8299 49.2447C39.9447 48.887 39.8135 48.4643 39.5018 48.253L37.4843 46.8223L37.9764 46.6273C38.2716 46.3834 38.3864 45.9607 38.2552 45.6193L37.5171 43.6847L38.1568 43.8798C38.5341 43.831 38.8621 43.5546 38.9277 43.1645L43.865 16.6165C44.3407 14.3405 44.5703 13.0561 44.6851 12.3083H45.3904C44.7999 13.0724 44.3571 14.0641 44.3571 15.2346C44.3571 15.5435 44.4063 15.8686 44.4719 16.21L44.3735 16.4539L44.3899 16.6327L49.3763 43.1645C49.442 43.5546 49.7536 43.831 50.1309 43.8798C50.3933 43.896 50.6066 43.831 50.7706 43.6847L50.0325 45.6193L49.9668 45.9444C49.9668 46.2046 50.0653 46.4647 50.2785 46.6435L50.787 46.8386L48.7694 48.2692C48.4578 48.4806 48.3266 48.9033 48.425 49.2609C48.5398 49.6511 48.8843 49.8787 49.2615 49.8787H53.4278V32.8086C52.132 35.9788 51.0494 38.645 50.5409 39.9455C49.6716 35.361 46.1614 16.714 46.1286 16.4539L46.1942 16.2263L46.1614 16.0149C46.1122 15.7548 46.063 15.4947 46.063 15.2509C46.063 13.235 48.1133 12.2433 48.2281 12.2108C48.5398 12.0482 48.7366 11.723 48.7366 11.3979L48.7202 11.2028C48.6218 10.7964 48.2609 10.5038 47.8509 10.52C47.8509 10.52 46.2434 10.5525 45.2428 10.5525C45.292 9.30072 45.5217 8.01641 45.9153 7.08975C46.8175 4.86251 48.4742 3.18802 50.5901 2.34264C51.5087 1.96873 52.4765 1.7899 53.4442 1.80616V0.00160754V0.00160754Z" fill="white"/>
<path fill-rule="evenodd" clip-rule="evenodd" d="M49.2793 48.9691L72.7682 32.3217H72.7846C74.2445 31.4113 75.934 30.9236 77.7711 31.0049C82.6099 31.2162 86.3826 35.4106 86.1693 40.3853C85.9725 45.3437 81.8554 49.1967 76.9837 48.9853L49.2793 48.9691Z" fill="#00A63C"/>
<path fill-rule="evenodd" clip-rule="evenodd" d="M50.8545 45.9285L61.7132 17.8849H61.7296V17.8686C62.4185 16.1941 63.5831 14.6659 65.1414 13.5604C69.3569 10.6016 74.9339 11.6909 77.6239 15.9503C80.314 20.2422 79.0838 26.111 74.8847 29.0698L50.8545 45.9285Z" fill="#0080CB"/>
<path fill-rule="evenodd" clip-rule="evenodd" d="M45.2604 16.4544L50.2304 43.0024L61.7452 14.6986C63.7628 9.7239 61.6632 3.92008 57.0868 1.74162C52.4776 -0.453103 47.1303 1.77413 45.1292 6.71632C44.5551 8.11444 44.3254 10.0003 44.3746 11.4472L47.8848 11.3821C47.8848 11.3821 44.5715 12.9103 45.3588 16.2105" fill="#6355A1"/>
<path fill-rule="evenodd" clip-rule="evenodd" d="M38.9624 48.9684L15.4736 32.3373H15.4572C14.0301 31.4269 12.3078 30.9392 10.4871 31.0205C5.63186 31.2318 1.87561 35.4262 2.05604 40.4009C2.26928 45.3593 6.38639 49.2123 11.2252 49.0009L38.9624 48.9684Z" fill="#F9BE00"/>
<path fill-rule="evenodd" clip-rule="evenodd" d="M37.4033 45.9293L26.561 17.8857V17.8694C25.8721 16.1949 24.7239 14.6667 23.1492 13.5613C18.9173 10.6024 13.3403 11.6917 10.6502 15.9673C7.96018 20.2592 9.17399 26.1281 13.3895 29.0869L37.4033 45.9293Z" fill="#EC6C00"/>
<path fill-rule="evenodd" clip-rule="evenodd" d="M43.014 16.4544L38.0439 43.0024L26.5127 14.6986C24.4952 9.7239 26.5947 3.92008 31.1711 1.74162C35.7803 -0.453103 41.1276 1.77413 43.1452 6.71632C43.7029 8.11444 43.9489 10.0003 43.8997 11.4472C43.8997 11.4472 43.9653 11.8698 43.014 16.4544Z" fill="#C7113C"/>
<path fill-rule="evenodd" clip-rule="evenodd" d="M11.5367 55.6664H11.3235C8.86308 55.6664 7.45244 57.4709 7.45244 59.1942C7.45244 60.8849 8.83028 62.6082 11.5367 62.6082C12.8982 62.6082 14.8337 62.2018 15.293 60.5598H22.2806C22.051 63.3235 17.5566 65.6971 11.7828 65.6971H11.3235C4.28669 65.5507 0.382812 63.2747 0.382812 59.3242C0.382812 54.5771 5.22165 52.5938 11.0939 52.5938C20.1646 52.5938 21.7393 55.7314 21.9854 57.3734H15.293C14.194 55.7964 12.3405 55.6664 11.5367 55.6664Z" fill="#231815"/>
<path fill-rule="evenodd" clip-rule="evenodd" d="M31.0395 53.002L38.0599 59.9275V53.002H44.1946V65.4387H35.5503L28.7431 58.2205V65.4387H22.9365V53.002" fill="#231815"/>
<path fill-rule="evenodd" clip-rule="evenodd" d="M54.6265 55.3904H55.0365C56.4308 55.3904 57.2181 55.8944 57.2181 56.3334C57.2181 56.7886 56.398 57.3088 54.8069 57.3088H54.6265V60.1376H55.7418C57.0705 60.1376 57.7922 60.7716 57.7922 61.2756C57.7922 61.7308 57.1525 62.2185 55.7418 62.2185H54.6265V65.4212H56.6604C62.0569 65.4212 65.0587 63.3077 65.0587 61.5845C65.0587 60.3001 64.1073 59.0321 61.6141 58.5769C63.2707 58.1704 64.2057 57.1787 64.2057 56.2196C64.2057 54.5126 62.7623 52.9681 55.0857 52.9844H54.6265V55.3904ZM52.0184 55.3904H54.6265V53.0006H45.6377V65.4374H54.6265V62.2347H51.8052V60.1538H54.6265V57.3251H52.0184V55.3904Z" fill="#231815"/>
<path fill-rule="evenodd" clip-rule="evenodd" d="M76.6559 55.6664H76.4262C73.9494 55.6664 72.5388 57.4709 72.5388 59.1942C72.5388 60.8849 73.933 62.6082 76.6559 62.6082C78.0009 62.6082 79.9365 62.2018 80.3957 60.5598H87.3834C87.1537 63.3235 82.6593 65.6971 76.8855 65.6971H76.4427C69.4058 65.5507 65.502 63.2747 65.502 59.3242C65.502 54.5771 70.3408 52.5938 76.1966 52.5938C85.2674 52.5938 86.8749 55.7314 87.1045 57.3734H80.4121C79.4936 55.7151 77.4268 55.6664 76.6559 55.6664Z" fill="#231815"/>
<path fill-rule="evenodd" clip-rule="evenodd" d="M21.1805 80.9786H16.6862V71.3381H10.207V69.2734H27.6597V71.3381H21.1805" fill="#231815"/>
<path fill-rule="evenodd" clip-rule="evenodd" d="M44.8668 69.2734H49.5416L42.2423 80.9786H37.9612L30.7275 69.2734H35.5336L40.1428 78.1336H40.2084" fill="#231815"/>
<path fill-rule="evenodd" clip-rule="evenodd" d="M52.3457 71.4039H52.9526C56.9877 71.4039 58.0539 70.2659 58.1523 69.4043H61.5969V80.9794H57.3978V73.0134H52.3457" fill="#231815"/>
<path fill-rule="evenodd" clip-rule="evenodd" d="M72.242 69.4043C76.5888 69.4206 78.8852 70.8349 78.8852 72.4119C78.8852 73.4036 78.1306 74.2489 76.4412 74.7529C78.4751 75.3057 79.6069 76.0372 79.6069 77.5329C79.6069 79.0123 77.8846 81.2883 72.242 81.2883V79.4675H72.2748C74.4564 79.4675 75.293 78.4433 75.293 77.6467C75.293 76.8338 74.5384 75.8421 72.242 75.8259V74.1026H72.2748C73.9151 74.1026 74.8829 73.5011 74.8829 72.6557C74.8829 71.7616 73.7675 71.2088 72.4389 71.2088L72.2584 71.2251L72.242 69.4043ZM72.242 81.2883C66.7799 81.2883 64.8936 79.3537 64.8936 77.7768C64.8936 77.1915 64.8936 75.6633 68.1249 74.8505C66.4518 74.3953 65.5497 73.6637 65.5497 72.5907C65.5497 70.6236 68.453 69.4206 72.16 69.4206H72.242V71.2414C70.4869 71.2739 69.552 71.8429 69.552 72.672C69.552 73.3548 70.4705 74.1026 72.242 74.1189V75.8421H72.1928C70.6674 75.8421 69.1911 76.3786 69.1911 77.6304C69.1911 78.7359 70.3393 79.4675 72.242 79.4838V81.2883Z" fill="#231815"/>
</svg>
