<svg width="30" height="34" viewBox="0 0 30 34" fill="none" xmlns="http://www.w3.org/2000/svg">
<path d="M24.8572 19.1026C25.3035 18.323 26.1109 18.3371 26.6317 18.447C26.9105 18.5059 27.0281 18.8098 26.9106 19.0694V19.0694C26.7885 19.3392 26.4562 19.4506 26.2625 19.2266C26.053 18.9842 25.9046 18.6246 26.217 18.1892C26.7122 17.499 27.1548 17.6016 27.7857 17.965C27.9884 18.0818 28.0189 18.3605 27.8538 18.5262V18.5262C27.6492 18.7315 27.3153 18.6216 27.3301 18.3321C27.3449 18.0413 27.4141 17.7206 27.6156 17.5115C28.1163 16.992 29.46 17.6183 29.46 17.6183" stroke="white" stroke-width="0.198965" stroke-linecap="round"/>
<g filter="url(#filter0_i_386_8)">
<path d="M7.0775 27.2602C6.29259 27.5087 5.56282 26.7506 5.84093 25.9757L10.4126 13.2377C10.6591 12.551 11.5365 12.3544 12.0524 12.8704L20.6286 21.4465C21.1562 21.9741 20.9367 22.8732 20.2253 23.0984L7.0775 27.2602Z" fill="white"/>
</g>
<path d="M17.346 16.1627C18.708 17.5247 19.717 18.9505 20.2557 20.1399C20.5259 20.7364 20.6665 21.2484 20.6898 21.6484C20.7131 22.0491 20.6179 22.2775 20.4918 22.4036C20.3657 22.5297 20.1373 22.6249 19.7366 22.6016C19.3366 22.5783 18.8245 22.4378 18.2281 22.1676C17.0387 21.6288 15.6128 20.6198 14.2508 19.2578C12.8888 17.8958 11.8799 16.47 11.3411 15.2806C11.0709 14.6841 10.9303 14.1721 10.9071 13.772C10.8838 13.3713 10.979 13.1429 11.105 13.0169C11.2311 12.8908 11.4595 12.7956 11.8602 12.8189C12.2603 12.8422 12.7723 12.9827 13.3688 13.2529C14.5582 13.7917 15.984 14.8006 17.346 16.1627Z" fill="white"/>
<path d="M17.346 16.1627C18.708 17.5247 19.717 18.9505 20.2557 20.1399C20.5259 20.7364 20.6665 21.2484 20.6898 21.6484C20.7131 22.0491 20.6179 22.2775 20.4918 22.4036C20.3657 22.5297 20.1373 22.6249 19.7366 22.6016C19.3366 22.5783 18.8245 22.4378 18.2281 22.1676C17.0387 21.6288 15.6128 20.6198 14.2508 19.2578C12.8888 17.8958 11.8799 16.47 11.3411 15.2806C11.0709 14.6841 10.9303 14.1721 10.9071 13.772C10.8838 13.3713 10.979 13.1429 11.105 13.0169C11.2311 12.8908 11.4595 12.7956 11.8602 12.8189C12.2603 12.8422 12.7723 12.9827 13.3688 13.2529C14.5582 13.7917 15.984 14.8006 17.346 16.1627Z" fill="#152757"/>
<path d="M17.346 16.1627C18.708 17.5247 19.717 18.9505 20.2557 20.1399C20.5259 20.7364 20.6665 21.2484 20.6898 21.6484C20.7131 22.0491 20.6179 22.2775 20.4918 22.4036C20.3657 22.5297 20.1373 22.6249 19.7366 22.6016C19.3366 22.5783 18.8245 22.4378 18.2281 22.1676C17.0387 21.6288 15.6128 20.6198 14.2508 19.2578C12.8888 17.8958 11.8799 16.47 11.3411 15.2806C11.0709 14.6841 10.9303 14.1721 10.9071 13.772C10.8838 13.3713 10.979 13.1429 11.105 13.0169C11.2311 12.8908 11.4595 12.7956 11.8602 12.8189C12.2603 12.8422 12.7723 12.9827 13.3688 13.2529C14.5582 13.7917 15.984 14.8006 17.346 16.1627Z" stroke="#ADD9FF" stroke-width="0.994825"/>
<g filter="url(#filter1_i_386_8)">
<path d="M15.519 20.0192L17.9339 19.193C21.0368 18.1315 24.4731 19.082 26.5895 21.5871L27.9544 23.2026" stroke="white" stroke-width="0.994825" stroke-linecap="round" stroke-linejoin="round"/>
</g>
<g filter="url(#filter2_i_386_8)">
<path d="M25.7661 13.4959V13.4959C22.4952 11.886 18.5396 13.2656 16.9794 16.5605L16.6137 17.3327" stroke="white" stroke-width="0.994825" stroke-linecap="round" stroke-linejoin="round"/>
</g>
<g filter="url(#filter3_i_386_8)">
<path d="M26.0332 1.61475L25.0839 2.27484C23.2822 3.52769 21.8123 5.2 20.801 7.14755L18.4958 11.5865" stroke="white" stroke-width="0.994825" stroke-linecap="round" stroke-linejoin="round"/>
</g>
<g filter="url(#filter4_i_386_8)">
<path d="M12.6196 15.854L13.2458 14.742C14.4254 12.6472 14.5948 10.1313 13.7067 7.89717L12.2372 4.20058" stroke="white" stroke-width="0.994825" stroke-linecap="round" stroke-linejoin="round"/>
</g>
<path d="M19.1005 26.218C19.1648 26.2847 19.1114 26.3954 19.0192 26.3866L18.4056 26.3283C18.3766 26.3255 18.3479 26.3356 18.3269 26.3558L17.8832 26.7837C17.8165 26.848 17.7058 26.7946 17.7146 26.7024L17.7729 26.0888C17.7757 26.0598 17.7656 26.031 17.7454 26.0101L17.3176 25.5664C17.2533 25.4997 17.3066 25.389 17.3988 25.3978L18.0124 25.4561C18.0414 25.4588 18.0702 25.4488 18.0911 25.4286L18.5348 25.0007C18.6015 24.9364 18.7122 24.9898 18.7035 25.082L18.6451 25.6956C18.6424 25.7246 18.6524 25.7534 18.6726 25.7743L19.1005 26.218Z" fill="white"/>
<path d="M29.3956 8.74409C29.442 8.79997 29.3938 8.8834 29.3222 8.87117L28.8458 8.7898C28.8233 8.78596 28.8003 8.79214 28.7827 8.80672L28.4109 9.11536C28.355 9.16175 28.2716 9.11358 28.2838 9.04199L28.3652 8.56564C28.369 8.54314 28.3628 8.52007 28.3482 8.5025L28.0396 8.13066C27.9932 8.07477 28.0414 7.99135 28.113 8.00357L28.5893 8.08495C28.6118 8.08879 28.6349 8.08261 28.6525 8.06803L29.0243 7.75938C29.0802 7.713 29.1636 7.76117 29.1514 7.83275L29.07 8.3091C29.0662 8.33161 29.0723 8.35467 29.0869 8.37224L29.3956 8.74409Z" fill="white" fill-opacity="0.6"/>
<path d="M10.6004 3.88245C10.6553 3.85721 10.7119 3.91387 10.6867 3.96875L10.5188 4.33394C10.5108 4.3512 10.5108 4.37106 10.5188 4.38831L10.6867 4.75351C10.7119 4.80839 10.6553 4.86505 10.6004 4.83981L10.2352 4.67189C10.2179 4.66395 10.1981 4.66395 10.1808 4.67189L9.81563 4.83981C9.76075 4.86505 9.70409 4.80839 9.72933 4.75351L9.89725 4.38831C9.90518 4.37106 9.90518 4.3512 9.89725 4.33394L9.72933 3.96875C9.70409 3.91387 9.76075 3.85721 9.81563 3.88245L10.1808 4.05037C10.1981 4.0583 10.2179 4.0583 10.2352 4.05037L10.6004 3.88245Z" fill="white" fill-opacity="0.8"/>
<path d="M16.0168 11.1648C16.341 9.60889 15.44 8.34871 14.7729 7.65958C14.4932 7.37056 14.0462 7.54222 13.9763 7.93833V7.93833C13.9069 8.33107 14.2669 8.66402 14.653 8.56436L15.578 8.32566C16.2755 8.14567 16.6432 7.38133 16.3485 6.72403L16.2157 6.42768C15.8876 5.69571 14.8429 5.37916 14.7077 6.16984C14.6495 6.51048 14.8049 6.78757 15.221 6.78757C15.4431 6.78757 15.7916 6.63812 16.2185 6.40747C17.0146 5.97725 16.5224 3.75574 15.6189 3.70361V3.70361" stroke="white" stroke-width="0.39793" stroke-linecap="round"/>
<path d="M20.1394 0.512502L19.2735 4.50383L20.6737 0.667164C20.7293 0.514699 20.6435 0.347124 20.4872 0.303227C20.3326 0.259801 20.1734 0.355594 20.1394 0.512502Z" fill="white"/>
<path d="M25.4608 8.82189L22.6969 10.0695L25.6046 9.20901C25.7202 9.17481 25.7822 9.04952 25.7393 8.9369C25.6969 8.82549 25.5694 8.77285 25.4608 8.82189Z" fill="white"/>
<path d="M21.9517 15.843L20.4503 16.499L22.0269 16.0531C22.0896 16.0353 22.1239 15.968 22.1015 15.9069C22.0793 15.8465 22.0107 15.8172 21.9517 15.843Z" fill="white"/>
<path d="M25.1293 21.875L22.9928 21.8475L25.1057 22.165C25.1897 22.1776 25.2667 22.1161 25.2729 22.0314C25.279 21.9477 25.2133 21.876 25.1293 21.875Z" fill="white"/>
<path d="M15.0221 20.6152H16.6138C16.6138 20.6152 15.7639 20.0422 15.5195 19.8193C15.215 19.5417 14.7236 19.0234 14.7236 19.0234L15.0221 20.6152Z" fill="#ADD9FF"/>
<path d="M11.4878 16.4925L12.9763 17.0563C12.9763 17.0563 12.3845 16.2195 12.2349 15.9244C12.0484 15.557 11.7393 14.9453 11.7393 14.9453L11.4878 16.4925Z" fill="#ADD9FF"/>
<defs>
<filter id="filter0_i_386_8" x="5.38283" y="12.1807" width="15.5376" height="15.1274" filterUnits="userSpaceOnUse" color-interpolation-filters="sRGB">
<feFlood flood-opacity="0" result="BackgroundImageFix"/>
<feBlend mode="normal" in="SourceGraphic" in2="BackgroundImageFix" result="shape"/>
<feColorMatrix in="SourceAlpha" type="matrix" values="0 0 0 0 0 0 0 0 0 0 0 0 0 0 0 0 0 0 127 0" result="hardAlpha"/>
<feOffset dx="-1.79068" dy="-0.994825"/>
<feGaussianBlur stdDeviation="0.198965"/>
<feComposite in2="hardAlpha" operator="arithmetic" k2="-1" k3="1"/>
<feColorMatrix type="matrix" values="0 0 0 0 0 0 0 0 0 0 0 0 0 0 0 0 0 0 0.1 0"/>
<feBlend mode="normal" in2="shape" result="effect1_innerShadow_386_8"/>
</filter>
<filter id="filter1_i_386_8" x="15.0215" y="18.2666" width="13.4302" height="5.43359" filterUnits="userSpaceOnUse" color-interpolation-filters="sRGB">
<feFlood flood-opacity="0" result="BackgroundImageFix"/>
<feBlend mode="normal" in="SourceGraphic" in2="BackgroundImageFix" result="shape"/>
<feColorMatrix in="SourceAlpha" type="matrix" values="0 0 0 0 0 0 0 0 0 0 0 0 0 0 0 0 0 0 127 0" result="hardAlpha"/>
<feOffset dy="0.198965"/>
<feComposite in2="hardAlpha" operator="arithmetic" k2="-1" k3="1"/>
<feColorMatrix type="matrix" values="0 0 0 0 1 0 0 0 0 1 0 0 0 0 1 0 0 0 0.6 0"/>
<feBlend mode="normal" in2="shape" result="effect1_innerShadow_386_8"/>
</filter>
<filter id="filter2_i_386_8" x="16.1162" y="12.3257" width="10.1475" height="5.50439" filterUnits="userSpaceOnUse" color-interpolation-filters="sRGB">
<feFlood flood-opacity="0" result="BackgroundImageFix"/>
<feBlend mode="normal" in="SourceGraphic" in2="BackgroundImageFix" result="shape"/>
<feColorMatrix in="SourceAlpha" type="matrix" values="0 0 0 0 0 0 0 0 0 0 0 0 0 0 0 0 0 0 127 0" result="hardAlpha"/>
<feOffset dy="0.198965"/>
<feComposite in2="hardAlpha" operator="arithmetic" k2="-1" k3="1"/>
<feColorMatrix type="matrix" values="0 0 0 0 1 0 0 0 0 1 0 0 0 0 1 0 0 0 0.6 0"/>
<feBlend mode="normal" in2="shape" result="effect1_innerShadow_386_8"/>
</filter>
<filter id="filter3_i_386_8" x="17.998" y="1.11719" width="8.53271" height="10.9668" filterUnits="userSpaceOnUse" color-interpolation-filters="sRGB">
<feFlood flood-opacity="0" result="BackgroundImageFix"/>
<feBlend mode="normal" in="SourceGraphic" in2="BackgroundImageFix" result="shape"/>
<feColorMatrix in="SourceAlpha" type="matrix" values="0 0 0 0 0 0 0 0 0 0 0 0 0 0 0 0 0 0 127 0" result="hardAlpha"/>
<feOffset dy="0.198965"/>
<feComposite in2="hardAlpha" operator="arithmetic" k2="-1" k3="1"/>
<feColorMatrix type="matrix" values="0 0 0 0 1 0 0 0 0 1 0 0 0 0 1 0 0 0 0.6 0"/>
<feBlend mode="normal" in2="shape" result="effect1_innerShadow_386_8"/>
</filter>
<filter id="filter4_i_386_8" x="11.7397" y="3.70312" width="3.02734" height="12.6484" filterUnits="userSpaceOnUse" color-interpolation-filters="sRGB">
<feFlood flood-opacity="0" result="BackgroundImageFix"/>
<feBlend mode="normal" in="SourceGraphic" in2="BackgroundImageFix" result="shape"/>
<feColorMatrix in="SourceAlpha" type="matrix" values="0 0 0 0 0 0 0 0 0 0 0 0 0 0 0 0 0 0 127 0" result="hardAlpha"/>
<feOffset dy="0.198965"/>
<feComposite in2="hardAlpha" operator="arithmetic" k2="-1" k3="1"/>
<feColorMatrix type="matrix" values="0 0 0 0 1 0 0 0 0 1 0 0 0 0 1 0 0 0 0.6 0"/>
<feBlend mode="normal" in2="shape" result="effect1_innerShadow_386_8"/>
</filter>
</defs>
</svg>
