<svg width="32" height="28" viewBox="0 0 32 28" fill="none" xmlns="http://www.w3.org/2000/svg">
<rect y="0.000244141" width="32" height="27.6154" rx="5.74359" fill="#1A2E62"/>
<mask id="mask0_4001_16753" style="mask-type:alpha" maskUnits="userSpaceOnUse" x="4" y="12" width="25" height="10">
<path d="M4.24299 20.9233V12.8205H5.7941L10.5748 18.6546H9.82236V12.8205H11.6744V20.9233H10.1349L5.34266 15.0893H6.09506V20.9233H4.24299ZM13.5915 20.9233V12.8205H17.0989C17.8243 12.8205 18.4494 12.9401 18.9741 13.1794C19.4989 13.4109 19.904 13.7466 20.1895 14.1864C20.4751 14.6263 20.6178 15.151 20.6178 15.7607C20.6178 16.3626 20.4751 16.8835 20.1895 17.3234C19.904 17.7632 19.4989 18.1028 18.9741 18.342C18.4494 18.5735 17.8243 18.6893 17.0989 18.6893H14.6333L15.4667 17.8443V20.9233H13.5915ZM15.4667 18.0526L14.6333 17.1613H16.9947C17.5735 17.1613 18.0056 17.0378 18.2912 16.7909C18.5767 16.544 18.7194 16.2006 18.7194 15.7607C18.7194 15.3131 18.5767 14.9658 18.2912 14.7189C18.0056 14.472 17.5735 14.3485 16.9947 14.3485H14.6333L15.4667 13.4572V18.0526ZM24.732 21.0622C24.0838 21.0622 23.4625 20.9774 22.8683 20.8076C22.2741 20.6301 21.7957 20.4024 21.433 20.1246L22.0696 18.7124C22.4169 18.9594 22.8259 19.1639 23.2966 19.3259C23.7751 19.4803 24.2574 19.5574 24.7436 19.5574C25.114 19.5574 25.4111 19.5227 25.6349 19.4533C25.8664 19.3761 26.0362 19.2719 26.1442 19.1407C26.2522 19.0095 26.3062 18.8591 26.3062 18.6893C26.3062 18.4732 26.2214 18.3034 26.0516 18.18C25.8818 18.0488 25.658 17.9446 25.3802 17.8674C25.1024 17.7825 24.7937 17.7054 24.4542 17.6359C24.1223 17.5587 23.7867 17.4661 23.4471 17.3581C23.1153 17.2501 22.8105 17.1112 22.5327 16.9414C22.2548 16.7716 22.0272 16.5478 21.8497 16.27C21.6799 15.9922 21.595 15.6372 21.595 15.2051C21.595 14.742 21.7185 14.3215 21.9655 13.9433C22.2201 13.5575 22.5982 13.2527 23.0998 13.0289C23.6092 12.7974 24.2458 12.6816 25.0098 12.6816C25.5191 12.6816 26.0207 12.7434 26.5146 12.8668C27.0085 12.9826 27.4445 13.1601 27.8226 13.3993L27.2439 14.8231C26.8657 14.607 26.4876 14.4488 26.1095 14.3485C25.7313 14.2404 25.3609 14.1864 24.9982 14.1864C24.6355 14.1864 24.3384 14.2289 24.1069 14.3138C23.8754 14.3986 23.7095 14.5105 23.6092 14.6494C23.5088 14.7806 23.4587 14.935 23.4587 15.1125C23.4587 15.3208 23.5436 15.4906 23.7133 15.6218C23.8831 15.7453 24.1069 15.8456 24.3847 15.9227C24.6625 15.9999 24.9674 16.0771 25.2992 16.1543C25.6387 16.2314 25.9744 16.3202 26.3062 16.4205C26.6458 16.5208 26.9545 16.6559 27.2323 16.8256C27.5101 16.9954 27.7339 17.2192 27.9037 17.497C28.0812 17.7748 28.1699 18.1259 28.1699 18.5504C28.1699 19.0057 28.0426 19.4224 27.7879 19.8005C27.5332 20.1787 27.1513 20.4835 26.6419 20.715C26.1403 20.9465 25.5037 21.0622 24.732 21.0622Z" fill="black"/>
</mask>
<g mask="url(#mask0_4001_16753)">
<rect x="0.80127" y="2.48218" width="30.5923" height="28.9386" fill="url(#paint0_linear_4001_16753)"/>
</g>
<mask id="mask1_4001_16753" style="mask-type:alpha" maskUnits="userSpaceOnUse" x="4" y="6" width="25" height="5">
<path d="M5.9939 9.89269C5.73632 9.89269 5.49622 9.85135 5.27362 9.76867C5.05419 9.68281 4.86339 9.56196 4.70121 9.40614C4.53902 9.25032 4.41182 9.06746 4.3196 8.85758C4.23055 8.64769 4.18603 8.41714 4.18603 8.16591C4.18603 7.91469 4.23055 7.68413 4.3196 7.47425C4.41182 7.26436 4.53902 7.08151 4.70121 6.92569C4.86657 6.76986 5.05896 6.65061 5.27839 6.56793C5.49781 6.48207 5.73791 6.43914 5.99867 6.43914C6.28806 6.43914 6.54883 6.49002 6.78097 6.59178C7.0163 6.69036 7.21346 6.83664 7.37246 7.03063L6.87637 7.48856C6.76189 7.35818 6.63469 7.26118 6.49476 7.19758C6.35484 7.1308 6.2022 7.09741 6.03683 7.09741C5.88101 7.09741 5.73791 7.12285 5.60752 7.17373C5.47714 7.22461 5.36425 7.29775 5.26885 7.39316C5.17345 7.48856 5.09871 7.60145 5.04465 7.73183C4.99377 7.86222 4.96833 8.00691 4.96833 8.16591C4.96833 8.32492 4.99377 8.46961 5.04465 8.59999C5.09871 8.73038 5.17345 8.84327 5.26885 8.93867C5.36425 9.03407 5.47714 9.10721 5.60752 9.15809C5.73791 9.20898 5.88101 9.23442 6.03683 9.23442C6.2022 9.23442 6.35484 9.20262 6.49476 9.13901C6.63469 9.07223 6.76189 8.97206 6.87637 8.8385L7.37246 9.29643C7.21346 9.49041 7.0163 9.63828 6.78097 9.74005C6.54883 9.84181 6.28647 9.89269 5.9939 9.89269ZM8.97447 9.87361C8.70099 9.87361 8.45771 9.81637 8.24465 9.70189C8.03476 9.5874 7.86781 9.43158 7.74379 9.23442C7.62294 9.03407 7.56252 8.8067 7.56252 8.55229C7.56252 8.29471 7.62294 8.06733 7.74379 7.87017C7.86781 7.66982 8.03476 7.514 8.24465 7.4027C8.45771 7.28821 8.70099 7.23097 8.97447 7.23097C9.24478 7.23097 9.48646 7.28821 9.69953 7.4027C9.91259 7.514 10.0795 7.66823 10.2004 7.8654C10.3212 8.06256 10.3817 8.29153 10.3817 8.55229C10.3817 8.8067 10.3212 9.03407 10.2004 9.23442C10.0795 9.43158 9.91259 9.5874 9.69953 9.70189C9.48646 9.81637 9.24478 9.87361 8.97447 9.87361ZM8.97447 9.26304C9.09849 9.26304 9.2098 9.23442 9.30838 9.17717C9.40696 9.11993 9.48487 9.03884 9.54211 8.9339C9.59936 8.82578 9.62798 8.69857 9.62798 8.55229C9.62798 8.40283 9.59936 8.27563 9.54211 8.17068C9.48487 8.06574 9.40696 7.98465 9.30838 7.92741C9.2098 7.87017 9.09849 7.84155 8.97447 7.84155C8.85045 7.84155 8.73915 7.87017 8.64056 7.92741C8.54198 7.98465 8.46248 8.06574 8.40206 8.17068C8.34482 8.27563 8.3162 8.40283 8.3162 8.55229C8.3162 8.69857 8.34482 8.82578 8.40206 8.9339C8.46248 9.03884 8.54198 9.11993 8.64056 9.17717C8.73915 9.23442 8.85045 9.26304 8.97447 9.26304ZM10.879 9.83545V7.26913H11.5898V7.99419L11.4896 7.7843C11.5659 7.60304 11.6884 7.4663 11.8569 7.37408C12.0255 7.27867 12.2306 7.23097 12.4723 7.23097V7.91787C12.4405 7.91469 12.4118 7.9131 12.3864 7.9131C12.361 7.90992 12.3339 7.90833 12.3053 7.90833C12.1018 7.90833 11.9364 7.96716 11.8092 8.08482C11.6852 8.1993 11.6232 8.37898 11.6232 8.62384V9.83545H10.879ZM14.4363 9.87361C14.22 9.87361 14.0308 9.82591 13.8686 9.73051C13.7065 9.6351 13.5792 9.49041 13.487 9.29643C13.398 9.09926 13.3535 8.85122 13.3535 8.55229C13.3535 8.25018 13.3964 8.00214 13.4823 7.80816C13.5681 7.61417 13.6921 7.46948 13.8543 7.37408C14.0165 7.27867 14.2105 7.23097 14.4363 7.23097C14.678 7.23097 14.8942 7.28662 15.085 7.39793C15.279 7.50605 15.4316 7.65869 15.5429 7.85586C15.6574 8.05302 15.7147 8.28517 15.7147 8.55229C15.7147 8.8226 15.6574 9.05633 15.5429 9.2535C15.4316 9.45066 15.279 9.6033 15.085 9.71143C14.8942 9.81955 14.678 9.87361 14.4363 9.87361ZM12.9194 10.7608V7.26913H13.6301V7.79384L13.6158 8.55706L13.6635 9.31551V10.7608H12.9194ZM14.3075 9.26304C14.4315 9.26304 14.5412 9.23442 14.6366 9.17717C14.7352 9.11993 14.8131 9.03884 14.8704 8.9339C14.9308 8.82578 14.961 8.69857 14.961 8.55229C14.961 8.40283 14.9308 8.27563 14.8704 8.17068C14.8131 8.06574 14.7352 7.98465 14.6366 7.92741C14.5412 7.87017 14.4315 7.84155 14.3075 7.84155C14.1835 7.84155 14.0722 7.87017 13.9736 7.92741C13.875 7.98465 13.7971 8.06574 13.7398 8.17068C13.6826 8.27563 13.654 8.40283 13.654 8.55229C13.654 8.69857 13.6826 8.82578 13.7398 8.9339C13.7971 9.03884 13.875 9.11993 13.9736 9.17717C14.0722 9.23442 14.1835 9.26304 14.3075 9.26304ZM17.434 9.87361C17.1605 9.87361 16.9172 9.81637 16.7041 9.70189C16.4942 9.5874 16.3273 9.43158 16.2033 9.23442C16.0824 9.03407 16.022 8.8067 16.022 8.55229C16.022 8.29471 16.0824 8.06733 16.2033 7.87017C16.3273 7.66982 16.4942 7.514 16.7041 7.4027C16.9172 7.28821 17.1605 7.23097 17.434 7.23097C17.7043 7.23097 17.9459 7.28821 18.159 7.4027C18.3721 7.514 18.539 7.66823 18.6599 7.8654C18.7807 8.06256 18.8411 8.29153 18.8411 8.55229C18.8411 8.8067 18.7807 9.03407 18.6599 9.23442C18.539 9.43158 18.3721 9.5874 18.159 9.70189C17.9459 9.81637 17.7043 9.87361 17.434 9.87361ZM17.434 9.26304C17.558 9.26304 17.6693 9.23442 17.7679 9.17717C17.8664 9.11993 17.9444 9.03884 18.0016 8.9339C18.0588 8.82578 18.0875 8.69857 18.0875 8.55229C18.0875 8.40283 18.0588 8.27563 18.0016 8.17068C17.9444 8.06574 17.8664 7.98465 17.7679 7.92741C17.6693 7.87017 17.558 7.84155 17.434 7.84155C17.3099 7.84155 17.1986 7.87017 17.1 7.92741C17.0015 7.98465 16.922 8.06574 16.8615 8.17068C16.8043 8.27563 16.7757 8.40283 16.7757 8.55229C16.7757 8.69857 16.8043 8.82578 16.8615 8.9339C16.922 9.03884 17.0015 9.11993 17.1 9.17717C17.1986 9.23442 17.3099 9.26304 17.434 9.26304ZM19.3385 9.83545V7.26913H20.0493V7.99419L19.9491 7.7843C20.0254 7.60304 20.1479 7.4663 20.3164 7.37408C20.4849 7.27867 20.6901 7.23097 20.9317 7.23097V7.91787C20.8999 7.91469 20.8713 7.9131 20.8459 7.9131C20.8204 7.90992 20.7934 7.90833 20.7648 7.90833C20.5613 7.90833 20.3959 7.96716 20.2687 8.08482C20.1447 8.1993 20.0827 8.37898 20.0827 8.62384V9.83545H19.3385ZM22.7806 9.83545V9.33459L22.7329 9.22488V8.3281C22.7329 8.16909 22.6836 8.04507 22.5851 7.95603C22.4897 7.86699 22.3418 7.82247 22.1414 7.82247C22.0047 7.82247 21.8696 7.84473 21.736 7.88925C21.6056 7.93059 21.4943 7.98783 21.4021 8.06097L21.135 7.54103C21.2749 7.44245 21.4434 7.36613 21.6406 7.31206C21.8378 7.258 22.0381 7.23097 22.2416 7.23097C22.6328 7.23097 22.9365 7.32319 23.1527 7.50764C23.369 7.69208 23.4771 7.97988 23.4771 8.37103V9.83545H22.7806ZM21.9983 9.87361C21.798 9.87361 21.6263 9.84022 21.4832 9.77344C21.3401 9.70348 21.2304 9.60966 21.154 9.492C21.0777 9.37434 21.0396 9.24237 21.0396 9.09608C21.0396 8.94344 21.0761 8.80988 21.1493 8.69539C21.2256 8.58091 21.3448 8.49187 21.507 8.42827C21.6692 8.36149 21.8807 8.3281 22.1414 8.3281H22.8236V8.76218H22.2225C22.0476 8.76218 21.9268 8.7908 21.86 8.84804C21.7964 8.90528 21.7646 8.97683 21.7646 9.06269C21.7646 9.15809 21.8012 9.23442 21.8743 9.29166C21.9506 9.34572 22.054 9.37275 22.1844 9.37275C22.3084 9.37275 22.4197 9.34413 22.5183 9.28689C22.6169 9.22647 22.6884 9.13901 22.7329 9.02453L22.8474 9.36798C22.7934 9.53334 22.6948 9.65896 22.5517 9.74482C22.4086 9.83068 22.2241 9.87361 21.9983 9.87361ZM25.2 9.87361C24.8979 9.87361 24.6625 9.79729 24.494 9.64465C24.3255 9.48882 24.2412 9.25827 24.2412 8.95298V6.70149H24.9853V8.94344C24.9853 9.05156 25.0139 9.13583 25.0712 9.19626C25.1284 9.2535 25.2063 9.28212 25.3049 9.28212C25.4226 9.28212 25.5228 9.25032 25.6054 9.18672L25.8058 9.71143C25.7295 9.76549 25.6372 9.80683 25.5291 9.83545C25.4242 9.86089 25.3145 9.87361 25.2 9.87361ZM23.8453 7.89879V7.32637H25.6245V7.89879H23.8453ZM27.4179 9.87361C27.1254 9.87361 26.8678 9.81637 26.6452 9.70189C26.4257 9.5874 26.2556 9.43158 26.1348 9.23442C26.0139 9.03407 25.9535 8.8067 25.9535 8.55229C25.9535 8.29471 26.0123 8.06733 26.13 7.87017C26.2508 7.66982 26.4146 7.514 26.6213 7.4027C26.828 7.28821 27.0618 7.23097 27.3225 7.23097C27.5737 7.23097 27.7995 7.28503 27.9999 7.39316C28.2034 7.4981 28.364 7.65074 28.4817 7.85109C28.5993 8.04825 28.6582 8.28517 28.6582 8.56183C28.6582 8.59045 28.6566 8.62384 28.6534 8.662C28.6502 8.69698 28.647 8.73038 28.6438 8.76218H26.5593V8.3281H28.2527L27.9665 8.45689C27.9665 8.32333 27.9395 8.20725 27.8854 8.10867C27.8313 8.01009 27.7566 7.93377 27.6612 7.87971C27.5658 7.82247 27.4545 7.79384 27.3273 7.79384C27.2001 7.79384 27.0872 7.82247 26.9886 7.87971C26.8932 7.93377 26.8185 8.01168 26.7644 8.11344C26.7104 8.21202 26.6833 8.32969 26.6833 8.46643V8.58091C26.6833 8.72084 26.7135 8.84486 26.774 8.95298C26.8376 9.05792 26.925 9.13901 27.0363 9.19626C27.1508 9.25032 27.2844 9.27735 27.437 9.27735C27.5737 9.27735 27.693 9.25668 27.7948 9.21534C27.8997 9.17399 27.9951 9.11198 28.081 9.0293L28.4769 9.45861C28.3592 9.59217 28.2114 9.69553 28.0333 9.76867C27.8552 9.83863 27.6501 9.87361 27.4179 9.87361Z" fill="black"/>
</mask>
<g mask="url(#mask1_4001_16753)">
<rect x="3.03857" y="1.95068" width="26.9231" height="11.5385" fill="url(#paint1_linear_4001_16753)"/>
</g>
<defs>
<linearGradient id="paint0_linear_4001_16753" x1="46.004" y1="12.5142" x2="-24.993" y2="30.1679" gradientUnits="userSpaceOnUse">
<stop offset="0.0895831" stop-color="white" stop-opacity="0.41"/>
<stop offset="0.501041" stop-color="white"/>
<stop offset="0.797916" stop-color="white" stop-opacity="0.4"/>
</linearGradient>
<linearGradient id="paint1_linear_4001_16753" x1="42.8197" y1="5.95068" x2="-8.16709" y2="33.9339" gradientUnits="userSpaceOnUse">
<stop offset="0.0895831" stop-color="white" stop-opacity="0.41"/>
<stop offset="0.501041" stop-color="white"/>
<stop offset="0.797916" stop-color="white" stop-opacity="0.4"/>
</linearGradient>
</defs>
</svg>
