<svg width="32" height="28" viewBox="0 0 32 28" fill="none" xmlns="http://www.w3.org/2000/svg">
<rect width="32" height="27.6154" rx="5.74359" fill="#1A2E62"/>
<mask id="mask0_1_470" style="mask-type:alpha" maskUnits="userSpaceOnUse" x="4" y="9" width="25" height="10">
<path d="M5.92722 13.036H10.1792V14.6257H5.92722V13.036ZM6.07862 16.6697H10.8858V18.31H4.04724V9.47788H10.7218V11.1181H6.07862V16.6697ZM12.5122 18.31V9.47788H16.3352C17.1259 9.47788 17.8072 9.60826 18.3792 9.86902C18.9512 10.1214 19.3928 10.4873 19.704 10.9667C20.0153 11.4462 20.1709 12.0182 20.1709 12.6827C20.1709 13.3388 20.0153 13.9066 19.704 14.386C19.3928 14.8655 18.9512 15.2356 18.3792 15.4963C17.8072 15.7487 17.1259 15.8749 16.3352 15.8749H13.6477L14.5562 14.9538V18.31H12.5122ZM14.5562 15.1809L13.6477 14.2094H16.2217C16.8525 14.2094 17.3236 14.0748 17.6348 13.8056C17.946 13.5364 18.1016 13.1621 18.1016 12.6827C18.1016 12.1948 17.946 11.8163 17.6348 11.5471C17.3236 11.278 16.8525 11.1434 16.2217 11.1434H13.6477L14.5562 10.1718V15.1809ZM23.5227 13.4523H27.7622V15.0926H23.5227V13.4523ZM23.6741 18.31H21.6301V9.47788H28.3047V11.1181H23.6741V18.31Z" fill="black"/>
</mask>
<g mask="url(#mask0_1_470)">
<rect x="3.06949" y="0.210144" width="27.4612" height="28.2034" fill="url(#paint0_linear_1_470)"/>
<rect x="3.06949" y="0.210144" width="27.4612" height="28.2034" fill="white" fill-opacity="0.5"/>
</g>
<defs>
<linearGradient id="paint0_linear_1_470" x1="43.6458" y1="9.98732" x2="-20.6526" y2="24.7132" gradientUnits="userSpaceOnUse">
<stop offset="0.0895831" stop-color="white" stop-opacity="0.41"/>
<stop offset="0.501041" stop-color="white"/>
<stop offset="0.797916" stop-color="white" stop-opacity="0.4"/>
</linearGradient>
</defs>
</svg>
