<svg width="32" height="28" viewBox="0 0 32 28" fill="none" xmlns="http://www.w3.org/2000/svg">
<rect width="32" height="27.6154" rx="5.74359" fill="#1A2E62"/>
<mask id="mask0_1_485" style="mask-type:alpha" maskUnits="userSpaceOnUse" x="7" y="9" width="17" height="9">
<path d="M9.73425 13.482H13.6772V15.0076H9.73425V13.482ZM9.87507 18H7.974V9.78552H14.1818V11.3111H9.87507V18ZM15.4688 18V9.78552H19.2005C20.0924 9.78552 20.8786 9.95763 21.5593 10.3019C22.2399 10.6383 22.7719 11.1116 23.1552 11.7218C23.5386 12.332 23.7302 13.0557 23.7302 13.8928C23.7302 14.722 23.5386 15.4457 23.1552 16.0637C22.7719 16.6739 22.2399 17.1512 21.5593 17.4954C20.8786 17.8318 20.0924 18 19.2005 18H15.4688ZM17.3699 16.4392H19.1066C19.6543 16.4392 20.1276 16.3375 20.5266 16.1341C20.9334 15.9229 21.2463 15.6256 21.4654 15.2423C21.6923 14.8589 21.8057 14.4091 21.8057 13.8928C21.8057 13.3686 21.6923 12.9188 21.4654 12.5432C21.2463 12.1599 20.9334 11.8665 20.5266 11.6631C20.1276 11.4519 19.6543 11.3463 19.1066 11.3463H17.3699V16.4392Z" fill="black"/>
</mask>
<g mask="url(#mask0_1_485)">
<rect x="3.82904" y="1.32669" width="25.5408" height="26.2311" fill="url(#paint0_linear_1_485)"/>
<rect x="3.82904" y="1.32669" width="25.5408" height="26.2311" fill="white" fill-opacity="0.5"/>
</g>
<defs>
<linearGradient id="paint0_linear_1_485" x1="41.5678" y1="10.4201" x2="-18.2342" y2="24.1162" gradientUnits="userSpaceOnUse">
<stop offset="0.0895831" stop-color="white" stop-opacity="0.41"/>
<stop offset="0.501041" stop-color="white"/>
<stop offset="0.797916" stop-color="white" stop-opacity="0.4"/>
</linearGradient>
</defs>
</svg>
