<svg width="24" height="24" viewBox="0 0 24 24" fill="none" xmlns="http://www.w3.org/2000/svg">
<path d="M19.2222 12C19.2222 15.9887 15.9887 19.2222 12 19.2222C8.01128 19.2222 4.77778 15.9887 4.77778 12C4.77778 8.01128 8.01128 4.77778 12 4.77778C15.9887 4.77778 19.2222 8.01128 19.2222 12Z" stroke="#1E96FC" stroke-width="3.33333"/>
<path d="M12 14.2222C13.2273 14.2222 14.2222 13.2273 14.2222 12C14.2222 10.7727 13.2273 9.77777 12 9.77777C10.7727 9.77777 9.77777 10.7727 9.77777 12C9.77777 13.2273 10.7727 14.2222 12 14.2222Z" fill="#1E96FC" stroke="#1E96FC" stroke-width="2.22222"/>
<path d="M12 4.22222V2" stroke="#1E96FC" stroke-width="2.22222" stroke-linecap="round"/>
<path d="M19.7778 12H22" stroke="#1E96FC" stroke-width="2.22222" stroke-linecap="round"/>
<path d="M12 22V19.7778" stroke="#1E96FC" stroke-width="2.22222" stroke-linecap="round"/>
<path d="M2 12H4.22222" stroke="#1E96FC" stroke-width="2.22222" stroke-linecap="round"/>
</svg>
