<svg width="136" height="40" viewBox="0 0 136 40" fill="none" xmlns="http://www.w3.org/2000/svg">
<g clip-path="url(#clip0_527_42)">
<path fill-rule="evenodd" clip-rule="evenodd" d="M130.534 40H5.02244C2.25436 40 0 37.7456 0 35V5C0 2.24439 2.25436 0 5.02244 0H130.534C133.299 0 135.556 2.24439 135.556 5V35C135.556 37.7456 133.299 40 130.534 40Z" fill="#0E0D0E"/>
<path fill-rule="evenodd" clip-rule="evenodd" d="M130.534 0.800499C132.855 0.800499 134.756 2.68828 134.756 5V35C134.756 37.3117 132.868 39.1995 130.534 39.1995H5.02244C2.70075 39.1995 0.800499 37.3117 0.800499 35V5C0.800499 2.68828 2.68828 0.800499 5.02244 0.800499C5.02244 0.800499 130.534 0.800499 130.534 0.800499ZM130.534 0H5.02244C2.25436 0 0 2.25436 0 5V35C0 37.7556 2.25436 40 5.02244 40H130.534C133.299 40 135.556 37.7556 135.556 35V5C135.556 2.25436 133.299 0 130.534 0Z" fill="black"/>
<path d="M71.4115 13.232C70.5062 13.232 69.7431 12.9153 69.1396 12.2918C68.5411 11.6858 68.207 10.8504 68.2219 9.99755C68.2219 9.08732 68.5312 8.31675 69.1396 7.70578C69.7406 7.08233 70.5037 6.76562 71.409 6.76562C72.3042 6.76562 73.0673 7.08233 73.6808 7.70578C74.2893 8.3367 74.5985 9.10727 74.5985 9.99755C74.5885 10.9103 74.2793 11.6808 73.6808 12.2893C73.0798 12.9177 72.3167 13.232 71.4115 13.232ZM44.4763 13.232C43.591 13.232 42.823 12.9202 42.1945 12.3043C41.5711 11.6908 41.2544 10.9153 41.2544 10C41.2544 9.08483 41.5711 8.30927 42.1945 7.6958C42.8105 7.07984 43.5786 6.76812 44.4763 6.76812C44.9152 6.76812 45.3417 6.8554 45.7506 7.03246C46.1521 7.20453 46.4788 7.43894 46.7207 7.72572L46.7806 7.79804L46.1048 8.46139L46.0349 8.37909C45.6534 7.92523 45.1422 7.70328 44.4664 7.70328C43.8629 7.70328 43.3367 7.91775 42.9028 8.34169C42.4664 8.76812 42.2444 9.32672 42.2444 10.0025C42.2444 10.6783 42.4664 11.2369 42.9028 11.6634C43.3367 12.0873 43.8629 12.3018 44.4664 12.3018C45.1097 12.3018 45.6509 12.0873 46.0723 11.6634C46.3217 11.414 46.4763 11.0649 46.5312 10.6235H44.3641V9.69081H47.4614L47.4738 9.7756C47.4963 9.93271 47.5187 10.0948 47.5187 10.2444C47.5187 11.1048 47.2594 11.8005 46.7457 12.3143C46.1621 12.9227 45.399 13.232 44.4763 13.232ZM80.2893 13.0998H79.3341L76.409 8.41899L76.4339 9.26188V13.0973H75.4788V6.90029H76.5686L76.5985 6.94767L79.3491 11.3566L79.3242 10.5162V6.90029H80.2893V13.0998V13.0998ZM64.2344 13.0998H63.2668V7.83296H61.5885V6.90029H65.9102V7.83296H64.2319V13.0998H64.2344ZM60.8005 13.0998H59.8354V6.90029H60.8005V13.0998ZM55.3766 13.0998H54.4115V7.83296H52.7332V6.90029H57.0549V7.83296H55.3766V13.0998ZM52.1222 13.0898H48.4215V6.90029H52.1222V7.83296H49.389V9.53371H51.8554V10.4564H49.389V12.1571H52.1222V13.0898ZM69.8479 11.6509C70.2793 12.0823 70.803 12.2993 71.4115 12.2993C72.0374 12.2993 72.5486 12.0873 72.9751 11.6509C73.399 11.227 73.6134 10.6709 73.6134 10C73.6134 9.32922 73.399 8.77061 72.9775 8.34917C72.5461 7.91774 72.0199 7.70079 71.414 7.70079C70.788 7.70079 70.2768 7.91276 69.8529 8.34917C69.4289 8.77311 69.2145 9.32922 69.2145 10C69.2145 10.6709 69.4264 11.2295 69.8479 11.6509Z" fill="white"/>
<path fill-rule="evenodd" clip-rule="evenodd" d="M68.1323 21.7554C65.7757 21.7554 63.8654 23.5434 63.8654 26.0098C63.8654 28.4537 65.7881 30.2641 68.1323 30.2641C70.4889 30.2641 72.3991 28.4636 72.3991 26.0098C72.3991 23.5434 70.4889 21.7554 68.1323 21.7554ZM68.1323 28.5784C66.843 28.5784 65.7333 27.511 65.7333 25.9998C65.7333 24.4661 66.8455 23.4213 68.1323 23.4213C69.4216 23.4213 70.5313 24.4661 70.5313 25.9998C70.5338 27.521 69.4216 28.5784 68.1323 28.5784ZM58.8231 21.7554C56.4664 21.7554 54.5562 23.5434 54.5562 26.0098C54.5562 28.4537 56.4789 30.2641 58.8231 30.2641C61.1797 30.2641 63.0899 28.4636 63.0899 26.0098C63.0899 23.5434 61.1772 21.7554 58.8231 21.7554ZM58.8231 28.5784C57.5338 28.5784 56.4241 27.511 56.4241 25.9998C56.4241 24.4661 57.5363 23.4213 58.8231 23.4213C60.1123 23.4213 61.2221 24.4661 61.2221 25.9998C61.2221 27.521 60.1123 28.5784 58.8231 28.5784ZM47.7457 23.0547V24.8552H52.0674C51.9353 25.8651 51.6011 26.6108 51.0899 27.122C50.4565 27.7554 49.4789 28.4437 47.7557 28.4437C45.0999 28.4437 43.0225 26.2991 43.0225 23.6432C43.0225 20.9873 45.0999 18.8427 47.7557 18.8427C49.1896 18.8427 50.2345 19.4088 51.0101 20.132L52.2869 18.8552C51.2096 17.8227 49.7757 17.0322 47.7657 17.0322C44.1223 17.0322 41.0649 19.9998 41.0649 23.6332C41.0649 27.2766 44.1198 30.2342 47.7657 30.2342C49.7333 30.2342 51.2096 29.5908 52.3767 28.3789C53.5662 27.1893 53.9428 25.511 53.9428 24.1569C53.9428 23.7355 53.9103 23.3564 53.843 23.0347H47.7432C47.7457 23.0322 47.7457 23.0547 47.7457 23.0547ZM93.055 24.4562C92.6984 23.5011 91.6211 21.7454 89.4116 21.7454C87.2221 21.7454 85.4016 23.4686 85.4016 25.9998C85.4016 28.3888 87.2021 30.2542 89.6236 30.2542C91.5687 30.2542 92.7009 29.0646 93.1672 28.3664L91.7233 27.3988C91.2445 28.1095 90.5787 28.5759 89.6335 28.5759C88.6784 28.5759 88.0101 28.142 87.5662 27.2866L93.2545 24.93C93.2545 24.9325 93.055 24.4562 93.055 24.4562ZM87.2545 25.8776C87.2096 24.2342 88.5313 23.3988 89.4764 23.3988C90.2221 23.3988 90.843 23.7654 91.055 24.2991L87.2545 25.8776ZM82.6335 29.9998H84.5014V17.5011H82.6335V29.9998ZM79.5662 22.7006H79.4989C79.0774 22.1993 78.2769 21.7454 77.2545 21.7454C75.1323 21.7454 73.1772 23.6133 73.1772 26.0123C73.1772 28.4013 75.1223 30.2467 77.2545 30.2467C78.2645 30.2467 79.0774 29.7903 79.4989 29.2791H79.5662V29.8901C79.5662 31.5135 78.6984 32.3888 77.2994 32.3888C76.1547 32.3888 75.444 31.5659 75.1547 30.8776L73.5313 31.5559C73.9976 32.6781 75.242 34.0671 77.2969 34.0671C79.4864 34.0671 81.3418 32.7779 81.3418 29.6332V21.9998H79.5762V22.7006C79.5787 22.7006 79.5662 22.7006 79.5662 22.7006ZM77.4216 28.5784C76.1323 28.5784 75.055 27.5011 75.055 26.0123C75.055 24.511 76.1323 23.4237 77.4216 23.4237C78.6984 23.4237 79.6884 24.5235 79.6884 26.0123C79.7009 27.5011 78.7009 28.5784 77.4216 28.5784ZM101.801 17.5011H97.3343V29.9998H99.2021V25.2666H101.803C103.87 25.2666 105.903 23.7679 105.903 21.3888C105.903 19.0098 103.878 17.5011 101.801 17.5011ZM101.855 23.521H99.1996V19.2317H101.855C103.254 19.2317 104.045 20.3863 104.045 21.3764C104.045 22.3564 103.245 23.521 101.855 23.521ZM113.389 21.733C112.033 21.733 110.634 22.334 110.055 23.6432L111.711 24.3315C112.067 23.6432 112.721 23.4088 113.412 23.4088C114.379 23.4088 115.357 23.9873 115.379 25.0198V25.1519C115.045 24.9624 114.312 24.6731 113.434 24.6731C111.646 24.6731 109.833 25.6507 109.833 27.4836C109.833 29.1619 111.299 30.2392 112.933 30.2392C114.187 30.2392 114.878 29.6731 115.309 29.0173H115.377V29.9848H117.177V25.1968C117.177 22.9674 115.521 21.733 113.389 21.733ZM113.155 28.5784C112.544 28.5784 111.688 28.2791 111.688 27.511C111.688 26.5434 112.756 26.1769 113.666 26.1769C114.489 26.1769 114.878 26.3539 115.367 26.5983C115.232 27.7205 114.284 28.5684 113.155 28.5784ZM123.746 21.9998L121.601 27.4213H121.534L119.312 21.9998H117.302L120.636 29.5784L118.736 33.7903H120.681L125.811 21.9998H123.746ZM106.933 29.9998H108.801V17.5011H106.933V29.9998Z" fill="white"/>
<path fill-rule="evenodd" clip-rule="evenodd" d="M10.4339 7.53413C10.1446 7.84585 9.97754 8.32216 9.97754 8.9456V31.0578C9.97754 31.6813 10.1446 32.1576 10.4439 32.4568L10.5212 32.5242L22.9102 20.1351V19.8583L10.5112 7.4668L10.4339 7.53413Z" fill="url(#paint0_linear_527_42)"/>
<path fill-rule="evenodd" clip-rule="evenodd" d="M27.0326 24.2773L22.9004 20.1451V19.8558L27.0326 15.7236L27.1223 15.7785L32.0101 18.5566C33.4091 19.3446 33.4091 20.6463 32.0101 21.4443L27.1223 24.2224L27.0326 24.2773Z" fill="url(#paint1_linear_527_42)"/>
<path fill-rule="evenodd" clip-rule="evenodd" d="M27.1224 24.2219L22.9004 20L10.4341 32.4663C10.8904 32.9551 11.656 33.01 12.5114 32.5337L27.1224 24.2219Z" fill="url(#paint2_linear_527_42)"/>
<path fill-rule="evenodd" clip-rule="evenodd" d="M27.1224 15.7784L12.5114 7.47918C11.656 6.9904 10.8879 7.05774 10.4341 7.54651L22.9004 20.0004L27.1224 15.7784Z" fill="url(#paint3_linear_527_42)"/>
<path opacity="0.2" fill-rule="evenodd" clip-rule="evenodd" d="M27.0324 24.1318L12.5212 32.3762C11.7107 32.8426 10.9875 32.8101 10.5212 32.3862L10.4438 32.4635L10.5212 32.5308C10.9875 32.9523 11.7107 32.9872 12.5212 32.5209L27.1321 24.2216L27.0324 24.1318Z" fill="black"/>
<path opacity="0.12" fill-rule="evenodd" clip-rule="evenodd" d="M32.01 21.2993L27.02 24.1322L27.1098 24.2219L31.9976 21.4439C32.6983 21.0449 33.0425 20.5212 33.0425 20C33.0001 20.4788 32.6435 20.9327 32.01 21.2993Z" fill="black"/>
<path opacity="0.25" fill-rule="evenodd" clip-rule="evenodd" d="M12.5112 7.62329L32.01 18.7006C32.6434 19.0572 33 19.5236 33.0549 19.9999C33.0549 19.4787 32.7107 18.955 32.01 18.556L12.5112 7.47866C11.1122 6.67816 9.97754 7.34649 9.97754 8.94499V9.08963C9.97754 7.48863 11.1122 6.83277 12.5112 7.62329Z" fill="white"/>
</g>
<defs>
<linearGradient id="paint0_linear_527_42" x1="21.7989" y1="8.70703" x2="1.95385" y2="13.9948" gradientUnits="userSpaceOnUse">
<stop stop-color="#00A0FF"/>
<stop offset="0.00657" stop-color="#00A1FF"/>
<stop offset="0.2601" stop-color="#00BEFF"/>
<stop offset="0.5122" stop-color="#00D2FF"/>
<stop offset="0.7604" stop-color="#00DFFF"/>
<stop offset="1" stop-color="#00E3FF"/>
</linearGradient>
<linearGradient id="paint1_linear_527_42" x1="33.8345" y1="20.0005" x2="9.63767" y2="20.0005" gradientUnits="userSpaceOnUse">
<stop stop-color="#FFE000"/>
<stop offset="0.4087" stop-color="#FFBD00"/>
<stop offset="0.7754" stop-color="#FFA500"/>
<stop offset="1" stop-color="#FF9C00"/>
</linearGradient>
<linearGradient id="paint2_linear_527_42" x1="24.8266" y1="22.2973" x2="8.89509" y2="49.1114" gradientUnits="userSpaceOnUse">
<stop stop-color="#FF3A44"/>
<stop offset="1" stop-color="#C31162"/>
</linearGradient>
<linearGradient id="paint3_linear_527_42" x1="7.29492" y1="0.179176" x2="14.4026" y2="12.1548" gradientUnits="userSpaceOnUse">
<stop stop-color="#32A071"/>
<stop offset="0.0685" stop-color="#2DA771"/>
<stop offset="0.4762" stop-color="#15CF74"/>
<stop offset="0.8009" stop-color="#06E775"/>
<stop offset="1" stop-color="#00F076"/>
</linearGradient>
<clipPath id="clip0_527_42">
<rect width="136" height="40.0001" rx="5" fill="white"/>
</clipPath>
</defs>
</svg>
