<svg width="287" height="65" viewBox="0 0 287 65" fill="none" xmlns="http://www.w3.org/2000/svg">
<g clip-path="url(#clip0_35_139)">
<path d="M0.437771 38.3172L4.05764 37.7451V4.13932L0 3.61077L0.218885 0H25.4939L24.8807 10.169L19.836 10.0364L19.5304 3.65429H11.7083V18.7648H15.1155L15.9043 15.2867L19.4457 15.3737V25.8081H15.9477L15.1134 22.2429H11.7083V38.2737H19.5737L20.3192 31.3196L25.6261 31.4957L26.0205 42.1042H0.264314L0.437771 38.3172Z" fill="black"/>
<path d="M28.3353 42.1042L28.4675 38.9784L31.3088 38.4063V17.2185L27.9863 16.9097V13.7404L36.2978 12.5527L36.9235 14.3581V15.5458C38.9409 13.4315 41.3528 12.2003 44.4234 12.2003C48.9415 12.2003 52.2743 14.9302 52.2743 20.3898V38.4084L55.2892 38.9805L55.1137 42.1062H45.3113V21.9071C45.3113 19.0011 44.2479 17.3719 41.6584 17.3719C40.7808 17.3719 40.1551 17.5481 39.4551 17.7678C39.0153 18.1201 38.6209 18.6487 38.2698 19.1337V38.4063L41.2516 38.9784L41.0327 42.1042H28.3353Z" fill="black"/>
<path d="M186.91 42.1042L187.042 38.9784L189.883 38.4063V17.2185L186.561 16.9097V13.7404L194.872 12.5527L195.496 14.3581V15.5458C197.513 13.4315 199.925 12.2003 202.996 12.2003C207.514 12.2003 210.847 14.9302 210.847 20.3898V38.4084L213.861 38.9805L213.686 42.1062H203.883V21.9071C203.883 19.0011 202.818 17.3719 200.231 17.3719C199.355 17.3719 198.729 17.5481 198.027 17.7678C197.589 18.1201 197.193 18.6487 196.844 19.1337V38.4063L199.826 38.9784L199.607 42.1042H186.91Z" fill="black"/>
<path d="M70.9599 41.5196C69.8201 42.0046 67.7592 42.5311 65.0831 42.5311C61.5747 42.5311 58.3079 40.9475 58.3079 35.7946V17.2039L54.9751 16.6754L55.1073 12.9776L58.8799 12.8014L60.503 7.16551L65.3061 6.94373V12.9755H70.5263L70.1649 16.6733L65.399 17.2039V35.7511C65.399 37.2912 66.2332 38.3047 67.8109 38.3047H70.6502L70.9599 41.5196Z" fill="black"/>
<path d="M267.412 42.1042L267.544 39.0655L270.22 38.4499V17.2206L267.063 16.9117V13.7404L275.647 12.5527L276.217 14.6213V15.2825C278.455 13.6098 281.524 12.5092 285.166 12.5092L286.438 13.6098L285.561 21.5796L280.824 21.4034L280.343 17.1335C279.246 17.3097 278.193 17.6185 277.316 18.2341V38.4519L280.299 39.0676L280.08 42.1062H267.412V42.1042Z" fill="black"/>
<path d="M143.779 42.1042L143.911 39.0655L146.587 38.4499V17.2206L143.428 16.9117V13.7404L152.012 12.5527L152.582 14.6213V15.2825C154.82 13.6098 157.889 12.5092 161.531 12.5092L162.803 13.6098L161.926 21.5796L157.189 21.4034L156.707 17.1335C155.611 17.3097 154.558 17.6185 153.68 18.2341V38.4519L156.664 39.0676L156.445 42.1062H143.779V42.1042Z" fill="black"/>
<path d="M73.0517 42.1042L73.1839 39.0655L75.8601 38.4499V17.2206L72.7007 16.9117V13.7404L81.2868 12.5527L81.8567 14.6213V15.2825C84.093 13.6098 87.1636 12.5092 90.8042 12.5092L92.0762 13.6098L91.1986 21.5796L86.4615 21.4034L85.9784 17.1335C84.8819 17.3097 83.8287 17.6185 82.9511 18.2341V38.4519L85.935 39.0676L85.7161 42.1062H73.0517V42.1042Z" fill="black"/>
<path d="M100.264 29.1929C100.264 34.2546 102.445 38.1742 106.816 38.1742C109.053 38.1742 110.851 37.6892 112.957 36.7212L114.143 39.4946C111.993 41.2109 108.867 42.5312 104.919 42.5312C97.2762 42.5312 92.8613 35.8838 92.8613 27.3419C92.8613 20.0769 96.0414 12.1278 104.836 12.1278C112.474 12.1278 115.373 19.2416 115.373 27.1658L114.628 29.0582L100.264 29.1929ZM100.132 25.8019L108.96 25.406C108.784 21.8823 108.057 16.2671 104.603 16.2671C103.783 16.2671 103.192 16.3998 102.139 16.9719C100.718 19.3929 100.113 23.7685 100.132 25.8019Z" fill="black"/>
<path d="M222.229 29.1929C222.229 34.2546 224.409 38.1742 228.781 38.1742C231.019 38.1742 232.816 37.6892 234.922 36.7212L236.105 39.4946C233.958 41.2109 230.829 42.5312 226.881 42.5312C219.239 42.5312 214.824 35.8838 214.824 27.3419C214.824 20.0769 218.002 12.1278 226.798 12.1278C234.437 12.1278 237.336 19.2416 237.336 27.1658L236.59 29.0582L222.229 29.1929ZM222.097 25.8019L230.924 25.406C230.749 21.8823 230.022 16.2671 226.567 16.2671C225.747 16.2671 225.157 16.3998 224.104 16.9719C222.683 19.3929 222.08 23.7685 222.097 25.8019Z" fill="black"/>
<path d="M170.989 29.1929C170.989 34.2546 173.17 38.1742 177.541 38.1742C179.779 38.1742 181.576 37.6892 183.682 36.7212L184.865 39.4946C182.718 41.2109 179.589 42.5312 175.641 42.5312C167.999 42.5312 163.584 35.8838 163.584 27.3419C163.584 20.0769 166.762 12.1278 175.557 12.1278C183.195 12.1278 186.094 19.2416 186.094 27.1658L185.349 29.0582L170.989 29.1929ZM170.857 25.8019L179.684 25.406C179.509 21.8823 178.782 16.2671 175.327 16.2671C174.508 16.2671 173.917 16.3998 172.864 16.9719C171.443 19.3929 170.84 23.7685 170.857 25.8019Z" fill="black"/>
<path d="M257.178 42.1041L256.432 39.594C254.502 41.4429 252.616 42.5436 249.678 42.5436C245.16 42.5436 241.115 40.2552 241.115 34.0017V16.4619L237.792 16.1531V13.3797L247.33 12.2791L248.075 14.7892V33.1228C248.075 36.3377 249.366 38.0104 251.958 38.0104C252.695 38.0104 253.626 37.9213 254.458 37.571C254.939 37.086 255.379 36.5139 255.774 35.9418V16.4619L252.352 16.1531V13.3797L261.989 12.2791L262.735 14.7892V38.4063L265.706 38.9784L265.355 42.1041H257.178Z" fill="black"/>
<path d="M129.659 38.3172C128.125 38.3172 126.939 38.0519 125.975 37.5254V18.9015C126.369 18.2859 126.852 17.7138 127.336 17.1853C128.213 16.8764 129.039 16.7459 129.96 16.7459C133.904 16.7459 134.557 20.7567 134.557 27.9347C134.557 34.8474 133.533 36.7502 133.258 37.5274C132.203 38.0539 131.063 38.3172 129.659 38.3172ZM141.423 26.633C141.423 17.7429 138.792 12.1567 132.265 12.1567C127.924 12.1567 125.861 14.671 125.011 15.7323V14.7643L124.265 12.2542L115.691 13.4439V16.4785L119.014 16.9179V52.8286L116.206 53.4007L116.073 56.3959H128.738L128.957 53.4007L125.975 52.8286V41.4408C127.16 42.102 128.858 42.5415 130.702 42.5415C141.326 42.5456 141.423 31.6366 141.423 26.633Z" fill="black"/>
<path d="M284.635 37.9835C286.079 37.9835 287 38.8416 287 40.048C287 41.2647 286.054 42.1125 284.635 42.1125C283.24 42.1125 282.269 41.2647 282.269 40.048C282.269 38.8292 283.227 37.9835 284.635 37.9835ZM284.635 41.4658C285.618 41.4658 286.261 40.8833 286.261 40.0459C286.261 39.2085 285.618 38.6261 284.635 38.6261C283.665 38.6261 283.021 39.1982 283.021 40.0459C283.021 40.8833 283.665 41.4658 284.635 41.4658ZM283.605 40.9787L283.617 40.6926L283.861 40.6387V39.3681L283.582 39.337L283.595 39.051H284.722C285.207 39.051 285.658 39.2085 285.645 39.6334C285.633 39.9299 285.464 40.0998 285.232 40.1952C285.354 40.3859 285.523 40.5869 285.645 40.6615L285.815 40.6926L285.79 40.9787H285.22C285.026 40.8191 284.844 40.6076 284.675 40.2698H284.493V40.6408L284.735 40.6947L284.712 40.9807H283.605V40.9787ZM284.489 39.4013V39.9526H284.695C284.974 39.9526 285.036 39.8469 285.036 39.6873C285.036 39.4448 284.854 39.4013 284.623 39.4013H284.489V39.4013Z" fill="black"/>
<path d="M231.314 65H229.819V50.2563H231.314V65Z" fill="black"/>
<path d="M246.149 62.8153H246.19V50.2563H247.685V65H245.819L237.27 52.3167H237.228V65H235.733V50.2563H237.6L246.149 62.8153Z" fill="black"/>
<path d="M252.1 50.2563H256.975C257.886 50.2563 258.805 50.4097 259.724 50.7144C260.643 51.0191 261.475 51.4814 262.214 52.099C262.951 52.7188 263.55 53.4878 264.009 54.4102C264.465 55.3346 264.692 56.4083 264.692 57.6292C264.692 58.8666 264.465 59.9403 264.009 60.8586C263.55 61.7727 262.951 62.5417 262.214 63.1573C261.475 63.777 260.643 64.2372 259.724 64.544C258.805 64.8507 257.886 65.002 256.975 65.002H252.1V50.2563ZM253.595 63.6692H256.562C257.669 63.6692 258.634 63.4951 259.455 63.1469C260.277 62.8008 260.961 62.3447 261.5 61.783C262.039 61.2213 262.443 60.5808 262.712 59.8574C262.982 59.134 263.117 58.392 263.117 57.6292C263.117 56.8664 262.982 56.1223 262.712 55.401C262.443 54.6796 262.039 54.0371 261.5 53.4733C260.959 52.9116 260.277 52.4576 259.455 52.1115C258.634 51.7633 257.669 51.5891 256.562 51.5891H253.595V63.6692Z" fill="black"/>
<path d="M269.82 65H268.325V50.2563H269.82V65Z" fill="black"/>
<path d="M274.135 65H272.496L278.843 50.2563H280.295L286.603 65H284.943L283.324 61.126H275.731L274.135 65ZM276.293 59.7517H282.767L279.531 51.9229L276.293 59.7517Z" fill="black"/>
</g>
<defs>
<clipPath id="clip0_35_139">
<rect width="287" height="65" fill="white"/>
</clipPath>
</defs>
</svg>
