<svg width="25" height="15" viewBox="0 0 25 15" fill="none" xmlns="http://www.w3.org/2000/svg">
<path d="M23.7076 10.0486C24.1288 10.4097 24.7305 10.169 24.7305 9.62743H24.6703V1.2636C24.6703 0.601715 24.1889 0 23.527 0H15.103C14.5615 0 14.3208 0.722057 14.6818 1.08308L17.209 3.3696L13.2979 7.88246L9.44692 4.03149C8.78503 3.30943 7.64178 3.30943 6.91972 4.03149L0.180514 13.2377C-0.0601715 13.4784 -0.0601715 13.8394 0.180514 14.0801L0.481372 14.381C0.722057 14.6217 1.08309 14.6217 1.32377 14.381L8.18332 8.36383L12.0343 12.7563C12.6962 13.4784 13.8394 13.4784 14.5615 12.7563L20.9397 7.28075L23.7076 10.0486Z" fill="#1E96FC"/>
</svg>
