<svg width="18" height="26" viewBox="0 0 18 26" fill="none" xmlns="http://www.w3.org/2000/svg">
<path d="M11.4762 7.72529L15.1335 8.41062C16.9284 8.74696 17.6716 10.9116 16.4619 12.2796L5.47606 24.7022C3.68212 26.7308 0.445162 24.6188 1.57928 22.1597L5.19662 14.3164L2.50842 13.8106C0.91412 13.5107 0.0952615 11.7246 0.908515 10.3209L5.74195 1.97832C6.16246 1.25251 6.93776 0.805664 7.77659 0.805664H11.4025C13.2136 0.805664 14.3448 2.76703 13.4379 4.33467L11.4762 7.72529ZM11.4025 3.15712H7.77659L2.94316 11.4997L8.59479 12.5629L3.71459 23.1445L14.7004 10.7218L7.77659 9.42441L11.4025 3.15712Z" fill="#1E96FC"/>
</svg>
