<svg width="312" height="77" viewBox="0 0 312 77" fill="none" xmlns="http://www.w3.org/2000/svg">
<path opacity="0.8" d="M76.864 68.112C76.1173 68.112 75.4453 67.984 74.848 67.728C74.2507 67.4613 73.7813 67.088 73.44 66.608C73.0987 66.128 72.928 65.568 72.928 64.928H74.88C74.9227 65.408 75.1093 65.8027 75.44 66.112C75.7813 66.4213 76.256 66.576 76.864 66.576C77.4933 66.576 77.984 66.4267 78.336 66.128C78.688 65.8187 78.864 65.424 78.864 64.944C78.864 64.5707 78.752 64.2667 78.528 64.032C78.3147 63.7973 78.0427 63.616 77.712 63.488C77.392 63.36 76.944 63.2213 76.368 63.072C75.6427 62.88 75.0507 62.688 74.592 62.496C74.144 62.2933 73.76 61.984 73.44 61.568C73.12 61.152 72.96 60.5973 72.96 59.904C72.96 59.264 73.12 58.704 73.44 58.224C73.76 57.744 74.208 57.376 74.784 57.12C75.36 56.864 76.0267 56.736 76.784 56.736C77.8613 56.736 78.7413 57.008 79.424 57.552C80.1173 58.0853 80.5013 58.8213 80.576 59.76H78.56C78.528 59.3547 78.336 59.008 77.984 58.72C77.632 58.432 77.168 58.288 76.592 58.288C76.0693 58.288 75.6427 58.4213 75.312 58.688C74.9813 58.9547 74.816 59.3387 74.816 59.84C74.816 60.1813 74.9173 60.464 75.12 60.688C75.3333 60.9013 75.6 61.072 75.92 61.2C76.24 61.328 76.6773 61.4667 77.232 61.616C77.968 61.8187 78.5653 62.0213 79.024 62.224C79.4933 62.4267 79.888 62.7413 80.208 63.168C80.5387 63.584 80.704 64.144 80.704 64.848C80.704 65.4133 80.5493 65.9467 80.24 66.448C79.9413 66.9493 79.4987 67.3547 78.912 67.664C78.336 67.9627 77.6533 68.112 76.864 68.112ZM84.9843 60.672V65.552C84.9843 65.8827 85.0589 66.1227 85.2083 66.272C85.3683 66.4107 85.6349 66.48 86.0083 66.48H87.1283V68H85.6883C84.8669 68 84.2376 67.808 83.8003 67.424C83.3629 67.04 83.1443 66.416 83.1443 65.552V60.672H82.1043V59.184H83.1443V56.992H84.9843V59.184H87.1283V60.672H84.9843ZM88.2014 63.552C88.2014 62.6667 88.3827 61.8827 88.7454 61.2C89.1187 60.5173 89.62 59.9893 90.2494 59.616C90.8894 59.232 91.5934 59.04 92.3614 59.04C93.0547 59.04 93.6574 59.1787 94.1694 59.456C94.692 59.7227 95.108 60.0587 95.4174 60.464V59.184H97.2574V68H95.4174V66.688C95.108 67.104 94.6867 67.4507 94.1534 67.728C93.62 68.0053 93.012 68.144 92.3294 68.144C91.572 68.144 90.8787 67.952 90.2494 67.568C89.62 67.1733 89.1187 66.6293 88.7454 65.936C88.3827 65.232 88.2014 64.4373 88.2014 63.552ZM95.4174 63.584C95.4174 62.976 95.2894 62.448 95.0334 62C94.788 61.552 94.4627 61.2107 94.0574 60.976C93.652 60.7413 93.2147 60.624 92.7454 60.624C92.276 60.624 91.8387 60.7413 91.4334 60.976C91.028 61.2 90.6974 61.536 90.4414 61.984C90.196 62.4213 90.0734 62.944 90.0734 63.552C90.0734 64.16 90.196 64.6933 90.4414 65.152C90.6974 65.6107 91.028 65.9627 91.4334 66.208C91.8494 66.4427 92.2867 66.56 92.7454 66.56C93.2147 66.56 93.652 66.4427 94.0574 66.208C94.4627 65.9733 94.788 65.632 95.0334 65.184C95.2894 64.7253 95.4174 64.192 95.4174 63.584ZM101.477 60.464C101.744 60.016 102.096 59.6693 102.533 59.424C102.981 59.168 103.509 59.04 104.117 59.04V60.928H103.653C102.938 60.928 102.394 61.1093 102.021 61.472C101.658 61.8347 101.477 62.464 101.477 63.36V68H99.6531V59.184H101.477V60.464ZM107.922 60.672V65.552C107.922 65.8827 107.996 66.1227 108.146 66.272C108.306 66.4107 108.572 66.48 108.946 66.48H110.066V68H108.626C107.804 68 107.175 67.808 106.738 67.424C106.3 67.04 106.082 66.416 106.082 65.552V60.672H105.042V59.184H106.082V56.992H107.922V59.184H110.066V60.672H107.922ZM119.567 68.112C118.82 68.112 118.148 67.984 117.551 67.728C116.954 67.4613 116.484 67.088 116.143 66.608C115.802 66.128 115.631 65.568 115.631 64.928H117.583C117.626 65.408 117.812 65.8027 118.143 66.112C118.484 66.4213 118.959 66.576 119.567 66.576C120.196 66.576 120.687 66.4267 121.039 66.128C121.391 65.8187 121.567 65.424 121.567 64.944C121.567 64.5707 121.455 64.2667 121.231 64.032C121.018 63.7973 120.746 63.616 120.415 63.488C120.095 63.36 119.647 63.2213 119.071 63.072C118.346 62.88 117.754 62.688 117.295 62.496C116.847 62.2933 116.463 61.984 116.143 61.568C115.823 61.152 115.663 60.5973 115.663 59.904C115.663 59.264 115.823 58.704 116.143 58.224C116.463 57.744 116.911 57.376 117.487 57.12C118.063 56.864 118.73 56.736 119.487 56.736C120.564 56.736 121.444 57.008 122.127 57.552C122.82 58.0853 123.204 58.8213 123.279 59.76H121.263C121.231 59.3547 121.039 59.008 120.687 58.72C120.335 58.432 119.871 58.288 119.295 58.288C118.772 58.288 118.346 58.4213 118.015 58.688C117.684 58.9547 117.519 59.3387 117.519 59.84C117.519 60.1813 117.62 60.464 117.823 60.688C118.036 60.9013 118.303 61.072 118.623 61.2C118.943 61.328 119.38 61.4667 119.935 61.616C120.671 61.8187 121.268 62.0213 121.727 62.224C122.196 62.4267 122.591 62.7413 122.911 63.168C123.242 63.584 123.407 64.144 123.407 64.848C123.407 65.4133 123.252 65.9467 122.943 66.448C122.644 66.9493 122.202 67.3547 121.615 67.664C121.039 67.9627 120.356 68.112 119.567 68.112ZM124.951 63.552C124.951 62.6667 125.133 61.8827 125.495 61.2C125.869 60.5173 126.37 59.9893 126.999 59.616C127.639 59.232 128.343 59.04 129.111 59.04C129.805 59.04 130.407 59.1787 130.919 59.456C131.442 59.7227 131.858 60.0587 132.167 60.464V59.184H134.007V68H132.167V66.688C131.858 67.104 131.437 67.4507 130.903 67.728C130.37 68.0053 129.762 68.144 129.079 68.144C128.322 68.144 127.629 67.952 126.999 67.568C126.37 67.1733 125.869 66.6293 125.495 65.936C125.133 65.232 124.951 64.4373 124.951 63.552ZM132.167 63.584C132.167 62.976 132.039 62.448 131.783 62C131.538 61.552 131.213 61.2107 130.807 60.976C130.402 60.7413 129.965 60.624 129.495 60.624C129.026 60.624 128.589 60.7413 128.183 60.976C127.778 61.2 127.447 61.536 127.191 61.984C126.946 62.4213 126.823 62.944 126.823 63.552C126.823 64.16 126.946 64.6933 127.191 65.152C127.447 65.6107 127.778 65.9627 128.183 66.208C128.599 66.4427 129.037 66.56 129.495 66.56C129.965 66.56 130.402 66.4427 130.807 66.208C131.213 65.9733 131.538 65.632 131.783 65.184C132.039 64.7253 132.167 64.192 132.167 63.584ZM139.811 66.368L142.307 59.184H144.243L140.883 68H138.707L135.363 59.184H137.315L139.811 66.368ZM146.55 58.016C146.219 58.016 145.942 57.904 145.718 57.68C145.494 57.456 145.382 57.1787 145.382 56.848C145.382 56.5173 145.494 56.24 145.718 56.016C145.942 55.792 146.219 55.68 146.55 55.68C146.87 55.68 147.142 55.792 147.366 56.016C147.59 56.24 147.702 56.5173 147.702 56.848C147.702 57.1787 147.59 57.456 147.366 57.68C147.142 57.904 146.87 58.016 146.55 58.016ZM147.446 59.184V68H145.622V59.184H147.446ZM154.289 59.04C154.982 59.04 155.601 59.184 156.145 59.472C156.699 59.76 157.131 60.1867 157.441 60.752C157.75 61.3173 157.905 62 157.905 62.8V68H156.097V63.072C156.097 62.2827 155.899 61.68 155.505 61.264C155.11 60.8373 154.571 60.624 153.889 60.624C153.206 60.624 152.662 60.8373 152.257 61.264C151.862 61.68 151.665 62.2827 151.665 63.072V68H149.841V59.184H151.665V60.192C151.963 59.8293 152.342 59.5467 152.801 59.344C153.27 59.1413 153.766 59.04 154.289 59.04ZM163.783 59.04C164.466 59.04 165.069 59.1787 165.591 59.456C166.125 59.7227 166.541 60.0587 166.839 60.464V59.184H168.679V68.144C168.679 68.9547 168.509 69.6747 168.167 70.304C167.826 70.944 167.33 71.4453 166.679 71.808C166.039 72.1707 165.271 72.352 164.375 72.352C163.181 72.352 162.189 72.0693 161.399 71.504C160.61 70.9493 160.162 70.192 160.055 69.232H161.863C162.002 69.6907 162.295 70.0587 162.743 70.336C163.202 70.624 163.746 70.768 164.375 70.768C165.111 70.768 165.703 70.544 166.151 70.096C166.61 69.648 166.839 68.9973 166.839 68.144V66.672C166.53 67.088 166.109 67.44 165.575 67.728C165.053 68.0053 164.455 68.144 163.783 68.144C163.015 68.144 162.311 67.952 161.671 67.568C161.042 67.1733 160.541 66.6293 160.167 65.936C159.805 65.232 159.623 64.4373 159.623 63.552C159.623 62.6667 159.805 61.8827 160.167 61.2C160.541 60.5173 161.042 59.9893 161.671 59.616C162.311 59.232 163.015 59.04 163.783 59.04ZM166.839 63.584C166.839 62.976 166.711 62.448 166.455 62C166.21 61.552 165.885 61.2107 165.479 60.976C165.074 60.7413 164.637 60.624 164.167 60.624C163.698 60.624 163.261 60.7413 162.855 60.976C162.45 61.2 162.119 61.536 161.863 61.984C161.618 62.4213 161.495 62.944 161.495 63.552C161.495 64.16 161.618 64.6933 161.863 65.152C162.119 65.6107 162.45 65.9627 162.855 66.208C163.271 66.4427 163.709 66.56 164.167 66.56C164.637 66.56 165.074 66.4427 165.479 66.208C165.885 65.9733 166.21 65.632 166.455 65.184C166.711 64.7253 166.839 64.192 166.839 63.584ZM173.075 65.808L171.139 70.224H169.955L171.091 65.808H173.075ZM184.601 68L182.041 63.552H180.649V68H178.825V56.88H182.665C183.518 56.88 184.238 57.0293 184.825 57.328C185.422 57.6267 185.865 58.0267 186.153 58.528C186.452 59.0293 186.601 59.5893 186.601 60.208C186.601 60.9333 186.388 61.5947 185.961 62.192C185.545 62.7787 184.9 63.1787 184.025 63.392L186.777 68H184.601ZM180.649 62.096H182.665C183.348 62.096 183.86 61.9253 184.201 61.584C184.553 61.2427 184.729 60.784 184.729 60.208C184.729 59.632 184.558 59.184 184.217 58.864C183.876 58.5333 183.358 58.368 182.665 58.368H180.649V62.096ZM197.014 63.376C197.014 63.7067 196.993 64.0053 196.95 64.272H190.214C190.268 64.976 190.529 65.5413 190.998 65.968C191.468 66.3947 192.044 66.608 192.726 66.608C193.708 66.608 194.401 66.1973 194.806 65.376H196.774C196.508 66.1867 196.022 66.8533 195.318 67.376C194.625 67.888 193.761 68.144 192.726 68.144C191.884 68.144 191.126 67.9573 190.454 67.584C189.793 67.2 189.27 66.6667 188.886 65.984C188.513 65.2907 188.326 64.4907 188.326 63.584C188.326 62.6773 188.508 61.8827 188.87 61.2C189.244 60.5067 189.761 59.9733 190.422 59.6C191.094 59.2267 191.862 59.04 192.726 59.04C193.558 59.04 194.3 59.2213 194.95 59.584C195.601 59.9467 196.108 60.4587 196.47 61.12C196.833 61.7707 197.014 62.5227 197.014 63.376ZM195.11 62.8C195.1 62.128 194.86 61.5893 194.39 61.184C193.921 60.7787 193.34 60.576 192.646 60.576C192.017 60.576 191.478 60.7787 191.03 61.184C190.582 61.5787 190.316 62.1173 190.23 62.8H195.11ZM200.937 60.672V65.552C200.937 65.8827 201.012 66.1227 201.161 66.272C201.321 66.4107 201.588 66.48 201.961 66.48H203.081V68H201.641C200.82 68 200.191 67.808 199.753 67.424C199.316 67.04 199.097 66.416 199.097 65.552V60.672H198.057V59.184H199.097V56.992H200.937V59.184H203.081V60.672H200.937ZM205.691 58.016C205.36 58.016 205.083 57.904 204.859 57.68C204.635 57.456 204.523 57.1787 204.523 56.848C204.523 56.5173 204.635 56.24 204.859 56.016C205.083 55.792 205.36 55.68 205.691 55.68C206.011 55.68 206.283 55.792 206.507 56.016C206.731 56.24 206.843 56.5173 206.843 56.848C206.843 57.1787 206.731 57.456 206.507 57.68C206.283 57.904 206.011 58.016 205.691 58.016ZM206.587 59.184V68H204.763V59.184H206.587ZM210.805 60.464C211.072 60.016 211.424 59.6693 211.861 59.424C212.309 59.168 212.837 59.04 213.445 59.04V60.928H212.981C212.267 60.928 211.723 61.1093 211.349 61.472C210.987 61.8347 210.805 62.464 210.805 63.36V68H208.981V59.184H210.805V60.464ZM223.202 63.376C223.202 63.7067 223.181 64.0053 223.138 64.272H216.402C216.455 64.976 216.717 65.5413 217.186 65.968C217.655 66.3947 218.231 66.608 218.914 66.608C219.895 66.608 220.589 66.1973 220.994 65.376H222.962C222.695 66.1867 222.21 66.8533 221.506 67.376C220.813 67.888 219.949 68.144 218.914 68.144C218.071 68.144 217.314 67.9573 216.642 67.584C215.981 67.2 215.458 66.6667 215.074 65.984C214.701 65.2907 214.514 64.4907 214.514 63.584C214.514 62.6773 214.695 61.8827 215.058 61.2C215.431 60.5067 215.949 59.9733 216.61 59.6C217.282 59.2267 218.05 59.04 218.914 59.04C219.746 59.04 220.487 59.2213 221.138 59.584C221.789 59.9467 222.295 60.4587 222.658 61.12C223.021 61.7707 223.202 62.5227 223.202 63.376ZM221.298 62.8C221.287 62.128 221.047 61.5893 220.578 61.184C220.109 60.7787 219.527 60.576 218.834 60.576C218.205 60.576 217.666 60.7787 217.218 61.184C216.77 61.5787 216.503 62.1173 216.418 62.8H221.298ZM234.929 68L232.369 63.552H230.977V68H229.153V56.88H232.993C233.846 56.88 234.566 57.0293 235.153 57.328C235.75 57.6267 236.193 58.0267 236.481 58.528C236.78 59.0293 236.929 59.5893 236.929 60.208C236.929 60.9333 236.716 61.5947 236.289 62.192C235.873 62.7787 235.228 63.1787 234.353 63.392L237.105 68H234.929ZM230.977 62.096H232.993C233.676 62.096 234.188 61.9253 234.529 61.584C234.881 61.2427 235.057 60.784 235.057 60.208C235.057 59.632 234.886 59.184 234.545 58.864C234.204 58.5333 233.686 58.368 232.993 58.368H230.977V62.096ZM240.191 58.016C239.86 58.016 239.583 57.904 239.359 57.68C239.135 57.456 239.023 57.1787 239.023 56.848C239.023 56.5173 239.135 56.24 239.359 56.016C239.583 55.792 239.86 55.68 240.191 55.68C240.511 55.68 240.783 55.792 241.007 56.016C241.231 56.24 241.343 56.5173 241.343 56.848C241.343 57.1787 241.231 57.456 241.007 57.68C240.783 57.904 240.511 58.016 240.191 58.016ZM241.087 59.184V68H239.263V59.184H241.087ZM247.033 59.04C247.716 59.04 248.319 59.1787 248.841 59.456C249.375 59.7227 249.791 60.0587 250.089 60.464V59.184H251.929V68.144C251.929 68.9547 251.759 69.6747 251.417 70.304C251.076 70.944 250.58 71.4453 249.929 71.808C249.289 72.1707 248.521 72.352 247.625 72.352C246.431 72.352 245.439 72.0693 244.649 71.504C243.86 70.9493 243.412 70.192 243.305 69.232H245.113C245.252 69.6907 245.545 70.0587 245.993 70.336C246.452 70.624 246.996 70.768 247.625 70.768C248.361 70.768 248.953 70.544 249.401 70.096C249.86 69.648 250.089 68.9973 250.089 68.144V66.672C249.78 67.088 249.359 67.44 248.825 67.728C248.303 68.0053 247.705 68.144 247.033 68.144C246.265 68.144 245.561 67.952 244.921 67.568C244.292 67.1733 243.791 66.6293 243.417 65.936C243.055 65.232 242.873 64.4373 242.873 63.552C242.873 62.6667 243.055 61.8827 243.417 61.2C243.791 60.5173 244.292 59.9893 244.921 59.616C245.561 59.232 246.265 59.04 247.033 59.04ZM250.089 63.584C250.089 62.976 249.961 62.448 249.705 62C249.46 61.552 249.135 61.2107 248.729 60.976C248.324 60.7413 247.887 60.624 247.417 60.624C246.948 60.624 246.511 60.7413 246.105 60.976C245.7 61.2 245.369 61.536 245.113 61.984C244.868 62.4213 244.745 62.944 244.745 63.552C244.745 64.16 244.868 64.6933 245.113 65.152C245.369 65.6107 245.7 65.9627 246.105 66.208C246.521 66.4427 246.959 66.56 247.417 66.56C247.887 66.56 248.324 66.4427 248.729 66.208C249.135 65.9733 249.46 65.632 249.705 65.184C249.961 64.7253 250.089 64.192 250.089 63.584ZM258.885 59.04C259.557 59.04 260.154 59.184 260.677 59.472C261.21 59.76 261.626 60.1867 261.925 60.752C262.234 61.3173 262.389 62 262.389 62.8V68H260.581V63.072C260.581 62.2827 260.384 61.68 259.989 61.264C259.594 60.8373 259.056 60.624 258.373 60.624C257.69 60.624 257.146 60.8373 256.741 61.264C256.346 61.68 256.149 62.2827 256.149 63.072V68H254.325V56.16H256.149V60.208C256.458 59.8347 256.848 59.5467 257.317 59.344C257.797 59.1413 258.32 59.04 258.885 59.04ZM266.844 60.672V65.552C266.844 65.8827 266.918 66.1227 267.068 66.272C267.228 66.4107 267.494 66.48 267.868 66.48H268.988V68H267.548C266.726 68 266.097 67.808 265.66 67.424C265.222 67.04 265.004 66.416 265.004 65.552V60.672H263.964V59.184H265.004V56.992H266.844V59.184H268.988V60.672H266.844Z" fill="#1A2E62"/>
<path d="M92.9564 23.9815C92.9564 25.3255 92.6324 26.5855 91.9844 27.7615C91.3604 28.9375 90.3644 29.8855 88.9964 30.6055C87.6524 31.3255 85.9484 31.6855 83.8844 31.6855H79.6724V41.3335H74.6324V16.2055H83.8844C85.8284 16.2055 87.4844 16.5415 88.8524 17.2135C90.2204 17.8855 91.2404 18.8095 91.9124 19.9855C92.6084 21.1615 92.9564 22.4935 92.9564 23.9815ZM83.6684 27.6175C85.0604 27.6175 86.0924 27.3055 86.7644 26.6815C87.4364 26.0335 87.7724 25.1335 87.7724 23.9815C87.7724 21.5335 86.4044 20.3095 83.6684 20.3095H79.6724V27.6175H83.6684ZM115.075 30.9295C115.075 31.6495 115.027 32.2975 114.931 32.8735H100.351C100.471 34.3135 100.975 35.4415 101.863 36.2575C102.751 37.0735 103.843 37.4815 105.139 37.4815C107.011 37.4815 108.343 36.6775 109.135 35.0695H114.571C113.995 36.9895 112.891 38.5735 111.259 39.8215C109.627 41.0455 107.623 41.6575 105.247 41.6575C103.327 41.6575 101.599 41.2375 100.063 40.3975C98.5508 39.5335 97.3628 38.3215 96.4988 36.7615C95.6588 35.2015 95.2388 33.4015 95.2388 31.3615C95.2388 29.2975 95.6588 27.4855 96.4988 25.9255C97.3388 24.3655 98.5148 23.1655 100.027 22.3255C101.539 21.4855 103.279 21.0655 105.247 21.0655C107.143 21.0655 108.835 21.4735 110.323 22.2895C111.835 23.1055 112.999 24.2695 113.815 25.7815C114.655 27.2695 115.075 28.9855 115.075 30.9295ZM109.855 29.4895C109.831 28.1935 109.363 27.1615 108.451 26.3935C107.539 25.6015 106.423 25.2055 105.103 25.2055C103.855 25.2055 102.799 25.5895 101.935 26.3575C101.095 27.1015 100.579 28.1455 100.387 29.4895H109.855ZM129.806 21.1015C132.182 21.1015 134.102 21.8575 135.566 23.3695C137.03 24.8575 137.762 26.9455 137.762 29.6335V41.3335H132.722V30.3175C132.722 28.7335 132.326 27.5215 131.534 26.6815C130.742 25.8175 129.662 25.3855 128.294 25.3855C126.902 25.3855 125.798 25.8175 124.982 26.6815C124.19 27.5215 123.794 28.7335 123.794 30.3175V41.3335H118.754V21.3895H123.794V23.8735C124.466 23.0095 125.318 22.3375 126.35 21.8575C127.406 21.3535 128.558 21.1015 129.806 21.1015ZM150.186 41.6575C148.554 41.6575 147.09 41.3695 145.794 40.7935C144.498 40.1935 143.466 39.3895 142.698 38.3815C141.954 37.3735 141.546 36.2575 141.474 35.0335H146.55C146.646 35.8015 147.018 36.4375 147.666 36.9415C148.338 37.4455 149.166 37.6975 150.15 37.6975C151.11 37.6975 151.854 37.5055 152.382 37.1215C152.934 36.7375 153.21 36.2455 153.21 35.6455C153.21 34.9975 152.874 34.5175 152.202 34.2055C151.554 33.8695 150.51 33.5095 149.07 33.1255C147.582 32.7655 146.358 32.3935 145.398 32.0095C144.462 31.6255 143.646 31.0375 142.95 30.2455C142.278 29.4535 141.942 28.3855 141.942 27.0415C141.942 25.9375 142.254 24.9295 142.878 24.0175C143.526 23.1055 144.438 22.3855 145.614 21.8575C146.814 21.3295 148.218 21.0655 149.826 21.0655C152.202 21.0655 154.098 21.6655 155.514 22.8655C156.93 24.0415 157.71 25.6375 157.854 27.6535H153.03C152.958 26.8615 152.622 26.2375 152.022 25.7815C151.446 25.3015 150.666 25.0615 149.682 25.0615C148.77 25.0615 148.062 25.2295 147.558 25.5655C147.078 25.9015 146.838 26.3695 146.838 26.9695C146.838 27.6415 147.174 28.1575 147.846 28.5175C148.518 28.8535 149.562 29.2015 150.978 29.5615C152.418 29.9215 153.606 30.2935 154.542 30.6775C155.478 31.0615 156.282 31.6615 156.954 32.4775C157.65 33.2695 158.01 34.3255 158.034 35.6455C158.034 36.7975 157.71 37.8295 157.062 38.7415C156.438 39.6535 155.526 40.3735 154.326 40.9015C153.15 41.4055 151.77 41.6575 150.186 41.6575ZM164.728 19.0135C163.84 19.0135 163.096 18.7375 162.496 18.1855C161.92 17.6095 161.632 16.9015 161.632 16.0615C161.632 15.2215 161.92 14.5255 162.496 13.9735C163.096 13.3975 163.84 13.1095 164.728 13.1095C165.616 13.1095 166.348 13.3975 166.924 13.9735C167.524 14.5255 167.824 15.2215 167.824 16.0615C167.824 16.9015 167.524 17.6095 166.924 18.1855C166.348 18.7375 165.616 19.0135 164.728 19.0135ZM167.212 21.3895V41.3335H162.172V21.3895H167.212ZM181.047 41.6575C179.127 41.6575 177.399 41.2375 175.863 40.3975C174.327 39.5335 173.115 38.3215 172.227 36.7615C171.363 35.2015 170.931 33.4015 170.931 31.3615C170.931 29.3215 171.375 27.5215 172.263 25.9615C173.175 24.4015 174.411 23.2015 175.971 22.3615C177.531 21.4975 179.271 21.0655 181.191 21.0655C183.111 21.0655 184.851 21.4975 186.411 22.3615C187.971 23.2015 189.195 24.4015 190.083 25.9615C190.995 27.5215 191.451 29.3215 191.451 31.3615C191.451 33.4015 190.983 35.2015 190.047 36.7615C189.135 38.3215 187.887 39.5335 186.303 40.3975C184.743 41.2375 182.991 41.6575 181.047 41.6575ZM181.047 37.2655C181.959 37.2655 182.811 37.0495 183.603 36.6175C184.419 36.1615 185.067 35.4895 185.547 34.6015C186.027 33.7135 186.267 32.6335 186.267 31.3615C186.267 29.4655 185.763 28.0135 184.755 27.0055C183.771 25.9735 182.559 25.4575 181.119 25.4575C179.679 25.4575 178.467 25.9735 177.483 27.0055C176.523 28.0135 176.043 29.4655 176.043 31.3615C176.043 33.2575 176.511 34.7215 177.447 35.7535C178.407 36.7615 179.607 37.2655 181.047 37.2655ZM206.2 21.1015C208.576 21.1015 210.496 21.8575 211.96 23.3695C213.424 24.8575 214.156 26.9455 214.156 29.6335V41.3335H209.116V30.3175C209.116 28.7335 208.72 27.5215 207.928 26.6815C207.136 25.8175 206.056 25.3855 204.688 25.3855C203.296 25.3855 202.192 25.8175 201.376 26.6815C200.584 27.5215 200.188 28.7335 200.188 30.3175V41.3335H195.148V21.3895H200.188V23.8735C200.86 23.0095 201.712 22.3375 202.744 21.8575C203.8 21.3535 204.952 21.1015 206.2 21.1015ZM233.205 28.4455C234.621 28.7095 235.785 29.4175 236.697 30.5695C237.609 31.7215 238.065 33.0415 238.065 34.5295C238.065 35.8735 237.729 37.0615 237.057 38.0935C236.409 39.1015 235.461 39.8935 234.213 40.4695C232.965 41.0455 231.489 41.3335 229.785 41.3335H218.949V16.2055H229.317C231.021 16.2055 232.485 16.4815 233.709 17.0335C234.957 17.5855 235.893 18.3535 236.517 19.3375C237.165 20.3215 237.489 21.4375 237.489 22.6855C237.489 24.1495 237.093 25.3735 236.301 26.3575C235.533 27.3415 234.501 28.0375 233.205 28.4455ZM223.989 26.5735H228.597C229.797 26.5735 230.721 26.3095 231.369 25.7815C232.017 25.2295 232.341 24.4495 232.341 23.4415C232.341 22.4335 232.017 21.6535 231.369 21.1015C230.721 20.5495 229.797 20.2735 228.597 20.2735H223.989V26.5735ZM229.065 37.2295C230.289 37.2295 231.237 36.9415 231.909 36.3655C232.605 35.7895 232.953 34.9735 232.953 33.9175C232.953 32.8375 232.593 31.9975 231.873 31.3975C231.153 30.7735 230.181 30.4615 228.957 30.4615H223.989V37.2295H229.065ZM250.938 41.6575C249.018 41.6575 247.29 41.2375 245.754 40.3975C244.218 39.5335 243.006 38.3215 242.118 36.7615C241.254 35.2015 240.822 33.4015 240.822 31.3615C240.822 29.3215 241.266 27.5215 242.154 25.9615C243.066 24.4015 244.302 23.2015 245.862 22.3615C247.422 21.4975 249.162 21.0655 251.082 21.0655C253.002 21.0655 254.742 21.4975 256.302 22.3615C257.862 23.2015 259.086 24.4015 259.974 25.9615C260.886 27.5215 261.342 29.3215 261.342 31.3615C261.342 33.4015 260.874 35.2015 259.938 36.7615C259.026 38.3215 257.778 39.5335 256.194 40.3975C254.634 41.2375 252.882 41.6575 250.938 41.6575ZM250.938 37.2655C251.85 37.2655 252.702 37.0495 253.494 36.6175C254.31 36.1615 254.958 35.4895 255.438 34.6015C255.918 33.7135 256.158 32.6335 256.158 31.3615C256.158 29.4655 255.654 28.0135 254.646 27.0055C253.662 25.9735 252.45 25.4575 251.01 25.4575C249.57 25.4575 248.358 25.9735 247.374 27.0055C246.414 28.0135 245.934 29.4655 245.934 31.3615C245.934 33.2575 246.402 34.7215 247.338 35.7535C248.298 36.7615 249.498 37.2655 250.938 37.2655ZM276.055 41.3335L271.951 35.1415L268.315 41.3335H262.915L269.431 31.3255L262.843 21.3895H268.531L272.599 27.5455L276.271 21.3895H281.671L275.119 31.3255L281.743 41.3335H276.055Z" fill="#1A2E62"/>
<path d="M25.9992 0.333496L0.000213623 15.3911L4.25266 17.8578L17.3278 10.3366L39.0441 22.9426L52.0133 15.3306L25.9992 0.333496ZM38.9836 17.8276L21.6559 7.80934L25.9841 5.38801L43.4025 15.3457L38.9836 17.8276Z" fill="#1A2E62"/>
<path d="M0 46.126L0.0302684 16.0864L4.29785 18.5229L4.31299 33.6108L26.0898 46.1109L25.9839 61.1533L0 46.126ZM21.6406 48.6079L4.31299 38.6199L4.37352 43.5836L21.7163 53.6775L21.6406 48.6079Z" fill="#1A2E62"/>
<path d="M26.8912 30.6603V60.715L52.1487 46.1567V16.0415L26.8912 30.6603Z" fill="#1A2E62"/>
<path d="M26.8912 60.7145V47.3367L35.1994 38.3778L42.0397 39.8911L52.1487 20.3994V46.1563L26.8912 60.7145Z" fill="#1E96FC"/>
<path d="M26.8912 60.7146V52.7998L36.3193 42.4941L43.4016 44.3555L52.1487 27.1035V46.1563L26.8912 60.7146Z" fill="#7FC4FF"/>
<path d="M26.8912 60.7146V57.8998L37.6813 46.1564L44.8847 47.9572L52.1487 33.6865V46.1564L26.8912 60.7146Z" fill="#C1E3FF"/>
</svg>
