<svg width="231" height="83" viewBox="0 0 231 83" fill="none" xmlns="http://www.w3.org/2000/svg">
<path d="M111.89 9.3666e-05C114.217 -0.00920815 116.496 0.674495 118.436 1.96474C120.377 3.25499 121.893 5.09384 122.792 7.24875C123.691 9.40366 123.934 11.7779 123.489 14.0711C123.044 16.3643 121.931 18.4736 120.292 20.1322C118.653 21.7909 116.56 22.9243 114.279 23.3892C111.997 23.8542 109.63 23.6297 107.476 22.7443C105.322 21.8588 103.478 20.3522 102.177 18.4148C100.876 16.4774 100.176 14.1963 100.167 11.86C100.167 8.7308 101.399 5.72839 103.595 3.50692C105.79 1.28545 108.772 0.0249613 111.89 9.3666e-05" fill="#F99D1C"/>
<path d="M28.9544 81.4812H0V72.0562H2.14419C3.55278 72.0562 4.03796 71.255 4.03796 69.9512V40.8435C4.03796 39.524 3.55278 38.7386 2.14419 38.7386H0V29.125H26.1059V37.2777C29.8309 32.0153 34.6983 28.0254 42.4612 28.0254C52.744 28.0254 56.1872 32.1567 57.3767 38.2673C59.0283 35.1753 61.4837 32.5902 64.482 30.7868C67.4804 28.9835 70.9095 28.0292 74.405 28.0254C87.4423 28.0254 89.2265 34.3088 89.2265 43.6396V69.9827C89.2265 71.2865 89.8056 72.0876 91.4176 72.0876H93.0767V81.5127H64.6231V72.0876H65.39C66.7047 72.0876 67.2838 71.2865 67.2838 69.9827V46.043C67.2838 41.7232 65.8126 40.3408 62.8076 40.3408C58.8322 40.3408 57.5332 43.6396 57.5332 48.7291V69.8884C57.5332 71.2865 58.1279 72.0876 59.4426 72.0876H60.6164V81.5127H32.9454V72.0876H33.7436C35.0113 72.0876 35.6061 71.2865 35.6061 69.9827V46.043C35.6061 41.7232 34.1349 40.3408 31.1299 40.3408C27.1545 40.3408 25.8711 43.6396 25.8711 48.7291V69.8884C25.8711 71.2865 26.372 72.0876 27.7649 72.0876H28.9544V81.4812Z" fill="#F99D1C"/>
<path d="M101.104 40.8415C101.104 39.522 100.619 38.7366 99.2106 38.7366H97.0352V29.123H122.938V69.965C122.938 71.3631 123.438 72.1642 124.831 72.1642H126.772V81.5893H97.0352V72.1642H99.1793C100.588 72.1642 101.073 71.3631 101.073 70.0593L101.104 40.8415Z" fill="#F99D1C"/>
<path d="M160.235 81.4794H131.28V72.0544H133.424C134.817 72.0544 135.318 71.2532 135.318 69.9494V40.8417C135.318 39.5222 134.817 38.7368 133.424 38.7368H131.28V29.1232H157.151V37.3701C159.049 34.4857 161.632 32.1208 164.667 30.489C167.703 28.8573 171.096 28.01 174.54 28.0236C186.607 28.0236 189.22 34.307 189.22 43.6378V69.9809C189.22 71.2847 189.706 72.0858 191.302 72.0858H193.055V81.5109H164.21V72.0858H165.4C166.683 72.0858 167.293 71.2847 167.293 69.9809V46.0412C167.293 41.7214 165.728 40.339 162.817 40.339C159.906 40.339 157.151 42.6325 157.151 47.722V69.8866C157.112 70.1793 157.139 70.4772 157.231 70.7578C157.323 71.0384 157.477 71.2943 157.682 71.5061C157.888 71.718 158.138 71.8803 158.415 71.9807C158.691 72.0811 158.987 72.1171 159.28 72.0858H160.235V81.4794Z" fill="#F99D1C"/>
<path d="M192.508 29.1234L200.208 28.825L201.132 16.918H220.68V29.1234H229.898V38.9412H220.68V62.661C220.68 68.8501 221.869 70.8608 228.646 70.8608H230.383V81.4797C226.085 81.9531 221.764 82.1839 217.44 82.1709C205.091 82.1709 198.846 78.3223 198.846 68.0333V38.9412H192.586L192.508 29.1234Z" fill="#F99D1C"/>
</svg>
