<svg width="32" height="32" viewBox="0 0 32 32" fill="none" xmlns="http://www.w3.org/2000/svg">
<g clip-path="url(#clip0_1232_552)">
<path d="M5.14894 7.68625L4.81226 8.96799H6.24365L5.14894 7.68625Z" fill="#1E96FC"/>
<path d="M7.85643 10.8563H5.45895L4.79933 13.2491H9.90002L7.85643 10.8563Z" fill="#1E96FC"/>
<path d="M10.8451 14.3555C10.639 14.6008 10.3871 14.8097 10.0892 14.9822C9.60636 15.2581 8.98985 15.3961 8.23969 15.3961H5.16147L5.1744 17.4654L11.5507 24.9929H15.4955V24.8118L9.71414 17.9181C11.0075 17.7457 12.0508 17.4008 12.8441 16.8834C12.8785 16.861 12.9124 16.8383 12.9459 16.8154L10.8451 14.3555Z" fill="#1E96FC"/>
<path d="M14.2068 15.5448C14.344 15.3351 14.4631 15.1131 14.5643 14.8787C14.7821 14.3807 14.9345 13.8375 15.0213 13.2491H16.957L17.6037 10.8563H15.0226C14.9081 10.1113 14.6777 9.44735 14.3315 8.86452C14.2698 8.75795 14.2044 8.65448 14.1351 8.55411H16.957L17.6166 6.16138H6.19256L8.59982 8.97992C9.2278 9.0188 9.74582 9.15279 10.1539 9.38187C10.6454 9.65779 11.0032 10.0415 11.2274 10.533C11.2758 10.6373 11.3191 10.7451 11.357 10.8563H10.2024L14.2068 15.5448Z" fill="#1E96FC"/>
<path d="M3.2041 8.1083L4.56036 6.94995L18.5377 23.3153L17.1814 24.4737L3.2041 8.1083Z" fill="#1E96FC"/>
</g>
<defs>
<clipPath id="clip0_1232_552">
<rect width="31.3836" height="31.3836" fill="white" transform="translate(0 0.456055)"/>
</clipPath>
</defs>
</svg>
