<svg width="32" height="28" viewBox="0 0 32 28" fill="none" xmlns="http://www.w3.org/2000/svg">
<rect width="32" height="27.6154" rx="5.74359" fill="#1A2E62"/>
<mask id="mask0_4001_16775" style="mask-type:alpha" maskUnits="userSpaceOnUse" x="4" y="7" width="25" height="10">
<path d="M4.24299 15.9231V7.82028H5.7941L10.5748 13.6543H9.82236V7.82028H11.6744V15.9231H10.1349L5.34266 10.0891H6.09506V15.9231H4.24299ZM13.5915 15.9231V7.82028H17.0989C17.8243 7.82028 18.4494 7.93989 18.9741 8.17912C19.4989 8.41063 19.904 8.74632 20.1895 9.18618C20.4751 9.62605 20.6178 10.1508 20.6178 10.7604C20.6178 11.3624 20.4751 11.8833 20.1895 12.3231C19.904 12.763 19.4989 13.1025 18.9741 13.3418C18.4494 13.5733 17.8243 13.689 17.0989 13.689H14.6333L15.4667 12.844V15.9231H13.5915ZM15.4667 13.0524L14.6333 12.1611H16.9947C17.5735 12.1611 18.0056 12.0376 18.2912 11.7907C18.5767 11.5437 18.7194 11.2003 18.7194 10.7604C18.7194 10.3129 18.5767 9.9656 18.2912 9.71865C18.0056 9.47171 17.5735 9.34824 16.9947 9.34824H14.6333L15.4667 8.45693V13.0524ZM24.732 16.062C24.0838 16.062 23.4625 15.9771 22.8683 15.8073C22.2741 15.6299 21.7957 15.4022 21.433 15.1244L22.0696 13.7122C22.4169 13.9591 22.8259 14.1636 23.2966 14.3257C23.7751 14.48 24.2574 14.5572 24.7436 14.5572C25.114 14.5572 25.4111 14.5225 25.6349 14.453C25.8664 14.3758 26.0362 14.2717 26.1442 14.1405C26.2522 14.0093 26.3062 13.8588 26.3062 13.689C26.3062 13.473 26.2214 13.3032 26.0516 13.1797C25.8818 13.0485 25.658 12.9443 25.3802 12.8672C25.1024 12.7823 24.7937 12.7051 24.4542 12.6357C24.1223 12.5585 23.7867 12.4659 23.4471 12.3579C23.1153 12.2498 22.8105 12.1109 22.5327 11.9411C22.2548 11.7714 22.0272 11.5476 21.8497 11.2698C21.6799 10.992 21.595 10.637 21.595 10.2048C21.595 9.7418 21.7185 9.32123 21.9655 8.9431C22.2201 8.55725 22.5982 8.25243 23.0998 8.02864C23.6092 7.79713 24.2458 7.68137 25.0098 7.68137C25.5191 7.68137 26.0207 7.74311 26.5146 7.86658C27.0085 7.98234 27.4445 8.15983 27.8226 8.39905L27.2439 9.82283C26.8657 9.60676 26.4876 9.44856 26.1095 9.34824C25.7313 9.2402 25.3609 9.18618 24.9982 9.18618C24.6355 9.18618 24.3384 9.22863 24.1069 9.31351C23.8754 9.3984 23.7095 9.5103 23.6092 9.6492C23.5088 9.78039 23.4587 9.93473 23.4587 10.1122C23.4587 10.3206 23.5436 10.4904 23.7133 10.6215C23.8831 10.745 24.1069 10.8453 24.3847 10.9225C24.6625 10.9997 24.9674 11.0768 25.2992 11.154C25.6387 11.2312 25.9744 11.3199 26.3062 11.4202C26.6458 11.5206 26.9545 11.6556 27.2323 11.8254C27.5101 11.9952 27.7339 12.219 27.9037 12.4968C28.0812 12.7746 28.1699 13.1257 28.1699 13.5501C28.1699 14.0054 28.0426 14.4221 27.7879 14.8003C27.5332 15.1784 27.1513 15.4832 26.6419 15.7147C26.1403 15.9462 25.5037 16.062 24.732 16.062Z" fill="black"/>
</mask>
<g mask="url(#mask0_4001_16775)">
<rect x="0.80127" y="-2.51807" width="30.5923" height="28.9386" fill="url(#paint0_linear_4001_16775)"/>
</g>
<mask id="mask1_4001_16775" style="mask-type:alpha" maskUnits="userSpaceOnUse" x="8" y="18" width="16" height="5">
<path d="M9.08758 22.72V20.0106H8.01908V19.3809H10.9288V20.0106H9.86034V22.72H9.08758ZM11.2922 22.72V20.1537H12.0363V22.72H11.2922ZM11.6642 19.7959C11.5275 19.7959 11.4162 19.7561 11.3303 19.6766C11.2445 19.5971 11.2015 19.4986 11.2015 19.3809C11.2015 19.2632 11.2445 19.1647 11.3303 19.0852C11.4162 19.0057 11.5275 18.9659 11.6642 18.9659C11.801 18.9659 11.9123 19.0041 11.9981 19.0804C12.084 19.1535 12.1269 19.2489 12.1269 19.3666C12.1269 19.4906 12.084 19.594 11.9981 19.6766C11.9154 19.7561 11.8041 19.7959 11.6642 19.7959ZM14.0005 22.7581C13.708 22.7581 13.4504 22.7009 13.2278 22.5864C13.0083 22.4719 12.8382 22.3161 12.7174 22.1189C12.5965 21.9186 12.5361 21.6912 12.5361 21.4368C12.5361 21.1792 12.5949 20.9519 12.7126 20.7547C12.8334 20.5543 12.9972 20.3985 13.2039 20.2872C13.4106 20.1727 13.6444 20.1155 13.9051 20.1155C14.1564 20.1155 14.3821 20.1696 14.5825 20.2777C14.786 20.3826 14.9466 20.5353 15.0643 20.7356C15.1819 20.9328 15.2408 21.1697 15.2408 21.4464C15.2408 21.475 15.2392 21.5084 15.236 21.5465C15.2328 21.5815 15.2296 21.6149 15.2264 21.6467H13.1419V21.2126H14.8353L14.5491 21.3414C14.5491 21.2078 14.5221 21.0918 14.468 20.9932C14.4139 20.8946 14.3392 20.8183 14.2438 20.7642C14.1484 20.707 14.0371 20.6784 13.9099 20.6784C13.7827 20.6784 13.6698 20.707 13.5712 20.7642C13.4758 20.8183 13.4011 20.8962 13.347 20.998C13.293 21.0965 13.2659 21.2142 13.2659 21.351V21.4654C13.2659 21.6054 13.2961 21.7294 13.3566 21.8375C13.4202 21.9424 13.5076 22.0235 13.6189 22.0808C13.7334 22.1348 13.867 22.1619 14.0196 22.1619C14.1564 22.1619 14.2756 22.1412 14.3774 22.0999C14.4823 22.0585 14.5777 21.9965 14.6636 21.9138L15.0595 22.3431C14.9418 22.4767 14.794 22.58 14.6159 22.6532C14.4378 22.7232 14.2327 22.7581 14.0005 22.7581ZM15.7362 22.72V20.1537H16.4469V20.8787L16.3467 20.6688C16.4231 20.4876 16.5455 20.3508 16.714 20.2586C16.8826 20.1632 17.0877 20.1155 17.3294 20.1155V20.8024C17.2976 20.7992 17.269 20.7976 17.2435 20.7976C17.2181 20.7944 17.1911 20.7928 17.1624 20.7928C16.9589 20.7928 16.7935 20.8517 16.6663 20.9693C16.5423 21.0838 16.4803 21.2635 16.4803 21.5084V22.72H15.7362ZM19.046 21.6753V21.0791H20.3959V21.6753H19.046ZM22.3848 22.72V19.3809H23.1576V22.72H22.3848Z" fill="black"/>
</mask>
<g mask="url(#mask1_4001_16775)">
<rect x="2.03857" y="12.8352" width="26.9231" height="11.5385" fill="url(#paint1_linear_4001_16775)"/>
</g>
<defs>
<linearGradient id="paint0_linear_4001_16775" x1="46.004" y1="7.51399" x2="-24.993" y2="25.1677" gradientUnits="userSpaceOnUse">
<stop offset="0.0895831" stop-color="white" stop-opacity="0.41"/>
<stop offset="0.501041" stop-color="white"/>
<stop offset="0.797916" stop-color="white" stop-opacity="0.4"/>
</linearGradient>
<linearGradient id="paint1_linear_4001_16775" x1="41.8197" y1="16.8352" x2="-9.16709" y2="44.8184" gradientUnits="userSpaceOnUse">
<stop offset="0.0895831" stop-color="white" stop-opacity="0.41"/>
<stop offset="0.501041" stop-color="white"/>
<stop offset="0.797916" stop-color="white" stop-opacity="0.4"/>
</linearGradient>
</defs>
</svg>
