<svg width="209" height="48" viewBox="0 0 209 48" fill="none" xmlns="http://www.w3.org/2000/svg">
<path d="M66.5343 22.0509C66.5343 23.0589 66.2913 24.0039 65.8053 24.8859C65.3373 25.7679 64.5903 26.4789 63.5643 27.0189C62.5563 27.5589 61.2783 27.8289 59.7303 27.8289H56.5713V35.0649H52.7913V16.2189H59.7303C61.1883 16.2189 62.4303 16.4709 63.4563 16.9749C64.4823 17.4789 65.2473 18.1719 65.7513 19.0539C66.2733 19.9359 66.5343 20.9349 66.5343 22.0509ZM59.5683 24.7779C60.6123 24.7779 61.3863 24.5439 61.8903 24.0759C62.3943 23.5899 62.6463 22.9149 62.6463 22.0509C62.6463 20.2149 61.6203 19.2969 59.5683 19.2969H56.5713V24.7779H59.5683ZM83.1231 27.2619C83.1231 27.8019 83.0871 28.2879 83.0151 28.7199H72.0801C72.1701 29.7999 72.5481 30.6459 73.2141 31.2579C73.8801 31.8699 74.6991 32.1759 75.6711 32.1759C77.0751 32.1759 78.0741 31.5729 78.6681 30.3669H82.7451C82.3131 31.8069 81.4851 32.9949 80.2611 33.9309C79.0371 34.8489 77.5341 35.3079 75.7521 35.3079C74.3121 35.3079 73.0161 34.9929 71.8641 34.3629C70.7301 33.7149 69.8391 32.8059 69.1911 31.6359C68.5611 30.4659 68.2461 29.1159 68.2461 27.5859C68.2461 26.0379 68.5611 24.6789 69.1911 23.5089C69.8211 22.3389 70.7031 21.4389 71.8371 20.8089C72.9711 20.1789 74.2761 19.8639 75.7521 19.8639C77.1741 19.8639 78.4431 20.1699 79.5591 20.7819C80.6931 21.3939 81.5661 22.2669 82.1781 23.4009C82.8081 24.5169 83.1231 25.8039 83.1231 27.2619ZM79.2081 26.1819C79.1901 25.2099 78.8391 24.4359 78.1551 23.8599C77.4711 23.2659 76.6341 22.9689 75.6441 22.9689C74.7081 22.9689 73.9161 23.2569 73.2681 23.8329C72.6381 24.3909 72.2511 25.1739 72.1071 26.1819H79.2081ZM94.1712 19.8909C95.9532 19.8909 97.3932 20.4579 98.4912 21.5919C99.5892 22.7079 100.138 24.2739 100.138 26.2899V35.0649H96.3582V26.8029C96.3582 25.6149 96.0612 24.7059 95.4672 24.0759C94.8732 23.4279 94.0632 23.1039 93.0372 23.1039C91.9932 23.1039 91.1652 23.4279 90.5532 24.0759C89.9592 24.7059 89.6622 25.6149 89.6622 26.8029V35.0649H85.8822V20.1069H89.6622V21.9699C90.1662 21.3219 90.8052 20.8179 91.5792 20.4579C92.3712 20.0799 93.2352 19.8909 94.1712 19.8909ZM109.457 35.3079C108.233 35.3079 107.135 35.0919 106.163 34.6599C105.191 34.2099 104.417 33.6069 103.841 32.8509C103.283 32.0949 102.977 31.2579 102.923 30.3399H106.73C106.802 30.9159 107.081 31.3929 107.567 31.7709C108.071 32.1489 108.692 32.3379 109.43 32.3379C110.15 32.3379 110.708 32.1939 111.104 31.9059C111.518 31.6179 111.725 31.2489 111.725 30.7989C111.725 30.3129 111.473 29.9529 110.969 29.7189C110.483 29.4669 109.7 29.1969 108.62 28.9089C107.504 28.6389 106.586 28.3599 105.866 28.0719C105.164 27.7839 104.552 27.3429 104.03 26.7489C103.526 26.1549 103.274 25.3539 103.274 24.3459C103.274 23.5179 103.508 22.7619 103.976 22.0779C104.462 21.3939 105.146 20.8539 106.028 20.4579C106.928 20.0619 107.981 19.8639 109.187 19.8639C110.969 19.8639 112.391 20.3139 113.453 21.2139C114.515 22.0959 115.1 23.2929 115.208 24.8049H111.59C111.536 24.2109 111.284 23.7429 110.834 23.4009C110.402 23.0409 109.817 22.8609 109.079 22.8609C108.395 22.8609 107.864 22.9869 107.486 23.2389C107.126 23.4909 106.946 23.8419 106.946 24.2919C106.946 24.7959 107.198 25.1829 107.702 25.4529C108.206 25.7049 108.989 25.9659 110.051 26.2359C111.131 26.5059 112.022 26.7849 112.724 27.0729C113.426 27.3609 114.029 27.8109 114.533 28.4229C115.055 29.0169 115.325 29.8089 115.343 30.7989C115.343 31.6629 115.1 32.4369 114.614 33.1209C114.146 33.8049 113.462 34.3449 112.562 34.7409C111.68 35.1189 110.645 35.3079 109.457 35.3079ZM120.363 18.3249C119.697 18.3249 119.139 18.1179 118.689 17.7039C118.257 17.2719 118.041 16.7409 118.041 16.1109C118.041 15.4809 118.257 14.9589 118.689 14.5449C119.139 14.1129 119.697 13.8969 120.363 13.8969C121.029 13.8969 121.578 14.1129 122.01 14.5449C122.46 14.9589 122.685 15.4809 122.685 16.1109C122.685 16.7409 122.46 17.2719 122.01 17.7039C121.578 18.1179 121.029 18.3249 120.363 18.3249ZM122.226 20.1069V35.0649H118.446V20.1069H122.226ZM132.602 35.3079C131.162 35.3079 129.866 34.9929 128.714 34.3629C127.562 33.7149 126.653 32.8059 125.987 31.6359C125.339 30.4659 125.015 29.1159 125.015 27.5859C125.015 26.0559 125.348 24.7059 126.014 23.5359C126.698 22.3659 127.625 21.4659 128.795 20.8359C129.965 20.1879 131.27 19.8639 132.71 19.8639C134.15 19.8639 135.455 20.1879 136.625 20.8359C137.795 21.4659 138.713 22.3659 139.379 23.5359C140.063 24.7059 140.405 26.0559 140.405 27.5859C140.405 29.1159 140.054 30.4659 139.352 31.6359C138.668 32.8059 137.732 33.7149 136.544 34.3629C135.374 34.9929 134.06 35.3079 132.602 35.3079ZM132.602 32.0139C133.286 32.0139 133.925 31.8519 134.519 31.5279C135.131 31.1859 135.617 30.6819 135.977 30.0159C136.337 29.3499 136.517 28.5399 136.517 27.5859C136.517 26.1639 136.139 25.0749 135.383 24.3189C134.645 23.5449 133.736 23.1579 132.656 23.1579C131.576 23.1579 130.667 23.5449 129.929 24.3189C129.209 25.0749 128.849 26.1639 128.849 27.5859C128.849 29.0079 129.2 30.1059 129.902 30.8799C130.622 31.6359 131.522 32.0139 132.602 32.0139ZM151.467 19.8909C153.249 19.8909 154.689 20.4579 155.787 21.5919C156.885 22.7079 157.434 24.2739 157.434 26.2899V35.0649H153.654V26.8029C153.654 25.6149 153.357 24.7059 152.763 24.0759C152.169 23.4279 151.359 23.1039 150.333 23.1039C149.289 23.1039 148.461 23.4279 147.849 24.0759C147.255 24.7059 146.958 25.6149 146.958 26.8029V35.0649H143.178V20.1069H146.958V21.9699C147.462 21.3219 148.101 20.8179 148.875 20.4579C149.667 20.0799 150.531 19.8909 151.467 19.8909ZM171.721 25.3989C172.783 25.5969 173.656 26.1279 174.34 26.9919C175.024 27.8559 175.366 28.8459 175.366 29.9619C175.366 30.9699 175.114 31.8609 174.61 32.6349C174.124 33.3909 173.413 33.9849 172.477 34.4169C171.541 34.8489 170.434 35.0649 169.156 35.0649H161.029V16.2189H168.805C170.083 16.2189 171.181 16.4259 172.099 16.8399C173.035 17.2539 173.737 17.8299 174.205 18.5679C174.691 19.3059 174.934 20.1429 174.934 21.0789C174.934 22.1769 174.637 23.0949 174.043 23.8329C173.467 24.5709 172.693 25.0929 171.721 25.3989ZM164.809 23.9949H168.265C169.165 23.9949 169.858 23.7969 170.344 23.4009C170.83 22.9869 171.073 22.4019 171.073 21.6459C171.073 20.8899 170.83 20.3049 170.344 19.8909C169.858 19.4769 169.165 19.2699 168.265 19.2699H164.809V23.9949ZM168.616 31.9869C169.534 31.9869 170.245 31.7709 170.749 31.3389C171.271 30.9069 171.532 30.2949 171.532 29.5029C171.532 28.6929 171.262 28.0629 170.722 27.6129C170.182 27.1449 169.453 26.9109 168.535 26.9109H164.809V31.9869H168.616ZM185.02 35.3079C183.58 35.3079 182.284 34.9929 181.132 34.3629C179.98 33.7149 179.071 32.8059 178.405 31.6359C177.757 30.4659 177.433 29.1159 177.433 27.5859C177.433 26.0559 177.766 24.7059 178.432 23.5359C179.116 22.3659 180.043 21.4659 181.213 20.8359C182.383 20.1879 183.688 19.8639 185.128 19.8639C186.568 19.8639 187.873 20.1879 189.043 20.8359C190.213 21.4659 191.131 22.3659 191.797 23.5359C192.481 24.7059 192.823 26.0559 192.823 27.5859C192.823 29.1159 192.472 30.4659 191.77 31.6359C191.086 32.8059 190.15 33.7149 188.962 34.3629C187.792 34.9929 186.478 35.3079 185.02 35.3079ZM185.02 32.0139C185.704 32.0139 186.343 31.8519 186.937 31.5279C187.549 31.1859 188.035 30.6819 188.395 30.0159C188.755 29.3499 188.935 28.5399 188.935 27.5859C188.935 26.1639 188.557 25.0749 187.801 24.3189C187.063 23.5449 186.154 23.1579 185.074 23.1579C183.994 23.1579 183.085 23.5449 182.347 24.3189C181.627 25.0749 181.267 26.1639 181.267 27.5859C181.267 29.0079 181.618 30.1059 182.32 30.8799C183.04 31.6359 183.94 32.0139 185.02 32.0139ZM203.858 35.0649L200.78 30.4209L198.053 35.0649H194.003L198.89 27.5589L193.949 20.1069H198.215L201.266 24.7239L204.02 20.1069H208.07L203.156 27.5589L208.124 35.0649H203.858Z" fill="#1A2E62"/>
<path d="M20.9394 0L0.000244141 11.8836L3.42509 13.8304L13.9556 7.89456L31.4455 17.8434L41.8907 11.8359L20.9394 0ZM31.3967 13.8065L17.4414 5.90002L20.9272 3.98908L34.9557 11.8478L31.3967 13.8065Z" fill="#1A2E62"/>
<path d="M0 36.1402L0.0243776 12.4327L3.46141 14.3556L3.4736 26.2631L21.0122 36.1283L20.9269 48L0 36.1402ZM17.429 38.0989L3.4736 30.2163L3.52235 34.1338L17.4899 42.1L17.429 38.0989Z" fill="#1A2E62"/>
<path d="M21.6581 23.9342V47.6537L42 36.1642V12.3969L21.6581 23.9342Z" fill="#1A2E62"/>
<path d="M21.6581 47.6534V37.0955L28.3493 30.025L33.8583 31.2194L42 15.8363V36.1639L21.6581 47.6534Z" fill="#1E96FC"/>
<path d="M21.6581 47.654V41.4077L29.2512 33.2742L34.9553 34.7433L42 21.1278V36.1645L21.6581 47.654Z" fill="#7FC4FF"/>
<path d="M21.6581 47.6535V45.4321L30.3482 36.164L36.1497 37.5853L42 26.3227V36.164L21.6581 47.6535Z" fill="#C1E3FF"/>
</svg>
