<svg width="32" height="28" viewBox="0 0 32 28" fill="none" xmlns="http://www.w3.org/2000/svg">
<rect width="32" height="27.6154" rx="5.74359" fill="#1A2E62"/>
<mask id="mask0_1_478" style="mask-type:alpha" maskUnits="userSpaceOnUse" x="4" y="9" width="24" height="10">
<path d="M4.17969 18.0256V9.57999H7.83542C8.5915 9.57999 9.24302 9.70466 9.78997 9.95401C10.3369 10.1953 10.7592 10.5452 11.0568 11.0037C11.3544 11.4621 11.5032 12.0091 11.5032 12.6445C11.5032 13.2719 11.3544 13.8148 11.0568 14.2733C10.7592 14.7318 10.3369 15.0857 9.78997 15.335C9.24302 15.5764 8.5915 15.697 7.83542 15.697H5.26555L6.13424 14.8162V18.0256H4.17969ZM6.13424 15.0334L5.26555 14.1044H7.72683C8.33009 14.1044 8.78052 13.9757 9.07813 13.7183C9.37573 13.4609 9.52453 13.103 9.52453 12.6445C9.52453 12.178 9.37573 11.8161 9.07813 11.5587C8.78052 11.3013 8.33009 11.1726 7.72683 11.1726H5.26555L6.13424 10.2436V15.0334Z" fill="#1A2E62"/>
<path d="M12.8986 18.0256V9.57999H16.5544C17.3104 9.57999 17.9619 9.70466 18.5089 9.95401C19.0559 10.1953 19.4781 10.5452 19.7757 11.0037C20.0733 11.4621 20.2221 12.0091 20.2221 12.6445C20.2221 13.2719 20.0733 13.8148 19.7757 14.2733C19.4781 14.7318 19.0559 15.0857 18.5089 15.335C17.9619 15.5764 17.3104 15.697 16.5544 15.697H13.9845L14.8532 14.8162V18.0256H12.8986ZM14.8532 15.0334L13.9845 14.1044H16.4458C17.049 14.1044 17.4995 13.9757 17.7971 13.7183C18.0947 13.4609 18.2435 13.103 18.2435 12.6445C18.2435 12.178 18.0947 11.8161 17.7971 11.5587C17.4995 11.3013 17.049 11.1726 16.4458 11.1726H13.9845L14.8532 10.2436V15.0334Z" fill="#1A2E62"/>
<path d="M23.4273 13.3805H27.4812V14.949H23.4273V13.3805ZM23.5721 18.0256H21.6176V9.57999H28V11.1485H23.5721V18.0256Z" fill="#1A2E62"/>
</mask>
<g mask="url(#mask0_1_478)">
<rect x="3.54297" y="-0.097168" width="26.0405" height="26.7443" fill="url(#paint0_linear_1_478)"/>
<rect x="3.54297" y="-0.097168" width="26.0405" height="26.7443" fill="white" fill-opacity="0.5"/>
</g>
<defs>
<linearGradient id="paint0_linear_1_478" x1="42.0201" y1="9.1742" x2="-18.9519" y2="23.1382" gradientUnits="userSpaceOnUse">
<stop offset="0.0895831" stop-color="white" stop-opacity="0.41"/>
<stop offset="0.501041" stop-color="white"/>
<stop offset="0.797916" stop-color="white" stop-opacity="0.4"/>
</linearGradient>
</defs>
</svg>
