<svg width="162" height="23" viewBox="0 0 162 23" fill="none" xmlns="http://www.w3.org/2000/svg">
<path opacity="0.8" d="M34.53 6.03L32.51 13H31.49L29.87 7.39L28.19 13L27.18 13.01L25.23 6.03H26.2L27.72 11.94L29.4 6.03H30.42L32.02 11.92L33.55 6.03H34.53ZM39.6459 11.45H36.6059L36.0459 13H35.0859L37.6059 6.07H38.6559L41.1659 13H40.2059L39.6459 11.45ZM39.3859 10.71L38.1259 7.19L36.8659 10.71H39.3859ZM46.5541 6.03V6.77H44.6541V13H43.7441V6.77H41.8341V6.03H46.5541ZM47.3343 9.51C47.3343 8.83 47.4876 8.22 47.7943 7.68C48.101 7.13333 48.5176 6.70667 49.0443 6.4C49.5776 6.09333 50.1676 5.94 50.8143 5.94C51.5743 5.94 52.2376 6.12333 52.8043 6.49C53.371 6.85667 53.7843 7.37667 54.0443 8.05H52.9543C52.761 7.63 52.481 7.30667 52.1143 7.08C51.7543 6.85333 51.321 6.74 50.8143 6.74C50.3276 6.74 49.891 6.85333 49.5043 7.08C49.1176 7.30667 48.8143 7.63 48.5943 8.05C48.3743 8.46333 48.2643 8.95 48.2643 9.51C48.2643 10.0633 48.3743 10.55 48.5943 10.97C48.8143 11.3833 49.1176 11.7033 49.5043 11.93C49.891 12.1567 50.3276 12.27 50.8143 12.27C51.321 12.27 51.7543 12.16 52.1143 11.94C52.481 11.7133 52.761 11.39 52.9543 10.97H54.0443C53.7843 11.6367 53.371 12.1533 52.8043 12.52C52.2376 12.88 51.5743 13.06 50.8143 13.06C50.1676 13.06 49.5776 12.91 49.0443 12.61C48.5176 12.3033 48.101 11.88 47.7943 11.34C47.4876 10.8 47.3343 10.19 47.3343 9.51ZM60.7689 6.03V13H59.8589V9.84H56.3089V13H55.3989V6.03H56.3089V9.09H59.8589V6.03H60.7689ZM70.4688 13H69.5588L65.8988 7.45V13H64.9888V6.02H65.8988L69.5588 11.56V6.02H70.4688V13ZM75.18 13.07C74.5333 13.07 73.9433 12.92 73.41 12.62C72.8767 12.3133 72.4533 11.89 72.14 11.35C71.8333 10.8033 71.68 10.19 71.68 9.51C71.68 8.83 71.8333 8.22 72.14 7.68C72.4533 7.13333 72.8767 6.71 73.41 6.41C73.9433 6.10333 74.5333 5.95 75.18 5.95C75.8333 5.95 76.4267 6.10333 76.96 6.41C77.4933 6.71 77.9133 7.13 78.22 7.67C78.5267 8.21 78.68 8.82333 78.68 9.51C78.68 10.1967 78.5267 10.81 78.22 11.35C77.9133 11.89 77.4933 12.3133 76.96 12.62C76.4267 12.92 75.8333 13.07 75.18 13.07ZM75.18 12.28C75.6667 12.28 76.1033 12.1667 76.49 11.94C76.8833 11.7133 77.19 11.39 77.41 10.97C77.6367 10.55 77.75 10.0633 77.75 9.51C77.75 8.95 77.6367 8.46333 77.41 8.05C77.19 7.63 76.8867 7.30667 76.5 7.08C76.1133 6.85333 75.6733 6.74 75.18 6.74C74.6867 6.74 74.2467 6.85333 73.86 7.08C73.4733 7.30667 73.1667 7.63 72.94 8.05C72.72 8.46333 72.61 8.95 72.61 9.51C72.61 10.0633 72.72 10.55 72.94 10.97C73.1667 11.39 73.4733 11.7133 73.86 11.94C74.2533 12.1667 74.6933 12.28 75.18 12.28ZM88.6413 6.03L86.6213 13H85.6013L83.9813 7.39L82.3013 13L81.2913 13.01L79.3413 6.03H80.3113L81.8313 11.94L83.5113 6.03H84.5313L86.1313 11.92L87.6613 6.03H88.6413Z" fill="white"/>
<circle cx="10" cy="10" r="10" fill="white" fill-opacity="0.4"/>
<path d="M13.4616 9.33385C13.9745 9.62993 13.9745 10.3701 13.4616 10.6662L8.84625 13.3309C8.33343 13.627 7.6924 13.2569 7.6924 12.6647L7.6924 7.33533C7.6924 6.74318 8.33343 6.37308 8.84625 6.66916L13.4616 9.33385Z" fill="white"/>
<path d="M13.4616 9.33385C13.9745 9.62993 13.9745 10.3701 13.4616 10.6662L8.84625 13.3309C8.33343 13.627 7.6924 13.2569 7.6924 12.6647L7.6924 7.33533C7.6924 6.74318 8.33343 6.37308 8.84625 6.66916L13.4616 9.33385Z" fill="white" fill-opacity="0.2"/>
<path d="M113.337 15.3405C113.356 15.2035 113.472 15.1003 113.611 15.1003C113.613 15.1003 113.615 15.1003 113.617 15.1003C113.704 15.1045 113.786 15.1298 113.853 15.1761L113.851 15.174C118.485 18.0948 124.12 19.8312 130.16 19.8396C134.678 19.8101 138.956 18.8028 142.795 17.0137L142.608 17.0917C142.684 17.0453 142.776 17.0179 142.875 17.0179C143.166 17.0179 143.402 17.2539 143.402 17.5448C143.402 17.7407 143.295 17.9114 143.137 18.002L143.135 18.0042C139.451 20.75 134.811 22.4021 129.783 22.4021C123.425 22.3979 117.666 19.8375 113.476 15.6924L113.478 15.6945C113.407 15.6292 113.356 15.5407 113.337 15.4416V15.4395V15.3405ZM140.155 15.7936C141.131 15.1192 142.34 14.7167 143.643 14.7167C143.704 14.7167 143.765 14.7167 143.826 14.7188H143.817C143.923 14.7083 144.047 14.702 144.171 14.702C144.846 14.702 145.476 14.8895 146.015 15.2162L145.999 15.2077C146.03 15.4585 146.047 15.7514 146.047 16.0464C146.047 18.0252 145.248 19.8165 143.957 21.1167C143.662 21.3843 143.377 21.241 143.51 20.887C143.946 19.7237 144.922 17.1064 144.458 16.47C143.997 15.8336 141.409 16.1666 140.246 16.3183C140.066 16.3394 139.963 16.2656 139.951 16.1581V16.097C139.978 15.9685 140.054 15.8631 140.157 15.7957L140.159 15.7936H140.155ZM158.179 10.8266C159.016 10.8266 159.435 10.1874 159.435 8.90894C159.435 7.63612 159.013 7.00181 158.179 7.00181C157.342 7.00181 156.923 7.63752 156.923 8.90894C156.923 10.1881 157.344 10.8266 158.179 10.8266ZM158.179 12.1816C158.13 12.1837 158.076 12.1858 158.021 12.1858C157.212 12.1858 156.48 11.8529 155.956 11.3176C155.454 10.7297 155.149 9.96049 155.149 9.11967C155.149 9.04592 155.151 8.97427 155.155 8.90051V8.91105C155.151 8.84993 155.149 8.78039 155.149 8.70874C155.149 7.87003 155.454 7.10085 155.96 6.5087L155.956 6.51291C156.541 5.97976 157.323 5.65101 158.181 5.65101C159.039 5.65101 159.82 5.97765 160.408 6.51502L160.406 6.51291C160.908 7.10085 161.213 7.86792 161.213 8.70664C161.213 8.77828 161.211 8.84783 161.207 8.91737V8.90683C161.211 8.96794 161.213 9.0417 161.213 9.11335C161.213 9.95417 160.908 10.7233 160.402 11.3176L160.406 11.3134C159.882 11.8487 159.148 12.1816 158.339 12.1816C158.284 12.1816 158.227 12.1795 158.173 12.1774H158.181L158.179 12.1816ZM151.747 6.90698C150.997 6.90698 150.563 7.37059 150.447 8.30203C150.746 8.36314 151.092 8.39686 151.444 8.39686C151.461 8.39686 151.478 8.39686 151.492 8.39686C151.526 8.39897 151.564 8.40107 151.604 8.40107C151.88 8.40107 152.139 8.33153 152.365 8.20931L152.356 8.21352C152.521 8.09762 152.626 7.91007 152.626 7.69723C152.626 7.68248 152.626 7.66562 152.624 7.65087C152.624 7.15143 152.331 6.90487 151.747 6.90487V6.90698ZM151.583 9.46106C151.558 9.46106 151.53 9.46106 151.501 9.46106C151.119 9.46106 150.748 9.41259 150.394 9.32198L150.426 9.3283C150.428 9.77294 150.609 10.1733 150.9 10.4663C151.199 10.6833 151.577 10.814 151.981 10.814C152.032 10.814 152.08 10.8119 152.131 10.8076H152.125C152.129 10.8076 152.135 10.8076 152.141 10.8076C152.361 10.8076 152.576 10.7929 152.786 10.7634L152.761 10.7655C153.128 10.7086 153.442 10.6391 153.749 10.5527L153.694 10.5653L153.751 10.5611C153.882 10.5611 153.949 10.6538 153.949 10.8329V11.3787C153.949 11.3914 153.952 11.404 153.952 11.4188C153.952 11.5009 153.931 11.5789 153.897 11.6485L153.899 11.6464C153.846 11.7096 153.779 11.7559 153.699 11.7833C153.168 11.9941 152.55 12.1142 151.907 12.1142C151.897 12.1142 151.889 12.1142 151.878 12.1142C151.819 12.1184 151.754 12.1205 151.684 12.1205C150.896 12.1205 150.179 11.8107 149.651 11.3071L149.653 11.3092C149.164 10.7528 148.867 10.0174 148.867 9.21239C148.867 9.13864 148.869 9.06488 148.875 8.99323V9.00377C148.871 8.94266 148.869 8.87101 148.869 8.79936C148.869 7.95643 149.172 7.18304 149.674 6.58245L149.67 6.58878C150.188 6.04509 150.917 5.70791 151.726 5.70791C151.781 5.70791 151.836 5.71002 151.889 5.71213H151.88C151.924 5.71002 151.977 5.70791 152.03 5.70791C152.62 5.70791 153.161 5.91021 153.589 6.2516L153.585 6.24739C153.964 6.57613 154.202 7.05871 154.202 7.59818C154.202 7.62136 154.202 7.64665 154.2 7.66983V7.66562C154.202 7.69091 154.202 7.72041 154.202 7.74991C154.202 8.27042 153.941 8.72982 153.545 9.00588L153.541 9.01009C153.045 9.3009 152.449 9.4737 151.815 9.4737C151.737 9.4737 151.659 9.4716 151.583 9.46527H151.593L151.583 9.46106ZM144.766 10.8034C145.177 10.8013 145.558 10.6749 145.874 10.462L145.868 10.4663V7.27998C145.541 7.09032 145.149 6.97863 144.732 6.97863C144.715 6.97863 144.698 6.97863 144.681 6.97863C144.663 6.97652 144.641 6.97652 144.618 6.97652C144.252 6.97652 143.929 7.16407 143.742 7.44856L143.739 7.45278C143.539 7.81735 143.421 8.24935 143.421 8.71085C143.421 8.77618 143.423 8.84151 143.428 8.90473V8.8963C143.423 8.95109 143.421 9.01431 143.421 9.07753C143.421 9.53903 143.546 9.97314 143.761 10.3461L143.754 10.3335C143.967 10.6201 144.304 10.8055 144.686 10.8055C144.713 10.8055 144.743 10.8034 144.77 10.8034H144.766ZM144.193 12.131C144.176 12.131 144.159 12.131 144.14 12.131C143.655 12.131 143.204 11.9793 142.835 11.7222L142.844 11.7264C142.454 11.4441 142.153 11.0647 141.971 10.6222L141.965 10.6053C141.771 10.1396 141.66 9.59593 141.66 9.02906C141.66 8.99956 141.66 8.97216 141.66 8.94266V8.94687C141.657 8.88997 141.655 8.82465 141.655 8.75721C141.655 7.92903 141.921 7.16197 142.374 6.54031L142.366 6.55084C142.781 6.00294 143.434 5.65101 144.167 5.65101C144.19 5.65101 144.214 5.65101 144.237 5.65312H144.233C144.249 5.65312 144.268 5.65312 144.287 5.65312C144.886 5.65312 145.438 5.85753 145.876 6.20103L145.87 6.19681V3.373C145.87 3.36457 145.868 3.35403 145.868 3.34349C145.868 3.26552 145.895 3.19387 145.942 3.13698C145.996 3.09483 146.068 3.06954 146.144 3.06954C146.152 3.06954 146.163 3.06954 146.171 3.07165H147.318C147.335 3.06743 147.354 3.06533 147.375 3.06533C147.512 3.06533 147.623 3.17701 147.623 3.31399C147.623 3.33506 147.621 3.35614 147.615 3.37721V3.3751V11.699C147.615 11.7096 147.617 11.7201 147.617 11.7306C147.617 11.8044 147.592 11.8739 147.55 11.9287C147.497 11.9751 147.427 12.0046 147.351 12.0046C147.339 12.0046 147.328 12.0046 147.318 12.0025H146.361C146.355 12.0025 146.346 12.0025 146.34 12.0025C146.266 12.0025 146.197 11.9793 146.14 11.9414C146.083 11.8887 146.043 11.817 146.028 11.7391L145.956 11.4609C145.508 11.8782 144.903 12.1353 144.239 12.1353C144.224 12.1353 144.209 12.1353 144.195 12.1353L144.193 12.131ZM139.063 12.0004C139.055 12.0004 139.046 12.0025 139.038 12.0025C138.96 12.0025 138.891 11.9751 138.836 11.9266C138.789 11.8739 138.76 11.8044 138.76 11.7264C138.76 11.7159 138.76 11.7054 138.762 11.6969V6.13781C138.762 6.12938 138.76 6.11884 138.76 6.1083C138.76 6.03033 138.787 5.95658 138.836 5.90179C138.891 5.86175 138.96 5.83646 139.034 5.83646C139.044 5.83646 139.053 5.83646 139.063 5.83857H140.21C140.22 5.83646 140.233 5.83646 140.246 5.83646C140.321 5.83646 140.391 5.86175 140.446 5.90389C140.486 5.95868 140.511 6.02823 140.511 6.10409C140.511 6.11673 140.511 6.12938 140.509 6.14202V11.699C140.509 11.7075 140.511 11.7201 140.511 11.7306C140.511 11.8044 140.486 11.8739 140.446 11.9287C140.391 11.9751 140.321 12.0046 140.243 12.0046C140.231 12.0046 140.218 12.0046 140.208 12.0025H140.21L139.063 12.0004ZM139.637 4.88184C139.622 4.88184 139.605 4.88395 139.59 4.88395C139.329 4.88395 139.089 4.78701 138.907 4.62685C138.737 4.44773 138.633 4.20539 138.633 3.93987C138.633 3.67434 138.739 3.42989 138.91 3.25288C139.108 3.09483 139.363 3 139.639 3C139.915 3 140.17 3.09483 140.37 3.25498L140.368 3.25288C140.536 3.432 140.642 3.67434 140.642 3.93987C140.642 4.20539 140.538 4.44773 140.368 4.62685C140.187 4.78701 139.948 4.88395 139.685 4.88395C139.668 4.88395 139.653 4.88395 139.637 4.88184ZM134.318 12.0004C134.311 12.0004 134.305 12.0004 134.299 12.0004C134.235 12.0004 134.174 11.9899 134.117 11.9709L134.122 11.973C134.069 11.9519 134.025 11.9182 133.991 11.8761C133.951 11.8234 133.917 11.7601 133.892 11.6948L133.89 11.6906L131.844 6.31904L131.783 6.15256C131.768 6.11252 131.759 6.06827 131.759 6.0219C131.759 5.89757 131.839 5.83857 132 5.83857H133.194C133.211 5.83646 133.23 5.83435 133.251 5.83435C133.437 5.83435 133.591 5.97343 133.614 6.15256V6.15467L134.847 10.4262L136.103 6.15467C136.124 6.05773 136.172 5.97554 136.24 5.91232C136.309 5.86596 136.393 5.84067 136.486 5.84067C136.499 5.84067 136.511 5.84067 136.524 5.84278H137.681C137.841 5.84278 137.921 5.89968 137.921 6.0219C137.921 6.07037 137.911 6.11463 137.896 6.15677V6.15467L137.839 6.32536L135.793 11.6948C135.765 11.7644 135.732 11.8255 135.69 11.8803L135.692 11.8782C135.66 11.9203 135.618 11.954 135.569 11.9772C135.519 11.9941 135.458 12.0046 135.397 12.0046C135.384 12.0046 135.371 12.0046 135.361 12.0025L134.318 12.0004ZM126.554 6.87537C125.785 6.87537 125.343 7.34952 125.222 8.29782C125.528 8.36104 125.88 8.39475 126.238 8.39475C126.257 8.39475 126.276 8.39475 126.293 8.39475C126.329 8.39686 126.369 8.39897 126.411 8.39897C126.691 8.39897 126.955 8.32732 127.186 8.20299L127.178 8.2072C127.347 8.08919 127.456 7.89532 127.456 7.67826C127.456 7.66351 127.456 7.64665 127.454 7.6319C127.454 7.12333 127.154 6.87186 126.554 6.87326V6.87537ZM126.386 9.48213C126.365 9.48213 126.339 9.48213 126.312 9.48213C125.916 9.48213 125.532 9.43366 125.163 9.34305L125.197 9.34937C125.201 9.80244 125.387 10.2113 125.684 10.5084C125.992 10.7297 126.377 10.8624 126.792 10.8624C126.843 10.8624 126.894 10.8603 126.944 10.8561H126.938C126.942 10.8561 126.948 10.8561 126.955 10.8561C127.18 10.8561 127.401 10.8414 127.621 10.8119L127.595 10.814C127.97 10.7571 128.291 10.6854 128.607 10.5948L128.55 10.6096L128.611 10.6053C128.747 10.6053 128.815 10.6974 128.815 10.8814V11.4377C128.815 11.4504 128.818 11.463 128.818 11.4778C128.818 11.5621 128.799 11.6421 128.763 11.7117L128.765 11.7096C128.71 11.7749 128.638 11.8234 128.558 11.8487H128.554C128.01 12.0615 127.38 12.1858 126.723 12.1858C126.712 12.1858 126.7 12.1858 126.689 12.1858H126.691C126.63 12.19 126.558 12.1922 126.487 12.1922C125.68 12.1922 124.946 11.8761 124.405 11.3619L124.407 11.364C123.905 10.7992 123.6 10.0511 123.6 9.22925C123.6 9.15339 123.602 9.07542 123.608 9.00166V9.0122C123.604 8.95109 123.602 8.87944 123.602 8.80779C123.602 7.94589 123.914 7.15565 124.428 6.54452L124.424 6.54874C124.955 5.99451 125.703 5.64891 126.531 5.64891C126.588 5.64891 126.647 5.65101 126.704 5.65312H126.695C126.742 5.65101 126.794 5.64891 126.847 5.64891C127.452 5.64891 128.008 5.85543 128.449 6.20103L128.442 6.19681C128.832 6.53188 129.077 7.02499 129.077 7.575C129.077 7.60029 129.077 7.62347 129.075 7.64876V7.64454C129.077 7.66983 129.077 7.69933 129.077 7.72884C129.077 8.26199 128.809 8.73192 128.4 9.01009L128.394 9.01431C127.888 9.31144 127.279 9.48845 126.63 9.48845C126.546 9.48845 126.464 9.48635 126.381 9.48002H126.392L126.386 9.48213ZM114.833 6.42651C115.164 6.1947 115.541 5.9924 115.944 5.84067L115.98 5.82803C116.292 5.71634 116.652 5.65101 117.027 5.65101C117.029 5.65101 117.031 5.65101 117.033 5.65101C117.076 5.6468 117.126 5.64469 117.177 5.64469C117.76 5.64469 118.272 5.95447 118.555 6.41808L118.559 6.4244C118.892 6.18838 119.271 5.98819 119.68 5.84278L119.714 5.83224C120.045 5.71634 120.426 5.65101 120.824 5.65101C120.827 5.65101 120.829 5.65101 120.831 5.65101C120.862 5.64891 120.898 5.6468 120.936 5.6468C121.4 5.6468 121.821 5.82803 122.135 6.12305C122.424 6.44126 122.599 6.86483 122.599 7.33055C122.599 7.36848 122.597 7.40642 122.595 7.44435V7.44013V11.7011C122.595 11.7096 122.597 11.7201 122.597 11.7328C122.597 11.8086 122.571 11.8761 122.529 11.933C122.477 11.9793 122.407 12.0067 122.331 12.0067C122.319 12.0067 122.306 12.0067 122.293 12.0046H121.143C121.132 12.0067 121.122 12.0067 121.111 12.0067C121.037 12.0067 120.968 11.9793 120.917 11.933C120.871 11.8782 120.843 11.8065 120.843 11.7285C120.843 11.7201 120.843 11.7096 120.846 11.7011V11.7033V7.82999C120.846 7.28208 120.603 7.00813 120.114 7.00813C119.636 7.01445 119.187 7.12825 118.789 7.32845L118.806 7.32002V11.7011C118.806 11.7096 118.808 11.7201 118.808 11.7328C118.808 11.8086 118.782 11.8761 118.74 11.933C118.688 11.9793 118.618 12.0067 118.542 12.0067C118.53 12.0067 118.515 12.0067 118.502 12.0046H117.354C117.343 12.0067 117.333 12.0067 117.322 12.0067C117.248 12.0067 117.179 11.9793 117.128 11.933C117.082 11.8803 117.052 11.8107 117.052 11.7328C117.052 11.7222 117.052 11.7117 117.054 11.7033V7.8321C117.054 7.28419 116.81 7.01024 116.323 7.01024C115.841 7.01235 115.385 7.13246 114.985 7.34109L115.002 7.33266V11.7033C115.002 11.7117 115.004 11.7222 115.004 11.7349C115.004 11.8107 114.979 11.8782 114.937 11.9351C114.884 11.9814 114.814 12.0088 114.738 12.0088C114.726 12.0088 114.713 12.0088 114.701 12.0067H113.548C113.539 12.0067 113.529 12.0088 113.518 12.0088C113.442 12.0088 113.375 11.9814 113.322 11.9351C113.278 11.8803 113.251 11.8107 113.251 11.7349C113.251 11.7243 113.251 11.7159 113.253 11.7054V11.7075V6.14413C113.251 6.13359 113.251 6.12095 113.251 6.11041C113.251 6.03244 113.278 5.9629 113.324 5.906C113.379 5.86385 113.447 5.83857 113.523 5.83857C113.533 5.83857 113.544 5.83857 113.552 5.84067H113.55H114.416C114.424 5.84067 114.433 5.83857 114.443 5.83857C114.599 5.83857 114.73 5.95447 114.753 6.10409V6.1062L114.833 6.42651ZM109.995 6.13781C109.995 6.12938 109.993 6.11884 109.993 6.1083C109.993 6.03033 110.02 5.95868 110.067 5.90179C110.121 5.85964 110.191 5.83435 110.267 5.83435C110.277 5.83435 110.286 5.83435 110.296 5.83646H110.294H111.447C111.457 5.83435 111.47 5.83435 111.483 5.83435C111.559 5.83435 111.626 5.85964 111.683 5.90179C111.725 5.95658 111.75 6.02612 111.75 6.10198C111.75 6.11463 111.75 6.12727 111.748 6.13991V6.13781V11.7011C111.748 11.7096 111.75 11.7201 111.75 11.7328C111.75 11.8086 111.725 11.8761 111.683 11.933C111.628 11.9793 111.556 12.0088 111.478 12.0088C111.468 12.0088 111.455 12.0088 111.445 12.0067H110.296C110.29 12.0067 110.281 12.0067 110.273 12.0067C110.195 12.0067 110.123 11.9793 110.069 11.9308C110.024 11.8761 109.997 11.8065 109.997 11.7306C109.997 11.7201 109.997 11.7117 109.999 11.7011V11.7033L109.995 6.13781ZM110.872 4.88184C110.857 4.88184 110.84 4.88395 110.821 4.88395C110.56 4.88395 110.322 4.78701 110.138 4.62896L110.14 4.63107C109.97 4.4688 109.862 4.23911 109.862 3.98623C109.862 3.97148 109.862 3.95462 109.864 3.93987C109.864 3.92722 109.862 3.91247 109.862 3.89772C109.862 3.64484 109.97 3.41936 110.14 3.2592C110.34 3.09904 110.595 3.00421 110.874 3.00421C111.152 3.00421 111.405 3.09904 111.607 3.2592L111.605 3.25709C111.776 3.41936 111.883 3.64695 111.883 3.89983C111.883 3.91458 111.883 3.93144 111.881 3.94619C111.881 3.95883 111.881 3.97148 111.881 3.98623C111.881 4.24121 111.773 4.47091 111.603 4.63318C111.422 4.79123 111.181 4.88606 110.92 4.88606C110.903 4.88606 110.884 4.88606 110.867 4.88395H110.869L110.872 4.88184ZM106.853 6.75104C107.108 6.4518 107.407 6.20103 107.742 6.00715L107.759 5.99872C108.02 5.85753 108.332 5.77535 108.661 5.77535C108.663 5.77535 108.665 5.77535 108.667 5.77535H108.832C108.84 5.77535 108.851 5.77324 108.861 5.77324C108.941 5.77324 109.015 5.79853 109.074 5.84067H109.072C109.118 5.89546 109.146 5.96711 109.146 6.04298C109.146 6.05562 109.146 6.06616 109.144 6.0788V7.09032C109.144 7.09875 109.146 7.10928 109.146 7.11982C109.146 7.19568 109.12 7.26522 109.078 7.32002C109.023 7.36638 108.954 7.39377 108.878 7.39377C108.865 7.39377 108.855 7.39377 108.842 7.39166H108.844C108.773 7.39166 108.701 7.38815 108.629 7.38113C108.547 7.37481 108.452 7.37059 108.358 7.37059C108.096 7.37059 107.841 7.39799 107.597 7.45067L107.62 7.44646C107.365 7.49492 107.139 7.56236 106.925 7.65508L106.946 7.64665V11.7011C106.946 11.7096 106.948 11.7201 106.948 11.7328C106.948 11.8086 106.922 11.8761 106.88 11.933C106.828 11.9793 106.756 12.0088 106.678 12.0088C106.667 12.0088 106.655 12.0088 106.644 12.0067H105.496C105.483 12.0088 105.468 12.0109 105.454 12.0109C105.308 12.0109 105.19 11.8929 105.19 11.7475C105.19 11.7328 105.192 11.718 105.194 11.7033V6.13991C105.194 6.12938 105.192 6.11884 105.192 6.1083C105.192 6.03033 105.22 5.95868 105.268 5.90179C105.323 5.85964 105.392 5.83435 105.466 5.83435C105.477 5.83435 105.487 5.83435 105.498 5.83646H106.36C106.368 5.83646 106.377 5.83435 106.387 5.83435C106.543 5.83435 106.672 5.94815 106.697 6.09777V6.09987L106.853 6.75104ZM100.933 6.98074C100.499 6.98074 100.093 7.10296 99.747 7.31369L99.7575 7.30737V10.4831C100.086 10.6875 100.482 10.8097 100.91 10.8097C100.919 10.8097 100.927 10.8097 100.936 10.8097C100.961 10.8119 100.988 10.814 101.018 10.814C101.389 10.814 101.717 10.6327 101.922 10.3567L101.924 10.3546C102.128 9.99211 102.25 9.5601 102.25 9.0986C102.25 9.03117 102.248 8.96373 102.242 8.8963V8.90473C102.246 8.84572 102.248 8.77829 102.248 8.70874C102.248 8.24513 102.13 7.80891 101.924 7.4296L101.93 7.44435C101.724 7.16407 101.393 6.98284 101.022 6.98284C100.99 6.98284 100.959 6.98495 100.929 6.98706H100.933V6.98074ZM98.0021 6.13781C98.0021 6.12938 98 6.11673 98 6.1062C98 6.02823 98.0295 5.95658 98.0759 5.89968C98.1307 5.85753 98.1981 5.83224 98.274 5.83224C98.2845 5.83224 98.295 5.83224 98.3035 5.83435H99.1675C99.1759 5.83435 99.1864 5.83224 99.1949 5.83224C99.3508 5.83224 99.4793 5.94815 99.5004 6.09777V6.09987L99.5847 6.41387C99.8271 6.18206 100.116 5.99451 100.436 5.86807L100.455 5.86175C100.763 5.73109 101.121 5.65523 101.498 5.65312C101.523 5.65312 101.553 5.65101 101.582 5.65101C102.295 5.65101 102.931 5.98608 103.338 6.50659L103.342 6.5108C103.768 7.10085 104.025 7.83631 104.025 8.63288C104.025 8.70242 104.023 8.76986 104.019 8.83729V8.82886C104.019 8.85836 104.021 8.89208 104.021 8.9258C104.021 9.52428 103.896 10.0933 103.675 10.6074L103.686 10.58C103.485 11.05 103.171 11.4377 102.779 11.7243L102.771 11.7306C102.413 11.9835 101.966 12.1374 101.486 12.1374C101.473 12.1374 101.46 12.1374 101.448 12.1374H101.45C101.445 12.1374 101.439 12.1374 101.435 12.1374C101.106 12.1374 100.788 12.0805 100.495 11.973L100.514 11.9793C100.221 11.8803 99.9682 11.7328 99.7533 11.5452L99.7554 11.5473V14.1878C99.7575 14.1983 99.7575 14.211 99.7575 14.2236C99.7575 14.2995 99.7322 14.369 99.6901 14.4259C99.6332 14.4681 99.5636 14.4934 99.4878 14.4934C99.4751 14.4934 99.4646 14.4934 99.4519 14.4912H98.3056C98.2971 14.4912 98.2887 14.4912 98.2782 14.4912C98.2023 14.4912 98.1328 14.466 98.078 14.4238C98.0316 14.369 98.0021 14.2995 98.0021 14.2215C98.0021 14.2089 98.0021 14.1962 98.0042 14.1857L98.0021 6.13781Z" fill="white" fill-opacity="0.94"/>
<line x1="92.25" y1="1.09278e-08" x2="92.25" y2="22" stroke="white" stroke-opacity="0.34" stroke-width="0.5"/>
</svg>
