<svg width="20" height="20" viewBox="0 0 20 20" fill="none" xmlns="http://www.w3.org/2000/svg">
<g clip-path="url(#clip0_156_112)">
<mask id="path-1-inside-1_156_112" fill="white">
<path d="M16.7311 9.13241L14.0427 8.1373C13.4278 7.90968 12.9545 7.40789 12.7631 6.78073L11.6985 3.29153C11.6458 3.11859 11.4857 3 11.3049 3C11.1241 3 10.9639 3.11859 10.9112 3.29153L9.84701 6.78056C9.65568 7.40782 9.18231 7.90969 8.56728 8.13731L5.87865 9.13241C5.71683 9.19253 5.60977 9.34612 5.60977 9.51865C5.60977 9.69076 5.71683 9.84517 5.87865 9.90488L8.55539 10.8958C9.17595 11.1256 9.65193 11.6344 9.83985 12.2688L10.91 15.8821C10.9619 16.0566 11.1225 16.1765 11.3049 16.1765C11.4869 16.1765 11.6479 16.0566 11.6998 15.8816L12.7699 12.2685C12.9578 11.634 13.4338 11.1252 14.0544 10.8954L16.7315 9.90447C16.8925 9.84517 17 9.69118 17 9.51865C17 9.34653 16.8925 9.19253 16.7311 9.13241Z"/>
</mask>
<path d="M16.7311 9.13241L18.6857 3.88457L18.6751 3.88065L16.7311 9.13241ZM11.6985 3.29153L6.34178 4.92406L6.3423 4.92579L11.6985 3.29153ZM10.9112 3.29153L16.2676 4.92534L16.268 4.92406L10.9112 3.29153ZM5.87865 9.13241L3.93488 3.88057L3.92847 3.88295L5.87865 9.13241ZM5.87865 9.90488L7.82287 4.65321L7.81708 4.65107L5.87865 9.90488ZM10.91 15.8821L5.54056 17.4724L5.54201 17.4773L10.91 15.8821ZM11.6998 15.8816L17.0688 17.4734L17.0692 17.472L11.6998 15.8816ZM16.7315 9.90447L14.7962 4.64951L14.7875 4.65273L16.7315 9.90447ZM14.0544 10.8954L15.9985 16.1472L14.0544 10.8954ZM8.55539 10.8958L6.61118 16.1475L8.55539 10.8958ZM9.84701 6.78056L4.49064 5.14675L9.84701 6.78056ZM18.6751 3.88065L15.9867 2.88553L12.0988 13.3891L14.7872 14.3842L18.6751 3.88065ZM18.1194 5.14647L17.0548 1.65727L6.3423 4.92579L7.40691 8.41499L18.1194 5.14647ZM17.0553 1.65899C16.2841 -0.871613 13.9489 -2.6 11.3049 -2.6V8.6C9.02243 8.6 7.0076 7.10879 6.34178 4.92406L17.0553 1.65899ZM11.3049 -2.6C8.66092 -2.6 6.32572 -0.871628 5.55448 1.65899L16.268 4.92406C15.6022 7.1088 13.5873 8.6 11.3049 8.6V-2.6ZM5.55487 1.65772L4.49064 5.14675L15.2034 8.41437L16.2676 4.92534L5.55487 1.65772ZM6.62352 2.88548L3.93489 3.88058L7.82242 14.3842L10.5111 13.3891L6.62352 2.88548ZM3.92847 3.88295C1.57909 4.75575 0.00977182 6.99851 0.00977182 9.51865H11.2098C11.2098 11.6937 9.85457 13.6293 7.82883 14.3819L3.92847 3.88295ZM0.00977182 9.51865C0.00977182 12.0263 1.56908 14.2838 3.94023 15.1587L7.81708 4.65107C9.86458 5.40651 11.2098 7.35526 11.2098 9.51865H0.00977182ZM3.93444 15.1566L6.61118 16.1475L10.4996 5.64416L7.82287 4.65321L3.93444 15.1566ZM4.47041 13.8591L5.54056 17.4724L16.2794 14.2917L15.2093 10.6785L4.47041 13.8591ZM5.54201 17.4773C6.30043 20.0294 8.64598 21.7765 11.3049 21.7765V10.5765C13.599 10.5765 15.6233 12.0839 16.278 14.2869L5.54201 17.4773ZM11.3049 21.7765C13.9629 21.7765 16.311 20.0294 17.0688 17.4734L6.33075 14.2899C6.98477 12.0839 9.0109 10.5765 11.3049 10.5765V21.7765ZM17.0692 17.472L18.1394 13.8588L7.40046 10.6782L6.33033 14.2913L17.0692 17.472ZM15.9985 16.1472L18.6756 15.1562L14.7875 4.65273L12.1104 5.6437L15.9985 16.1472ZM18.6669 15.1594C21.0352 14.2872 22.6 12.0317 22.6 9.51865H11.4C11.4 7.35065 12.7498 5.40317 14.7962 4.64952L18.6669 15.1594ZM22.6 9.51865C22.6 6.99545 21.0275 4.75679 18.6857 3.88458L14.7766 14.3802C12.7576 13.6283 11.4 11.6976 11.4 9.51865H22.6ZM18.1394 13.8588C17.8261 14.9163 17.0328 15.7643 15.9985 16.1472L12.1104 5.6437C9.8349 6.48602 8.08953 8.35165 7.40046 10.6782L18.1394 13.8588ZM6.61118 16.1475C5.57691 15.7646 4.78361 14.9166 4.47041 13.8591L15.2093 10.6785C14.5203 8.35211 12.775 6.48653 10.4996 5.64416L6.61118 16.1475ZM4.49064 5.14675C4.80952 4.10131 5.59848 3.26486 6.62352 2.88548L10.5111 13.3891C12.7661 12.5545 14.5018 10.7143 15.2034 8.41437L4.49064 5.14675ZM15.9867 2.88553C17.0116 3.2649 17.8004 4.1012 18.1194 5.14647L7.40691 8.41499C8.10855 10.7146 9.84404 12.5545 12.0988 13.3891L15.9867 2.88553Z" fill="#1E96FC" mask="url(#path-1-inside-1_156_112)"/>
<path d="M8.49582 13.6622L7.543 13.3097L7.17241 11.9509C7.12382 11.7713 6.96117 11.647 6.77547 11.647C6.58976 11.647 6.42712 11.7713 6.37812 11.9504L6.00753 13.3093L5.05512 13.6617C4.89329 13.7214 4.78623 13.8759 4.78623 14.048C4.78623 14.2201 4.89329 14.3745 5.05512 14.4342L6.00259 14.7854L6.37606 16.2769C6.42218 16.4597 6.58647 16.5882 6.77547 16.5882C6.96447 16.5882 7.12876 16.4597 7.17488 16.2764L7.54835 14.785L8.49582 14.4338C8.65764 14.3745 8.7647 14.2201 8.7647 14.048C8.7647 13.8759 8.65764 13.7214 8.49582 13.6622ZM6.70959 4.7421L5.73618 4.3818L5.37547 3.40798C5.31576 3.24616 5.16176 3.1391 4.98923 3.1391C4.81712 3.1391 4.66312 3.24616 4.603 3.40798L4.24271 4.3818L3.26888 4.7421C3.10706 4.80222 3 4.95622 3 5.12833C3 5.30045 3.10706 5.45486 3.26888 5.51457L4.24271 5.87486L4.603 6.84869C4.66312 7.01051 4.81712 7.11757 4.98923 7.11757C5.16135 7.11757 5.31535 7.01051 5.37547 6.84869L5.73576 5.87486L6.70959 5.51457C6.87141 5.45445 6.97847 5.30045 6.97847 5.12833C6.97847 4.95622 6.87141 4.80222 6.70959 4.7421Z" fill="#1E96FC" fill-opacity="0.72"/>
</g>
<defs>
<clipPath id="clip0_156_112">
<rect width="20" height="20" fill="white"/>
</clipPath>
</defs>
</svg>
