<svg width="414" height="53" viewBox="0 0 414 53" fill="none" xmlns="http://www.w3.org/2000/svg">
<path d="M387.155 14.8516L392.936 32.5937H380.576L387.553 14.8516H387.155ZM360.741 52.0303H374.795L378.084 42.9599H395.826L399.116 52.0303H413.17L393.733 0.398694H380.078L360.741 52.0303ZM344.195 52.0303H358.249V0.398694H344.195V52.0303ZM298.743 34.2882C298.743 46.6479 308.611 52.0303 320.173 52.0303C330.938 52.0303 341.603 47.9437 341.603 35.4843C341.603 26.4139 334.128 23.1246 327.15 21.0314C319.276 18.9383 312.299 18.9382 312.299 14.8516C312.299 11.5623 316.385 10.7649 318.479 10.7649C322.565 10.7649 326.752 11.961 326.752 16.5461H339.111C339.111 5.38245 329.243 0 319.276 0C309.807 0 298.643 4.08666 298.643 15.649C298.643 24.7194 306.916 28.0087 313.495 29.7031C320.97 31.7963 327.948 32.5937 327.948 37.1788C327.948 41.2654 323.861 42.1625 319.675 42.1625C314.292 42.1625 310.604 40.0693 310.604 33.8895H298.245L298.743 34.2882ZM275.22 14.8516L281.001 32.5937H268.641L275.618 14.8516H275.22ZM249.304 52.0303H262.96L266.249 42.9599H284.39L287.679 52.0303H301.733L282.297 0.398694H268.242L249.304 52.0303ZM203.852 52.0303H209.235V8.27301L239.337 52.0303H245.118V0.398694H240.134V43.7573L209.634 0.897069H203.852V52.0303ZM193.088 52.0303H198.071V0.398694H193.088V52.0303ZM141.954 52.0303H155.51V31.3976H173.252V52.0303H186.509V0.398694H173.252V18.9382H155.51V0.897069H141.855V52.0303H141.954ZM137.768 19.0379C137.768 7.47563 126.604 0.498375 115.939 0.498375C101.088 0.498375 91.2197 12.0607 91.2197 26.5135C91.2197 40.5677 101.088 52.13 115.939 52.13C128.299 52.13 137.768 44.6544 138.665 31.4973H126.305C125.508 37.6771 122.219 40.9664 115.939 40.9664C107.666 40.9664 104.377 33.4908 104.377 26.5135C104.377 19.0379 107.666 11.662 115.939 11.662C121.322 11.662 125.408 14.1538 125.807 19.1376H138.167H137.768V19.0379ZM48.2598 52.0303H90.3226V40.468H61.4169V30.6002H87.0333V20.234H62.314V10.7649H89.5252V0.897069H48.2598V52.0303ZM44.0735 0.398694H0.714844V11.961H15.9651V52.0303H29.6206V11.961H44.8709V0.398694H44.0735Z" fill="black"/>
</svg>
