<svg width="197" height="77" viewBox="0 0 197 77" fill="none" xmlns="http://www.w3.org/2000/svg">
<path d="M39.1632 46.1781H43.7792V33.6238L49.3618 16.6906H44.8667L41.725 27.5225H41.6404L38.4865 16.6906H33.5806L39.1632 33.6238V46.1781ZM57.3733 46.6027C58.3288 46.6675 59.2871 46.5281 60.1849 46.1935C61.0827 45.8589 61.8995 45.3369 62.5814 44.6619C63.8617 43.1396 64.5067 41.1797 64.3818 39.1914V23.6895C64.5092 21.6934 63.8643 19.725 62.5814 18.1947C61.8977 17.5222 61.0806 17.0018 60.1833 16.6674C59.2859 16.333 58.3285 16.1921 57.3733 16.2539C56.4199 16.1916 55.4641 16.3322 54.5686 16.6667C53.6732 17.0012 52.8583 17.5219 52.1773 18.1947C50.8886 19.7176 50.2388 21.6831 50.3648 23.6773V39.1914C50.2381 41.182 50.8882 43.1439 52.1773 44.6619C52.8569 45.3366 53.6716 45.8586 54.5674 46.1932C55.4632 46.5277 56.4197 46.6673 57.3733 46.6027V46.6027ZM54.9566 23.3862C54.9566 21.4576 55.7541 20.4872 57.3733 20.4872C58.9925 20.4872 59.79 21.4576 59.79 23.3862V39.4825C59.79 41.4232 58.9845 42.3936 57.3733 42.3936C55.7621 42.3936 54.9566 41.4232 54.9566 39.4825V23.3862ZM74.2059 46.6027C75.1463 46.6655 76.0894 46.5271 76.9726 46.1967C77.8558 45.8663 78.6591 45.3514 79.3293 44.6862C80.5872 43.1443 81.2136 41.1798 81.0815 39.1914V16.6906H76.6347V39.5189C76.7093 40.3004 76.4941 41.0821 76.0305 41.7144C75.8059 41.9461 75.5343 42.1267 75.234 42.2439C74.9338 42.3611 74.612 42.4122 74.2904 42.3936C73.9607 42.4219 73.6288 42.3756 73.3193 42.2581C73.0098 42.1405 72.7305 41.9547 72.5021 41.7144C72.0341 41.0838 71.8146 40.3019 71.8858 39.5189V16.6906H67.3182V39.1914C67.1906 41.1813 67.8213 43.1455 69.0824 44.6862C69.7521 45.3521 70.5553 45.8674 71.4387 46.1978C72.322 46.5282 73.2653 46.6662 74.2059 46.6027V46.6027ZM88.9721 33.5389H90.6276C91.038 33.4948 91.4531 33.5438 91.8421 33.6824C92.2311 33.8209 92.5842 34.0455 92.8751 34.3394C93.3916 35.1858 93.6206 36.1775 93.5276 37.1657V42.5513C93.4888 43.3274 93.4969 44.1051 93.5518 44.8802C93.6129 45.3406 93.7264 45.7923 93.8901 46.2266H98.5907C98.3659 45.7401 98.223 45.2196 98.1678 44.6862C98.1021 44.009 98.0739 43.3287 98.0832 42.6483V37.4204C98.1395 35.9969 97.9051 34.5769 97.3944 33.2477C97.1736 32.7427 96.8413 32.2945 96.4226 31.9373C96.0039 31.5801 95.5098 31.3231 94.9777 31.1857V31.1008C96.9916 30.2921 97.9986 28.3554 97.9986 25.2906V23.4711C98.1497 21.6156 97.5633 19.7753 96.3673 18.3523C95.6518 17.7434 94.8231 17.283 93.9291 16.9978C93.0351 16.7125 92.0937 16.6081 91.1592 16.6906H84.3561V46.1781H88.9721V33.5389ZM88.9721 20.8996H91.0747C91.4075 20.8731 91.7419 20.9239 92.052 21.048C92.3621 21.1721 92.6396 21.3662 92.863 21.6153C93.292 22.3073 93.487 23.1199 93.4189 23.9321V26.2125C93.5093 27.08 93.2626 27.9491 92.7301 28.6384C92.4503 28.8933 92.1217 29.0881 91.7644 29.2112C91.407 29.3342 91.0284 29.3829 90.6517 29.3541H88.9721V20.8996ZM107.279 46.6027C108.229 46.6685 109.182 46.5294 110.074 46.1947C110.966 45.8599 111.777 45.3373 112.451 44.6619C113.736 43.1099 114.377 41.1202 114.239 39.1064C114.278 37.4241 113.905 35.7579 113.152 34.2545C112.098 32.5049 110.749 30.9532 109.164 29.6695C107.973 28.6934 106.92 27.5589 106.034 26.2974C105.455 25.4051 105.141 24.366 105.128 23.3013C105.128 21.4212 105.901 20.4872 107.436 20.4872C107.755 20.4654 108.076 20.5162 108.373 20.6359C108.67 20.7556 108.936 20.9411 109.152 21.1786C109.602 21.8215 109.812 22.6033 109.744 23.3862V24.9024H114.106V23.6895C114.248 21.7157 113.658 19.7589 112.451 18.1947C111.804 17.5281 111.02 17.0113 110.154 16.6803C109.288 16.3493 108.36 16.2121 107.436 16.2782C106.497 16.2148 105.556 16.3529 104.674 16.6834C103.793 17.0138 102.992 17.529 102.325 18.1947C101.066 19.7082 100.434 21.6492 100.56 23.6167C100.533 25.2262 100.924 26.8151 101.696 28.226C102.769 29.9436 104.116 31.4721 105.684 32.7504C106.866 33.7363 107.899 34.8884 108.753 36.171C109.321 37.1627 109.609 38.2905 109.587 39.4339C109.655 40.2339 109.442 41.0325 108.983 41.6901C108.754 41.9314 108.475 42.1194 108.166 42.2409C107.857 42.3625 107.525 42.4146 107.194 42.3936C105.583 42.3936 104.778 41.4354 104.778 39.5189V37.5053H100.476V39.1914C100.344 41.1738 100.956 43.1338 102.192 44.6862C102.852 45.3544 103.649 45.8716 104.527 46.2024C105.405 46.5332 106.343 46.6697 107.279 46.6027V46.6027ZM120.486 46.1781H125.102V20.8996H129.936V16.6906H115.665V20.8996H120.486V46.1781ZM138.66 46.6027C139.616 46.6675 140.574 46.5281 141.472 46.1935C142.369 45.8589 143.186 45.3369 143.868 44.6619C145.148 43.1396 145.794 41.1797 145.669 39.1914V23.6895C145.796 21.6934 145.151 19.725 143.868 18.1947C142.422 16.9423 140.576 16.2533 138.666 16.2533C136.756 16.2533 134.91 16.9423 133.464 18.1947C132.175 19.7176 131.526 21.6831 131.652 23.6773V39.1914C131.525 41.182 132.175 43.1439 133.464 44.6619C134.144 45.3366 134.958 45.8586 135.854 46.1932C136.75 46.5277 137.706 46.6673 138.66 46.6027V46.6027ZM136.243 23.3862C136.243 21.4576 137.041 20.4872 138.66 20.4872C140.279 20.4872 141.077 21.4576 141.077 23.3862V39.4825C141.077 41.4232 140.271 42.3936 138.66 42.3936C137.049 42.3936 136.243 41.4232 136.243 39.4825V23.3862ZM153.39 33.5389H154.985C155.396 33.4948 155.811 33.5438 156.2 33.6824C156.589 33.8209 156.942 34.0455 157.233 34.3394C157.749 35.1858 157.978 36.1775 157.885 37.1657V42.5513C157.868 43.3125 157.897 44.0739 157.97 44.8317C158.031 45.292 158.144 45.7438 158.308 46.1781H162.997C162.78 45.6894 162.642 45.1696 162.586 44.6376C162.52 43.9605 162.492 43.2801 162.501 42.5998V37.4204C162.558 35.9969 162.323 34.5769 161.812 33.2477C161.592 32.7427 161.259 32.2945 160.841 31.9373C160.422 31.5801 159.928 31.3231 159.396 31.1857V31.1008C161.418 30.2921 162.425 28.3554 162.417 25.2906V23.4711C162.568 21.6156 161.981 19.7753 160.785 18.3523C160.07 17.7434 159.241 17.283 158.347 16.9978C157.453 16.7125 156.512 16.6081 155.577 16.6906H148.738V46.1781H153.354L153.39 33.5389ZM153.39 20.8996H155.493C155.824 20.8722 156.157 20.9226 156.465 21.0468C156.773 21.1711 157.049 21.3657 157.269 21.6153C157.712 22.3015 157.912 23.1177 157.837 23.9321V26.2125C157.927 27.08 157.681 27.9491 157.148 28.6384C156.868 28.8933 156.54 29.0881 156.182 29.2112C155.825 29.3342 155.446 29.3829 155.07 29.3541H153.39V20.8996ZM169.256 46.1781H173.872V33.6238L179.455 16.6906H174.959L171.818 27.5225H171.733L168.579 16.6906H163.673L169.256 33.6238V46.1781Z" fill="#FF0000"/>
<path d="M192.13 0H15.8174V62.5049H196.964V0H192.13ZM192.13 57.6651H20.5421V4.85192H192.13V57.6651Z" fill="#FF0000"/>
<path d="M178.379 61.7408C177.677 61.7315 176.987 61.5614 176.361 61.2434V72.1603H4.83347V19.335H18.2705C17.9413 18.5468 17.8185 17.6872 17.9137 16.838C18.0089 15.9887 18.3189 15.1781 18.8143 14.483H0V77H181.182V61.2313C180.285 61.5632 179.336 61.7356 178.379 61.7408V61.7408Z" fill="#FF0000"/>
<path d="M21.521 59.4603L3.77011 75.9447L0.36252 72.5241L18.1134 56.0397L21.521 59.4603ZM19.213 3.43269L3.50427 17.9399L0.0966797 14.5193L15.8054 0.012085L19.213 3.43269V3.43269Z" fill="#FF0000"/>
</svg>
