<svg width="19" height="20" viewBox="0 0 19 20" fill="none" xmlns="http://www.w3.org/2000/svg">
<rect x="2.375" y="2.7251" width="14.25" height="14.25" rx="7.125" fill="white" fill-opacity="0.49" stroke="#8CC9FD" stroke-width="1.58333"/>
<path d="M9.16117 6.4554C9.31502 6.19977 9.68563 6.19976 9.83948 6.4554L10.7168 7.91317C10.772 8.00501 10.8622 8.07051 10.9666 8.0947L12.6241 8.47858C12.9148 8.5459 13.0293 8.89838 12.8338 9.12369L11.7184 10.4085C11.6482 10.4895 11.6137 10.5954 11.623 10.7022L11.7701 12.3973C11.7959 12.6945 11.4961 12.9123 11.2213 12.796L9.65474 12.1323C9.55604 12.0905 9.44461 12.0905 9.34592 12.1323L7.77931 12.796C7.50458 12.9123 7.20475 12.6945 7.23054 12.3973L7.37765 10.7022C7.38692 10.5954 7.35248 10.4895 7.28222 10.4085L6.1669 9.12369C5.97131 8.89838 6.08584 8.5459 6.3765 8.47858L8.03403 8.0947C8.13845 8.07051 8.2286 8.00501 8.28387 7.91317L9.16117 6.4554Z" fill="#1E96FC" stroke="#1E96FC" stroke-width="1.58333"/>
</svg>
